<?xml version="1.0" standalone="no"?>
<!DOCTYPE svg PUBLIC "-//W3C//DTD SVG 1.1//EN" "http://www.w3.org/Graphics/SVG/1.1/DTD/svg11.dtd" >
<svg xmlns="http://www.w3.org/2000/svg" xmlns:xlink="http://www.w3.org/1999/xlink" version="1.1">
<metadata>
Created by FontForge 20170731 at Mon Feb 23 18:19:16 2009
 By Aleksey,,,
Copyright (c) 2008 - 2009 Linotype GmbH, www.linotype.com. All rights reserved. This font software may not be reproduced, modified, disclosed or transferred without the express written approval of Linotype GmbH.
</metadata>
<defs>
<font id="DINNextLTPro-HeavyCondensed" horiz-adv-x="437" >
  <font-face 
    font-family="DIN Next LT Pro Heavy Condensed"
    font-weight="750"
    font-stretch="condensed"
    units-per-em="1000"
    panose-1="2 11 9 6 2 2 3 5 2 3"
    ascent="750"
    descent="-250"
    x-height="487"
    cap-height="680"
    bbox="-103.692 -242 973 912"
    underline-thickness="50"
    underline-position="-200"
    unicode-range="U+0020-FB04"
  />
<missing-glyph horiz-adv-x="443" 
d="M0 10v660q0 10 10 10h423q10 0 10 -10v-660q0 -10 -10 -10h-423q-10 0 -10 10zM72 73q0 -6 6 -6h287q6 0 6 6v534q0 6 -6 6h-287q-6 0 -6 -6v-534zM182 249q-10 0 -10 10v26q0 28 17 53l33 51q19 29 19 58q0 13 -3 20q-5 13 -20 13q-14 0 -19 -13q-3 -7 -3 -33
q0 -11 -11 -9l-75 8q-9 0 -9 11q0 30 7 48q25 71 112 71t112 -71q7 -18 7 -44q0 -40 -26 -81l-33 -51q-13 -18 -13 -37v-20q0 -10 -10 -10h-75zM175 124v80q0 10 10 10h72q10 0 10 -10v-80q0 -10 -10 -10h-72q-10 0 -10 10z" />
    <glyph glyph-name="IJ" unicode="IJ" horiz-adv-x="620" 
d="M37 10v660q0 10 10 10h139q10 0 10 -10v-660q0 -10 -10 -10h-139q-10 0 -10 10zM245 48q-7 6 1 14l84 85q8 8 17 0q17 -15 35 -15q42 0 42 51v487q0 10 10 10h139q10 0 10 -10v-472q0 -104 -51.5 -156t-146.5 -52q-92 0 -140 58z" />
    <glyph glyph-name="ij" unicode="ij" horiz-adv-x="443" 
d="M176 550h-131q-10 0 -10 10v110q0 10 10 10h131q10 0 10 -10v-110q0 -10 -10 -10zM176 0h-131q-10 0 -10 10v467q0 10 10 10h131q10 0 10 -10v-467q0 -10 -10 -10zM397 550h-131q-10 0 -10 10v110q0 10 10 10h131q10 0 10 -10v-110q0 -10 -10 -10zM222 -180h-21
q-10 0 -10 10v110q0 10 10 10l14 1q22 2 31.5 14t9.5 43v469q0 10 10 10h131q10 0 10 -10v-463q0 -194 -185 -194z" />
    <glyph glyph-name="napostrophe" unicode="&#x22;n" horiz-adv-x="435" 
d="M-43 475q-10 0 -10 10v185q0 10 10 10h93q10 0 10 -10v-84q0 -14 -9 -24l-82 -81q-5 -6 -12 -6zM392 0h-131q-10 0 -10 10v311q0 45 -32 45q-33 0 -33 -45v-311q0 -10 -10 -10h-131q-10 0 -10 10v467q0 10 10 10h130q10 0 10 -10v-37h1q29 57 99 57q62 0 89.5 -36
t27.5 -114v-337q0 -10 -10 -10z" />
    <glyph glyph-name="f_f" unicode="ff" horiz-adv-x="612" 
d="M204 0h-131q-10 0 -10 10v360q0 6 -6 6h-31q-10 0 -10 10v91q0 10 10 10h31q6 0 6 6v18q0 87 44.5 128t136.5 41h35q10 0 10 -10v-107q0 -10 -10 -10h-26q-39 0 -39 -35v-25q0 -6 6 -6h59q10 0 10 -10v-91q0 -10 -10 -10h-59q-6 0 -6 -6v-360q0 -10 -10 -10zM509 0h-131
q-10 0 -10 10v360q0 6 -6 6h-31q-10 0 -10 10v91q0 10 10 10h31q6 0 6 6v18q0 87 44.5 128t136.5 41h35q10 0 10 -10v-107q0 -10 -10 -10h-26q-39 0 -39 -35v-25q0 -6 6 -6h59q10 0 10 -10v-91q0 -10 -10 -10h-59q-6 0 -6 -6v-360q0 -10 -10 -10z" />
    <glyph glyph-name="fi" unicode="fi" horiz-adv-x="526" 
d="M481 550h-131q-10 0 -10 10v110q0 10 10 10h131q10 0 10 -10v-110q0 -10 -10 -10zM481 0h-131q-10 0 -10 10v467q0 10 10 10h131q10 0 10 -10v-467q0 -10 -10 -10zM204 0h-131q-10 0 -10 10v360q0 6 -6 6h-31q-10 0 -10 10v91q0 10 10 10h31q6 0 6 6v18q0 87 44.5 128
t136.5 41h35q10 0 10 -10v-107q0 -10 -10 -10h-26q-39 0 -39 -35v-25q0 -6 6 -6h59q10 0 10 -10v-91q0 -10 -10 -10h-59q-6 0 -6 -6v-360q0 -10 -10 -10z" />
    <glyph glyph-name="fl" unicode="fl" horiz-adv-x="565" 
d="M537 -6h-21q-94 1 -134.5 40.5t-40.5 139.5v496q0 10 10 10h131q10 0 10 -10v-495q0 -47 39 -50l6 -1q10 0 10 -11v-109q0 -10 -10 -10zM204 0h-131q-10 0 -10 10v360q0 6 -6 6h-31q-10 0 -10 10v91q0 10 10 10h31q6 0 6 6v18q0 87 44.5 128t136.5 41h35q10 0 10 -10
v-107q0 -10 -10 -10h-26q-39 0 -39 -35v-25q0 -6 6 -6h59q10 0 10 -10v-91q0 -10 -10 -10h-59q-6 0 -6 -6v-360q0 -10 -10 -10z" />
    <glyph glyph-name="f_f_i" unicode="ffi" horiz-adv-x="832" 
d="M787 550h-131q-10 0 -10 10v110q0 10 10 10h131q10 0 10 -10v-110q0 -10 -10 -10zM787 0h-131q-10 0 -10 10v467q0 10 10 10h131q10 0 10 -10v-467q0 -10 -10 -10zM204 0h-131q-10 0 -10 10v360q0 6 -6 6h-31q-10 0 -10 10v91q0 10 10 10h31q6 0 6 6v18q0 87 44.5 128
t136.5 41h35q10 0 10 -10v-107q0 -10 -10 -10h-26q-39 0 -39 -35v-25q0 -6 6 -6h59q10 0 10 -10v-91q0 -10 -10 -10h-59q-6 0 -6 -6v-360q0 -10 -10 -10zM509 0h-131q-10 0 -10 10v360q0 6 -6 6h-31q-10 0 -10 10v91q0 10 10 10h31q6 0 6 6v18q0 87 44.5 128t136.5 41h35
q10 0 10 -10v-107q0 -10 -10 -10h-26q-39 0 -39 -35v-25q0 -6 6 -6h59q10 0 10 -10v-91q0 -10 -10 -10h-59q-6 0 -6 -6v-360q0 -10 -10 -10z" />
    <glyph glyph-name="f_f_l" unicode="ffl" horiz-adv-x="871" 
d="M843 -6h-21q-94 1 -134.5 40.5t-40.5 139.5v496q0 10 10 10h131q10 0 10 -10v-495q0 -47 39 -50l6 -1q10 0 10 -11v-109q0 -10 -10 -10zM204 0h-131q-10 0 -10 10v360q0 6 -6 6h-31q-10 0 -10 10v91q0 10 10 10h31q6 0 6 6v18q0 87 44.5 128t136.5 41h35q10 0 10 -10
v-107q0 -10 -10 -10h-26q-39 0 -39 -35v-25q0 -6 6 -6h59q10 0 10 -10v-91q0 -10 -10 -10h-59q-6 0 -6 -6v-360q0 -10 -10 -10zM509 0h-131q-10 0 -10 10v360q0 6 -6 6h-31q-10 0 -10 10v91q0 10 10 10h31q6 0 6 6v18q0 87 44.5 128t136.5 41h35q10 0 10 -10v-107
q0 -10 -10 -10h-26q-39 0 -39 -35v-25q0 -6 6 -6h59q10 0 10 -10v-91q0 -10 -10 -10h-59q-6 0 -6 -6v-360q0 -10 -10 -10z" />
    <glyph glyph-name=".notdef" horiz-adv-x="443" 
d="M0 10v660q0 10 10 10h423q10 0 10 -10v-660q0 -10 -10 -10h-423q-10 0 -10 10zM72 73q0 -6 6 -6h287q6 0 6 6v534q0 6 -6 6h-287q-6 0 -6 -6v-534zM182 249q-10 0 -10 10v26q0 28 17 53l33 51q19 29 19 58q0 13 -3 20q-5 13 -20 13q-14 0 -19 -13q-3 -7 -3 -33
q0 -11 -11 -9l-75 8q-9 0 -9 11q0 30 7 48q25 71 112 71t112 -71q7 -18 7 -44q0 -40 -26 -81l-33 -51q-13 -18 -13 -37v-20q0 -10 -10 -10h-75zM175 124v80q0 10 10 10h72q10 0 10 -10v-80q0 -10 -10 -10h-72q-10 0 -10 10z" />
    <glyph glyph-name=".null" horiz-adv-x="500" 
 />
    <glyph glyph-name="nonmarkingreturn" horiz-adv-x="333" 
 />
    <glyph glyph-name="space" unicode=" " horiz-adv-x="195" 
 />
    <glyph glyph-name="exclam" unicode="!" horiz-adv-x="255" 
d="M88 208q-10 0 -10 10l-28 452q0 10 10 10h135q10 0 10 -10l-27 -452q0 -10 -10 -10h-80zM58 10v135q0 10 10 10h120q10 0 10 -10v-135q0 -10 -10 -10h-120q-10 0 -10 10z" />
    <glyph glyph-name="quotedbl" unicode="&#x22;" horiz-adv-x="327" 
d="M194 460q-10 0 -10 10v200q0 10 10 10h88q10 0 10 -10v-200q0 -10 -10 -10h-88zM45 460q-10 0 -10 10v200q0 10 10 10h88q10 0 10 -10v-200q0 -10 -10 -10h-88z" />
    <glyph glyph-name="numbersign" unicode="#" horiz-adv-x="522" 
d="M71 10l19 184h-48q-10 0 -10 10v84q0 10 10 10h59l9 92h-49q-10 0 -10 10v83q0 10 10 10h60l19 177q2 10 11 10h98q11 0 9 -10l-19 -177h65l19 177q2 10 11 10h98q11 0 9 -10l-19 -177h58q10 0 10 -10v-83q0 -10 -10 -10h-69l-9 -92h59q10 0 10 -10v-84q0 -10 -10 -10
h-70l-19 -184q-2 -10 -11 -10h-98q-11 0 -9 10l19 184h-65l-19 -184q-2 -10 -11 -10h-98q-11 0 -9 10zM219 298h65l9 92h-65z" />
    <glyph glyph-name="dollar" unicode="$" 
d="M175 -7q-75 9 -109.5 55t-36.5 126q0 11 8 12l122 21q11 1 11 -9q1 -46 11.5 -63t34.5 -17q22 0 31 14.5t9 56.5q0 40 -11.5 58t-47.5 32l-41 16q-65 26 -93 70t-28 124q0 176 140 198v61q0 10 10 10h69q10 0 10 -10v-62q124 -20 137 -168q0 -10 -9 -11l-121 -19
q-9 -2 -11 8q-2 38 -11 52t-29 14t-28.5 -13t-8.5 -46t11.5 -49t48.5 -31l41 -16q67 -26 93.5 -70.5t26.5 -130.5q0 -190 -140 -212v-68q0 -10 -10 -10h-69q-10 0 -10 10v67z" />
    <glyph glyph-name="percent" unicode="%" horiz-adv-x="740" 
d="M192 0l254 680q3 10 14 10h81q10 0 7 -10l-254 -680q-3 -10 -13 -10h-82q-10 0 -7 10zM176 329q-90 0 -114 73q-8 27 -8 106q0 80 8 107q25 72 114 72t114 -72q8 -27 8 -107q0 -79 -8 -106q-24 -73 -114 -73zM176 411q15 0 19 13q3 8 3 84t-3 84q-4 13 -19 13t-19 -13
q-3 -8 -3 -84t3 -84q4 -13 19 -13zM450 66q-8 27 -8 106q0 80 8 107q25 72 114 72t114 -72q8 -27 8 -107q0 -79 -8 -106q-24 -73 -114 -73t-114 73zM545 88q4 -13 19 -13t19 13q3 8 3 84t-3 84q-4 13 -19 13t-19 -13q-3 -8 -3 -84t3 -84z" />
    <glyph glyph-name="ampersand" unicode="&#x26;" horiz-adv-x="553" 
d="M45 154q0 51 25 98t82 107q-38 56 -55 94.5t-17 78.5q0 71 47 114.5t123 43.5q75 0 122 -43.5t47 -114.5q0 -81 -101 -186l51 -77l39 57q6 8 15 2l81 -58q7 -6 2 -14l-66 -94l14 -21q13 -20 37 -20h6q10 0 10 -10v-101q0 -10 -10 -10h-46q-35 0 -54.5 9.5t-38.5 38.5
l-1 2q-57 -60 -146 -60q-73 0 -119.5 44.5t-46.5 119.5zM248 455q38 44 38 84q0 19 -9.5 30.5t-26.5 11.5q-36 0 -36 -42q0 -26 34 -84zM185 167q0 -23 12 -35.5t32 -12.5q28 0 58 36l-63 96q-39 -47 -39 -84z" />
    <glyph glyph-name="quotesingle" unicode="'" horiz-adv-x="178" 
d="M45 460q-10 0 -10 10v200q0 10 10 10h88q10 0 10 -10v-200q0 -10 -10 -10h-88z" />
    <glyph glyph-name="parenleft" unicode="(" horiz-adv-x="281" 
d="M141 -74q-88 176 -88 402t88 402q5 10 13 10h88q10 0 7 -10q-57 -190 -57 -402t57 -402q3 -10 -7 -10h-88q-8 0 -13 10z" />
    <glyph glyph-name="parenright" unicode=")" horiz-adv-x="281" 
d="M32 -74q57 190 57 402t-57 402q-3 10 7 10h88q8 0 13 -10q88 -176 88 -402t-88 -402q-5 -10 -13 -10h-88q-10 0 -7 10z" />
    <glyph glyph-name="asterisk" unicode="*" horiz-adv-x="366" 
d="M151 355q-10 0 -10 10l1 81l-57 -34q-9 -6 -13 4l-32 55q-5 9 3 14l58 32l-58 33q-8 5 -3 14l32 55q5 9 13 4l57 -35l-1 82q0 10 10 10h64q10 0 10 -10l-2 -82l58 35q9 6 13 -4l33 -55q5 -9 -3 -14l-59 -33l59 -32q8 -5 3 -14l-33 -55q-5 -9 -13 -4l-58 34l2 -81
q0 -10 -10 -10h-64z" />
    <glyph glyph-name="plus" unicode="+" 
d="M157 95v115q0 6 -6 6h-112q-10 0 -10 10v100q0 10 10 10h112q6 0 6 6v115q0 10 10 10h103q10 0 10 -10v-115q0 -6 6 -6h112q10 0 10 -10v-100q0 -10 -10 -10h-112q-6 0 -6 -6v-115q0 -10 -10 -10h-103q-10 0 -10 10z" />
    <glyph glyph-name="comma" unicode="," horiz-adv-x="212" 
d="M40 -92v237q0 10 10 10h112q10 0 10 -10v-112q0 -17 -9 -27l-101 -103q-5 -5 -12 -5q-10 0 -10 10z" />
    <glyph glyph-name="hyphen" unicode="-" horiz-adv-x="357" 
d="M45 197q-10 0 -10 10v116q0 10 10 10h268q10 0 10 -10v-116q0 -10 -10 -10h-268z" />
    <glyph glyph-name="period" unicode="." horiz-adv-x="221" 
d="M40 10v135q0 10 10 10h121q10 0 10 -10v-135q0 -10 -10 -10h-121q-10 0 -10 10z" />
    <glyph glyph-name="slash" unicode="/" horiz-adv-x="284" 
d="M16 0l124 680q2 10 13 10h107q10 0 8 -10l-124 -680q-2 -10 -13 -10h-107q-10 0 -8 10z" />
    <glyph glyph-name="zero" unicode="0" 
d="M46 103q-14 44 -14 237t14 237q37 113 172 113t172 -113q14 -44 14 -237t-14 -237q-37 -113 -172 -113t-172 113zM188 139q6 -21 30 -21t30 21q4 11 4 201t-4 201q-6 21 -30 21t-30 -21q-4 -11 -4 -201t4 -201z" />
    <glyph glyph-name="one" unicode="1" 
d="M165 10v502h-2l-84 -59q-3 -2 -5.5 -2t-4 2.5t-1.5 6.5v134q0 8 8 15l88 65q8 6 16 6h126q10 0 10 -10v-660q0 -10 -10 -10h-131q-10 0 -10 10z" />
    <glyph glyph-name="two" unicode="2" 
d="M36 10v108q0 10 5 18l172 250q22 31 29 53t7 62q0 29 -3 40q-8 21 -30 21q-23 0 -31 -21q-3 -11 -3 -53q0 -12 -12 -10l-124 12q-10 1 -10 12q0 52 9 79q16 52 60.5 80.5t112.5 28.5q136 0 173 -109q9 -30 9 -80q0 -57 -11.5 -94.5t-43.5 -81.5l-134 -191v-1h179
q10 0 10 -10v-113q0 -10 -10 -10h-344q-10 0 -10 10z" />
    <glyph glyph-name="three" unicode="3" 
d="M45 99q-10 30 -10 71q0 11 10 12l124 12q12 2 12 -10q0 -37 4 -46q8 -20 30 -20q24 0 30 21q3 11 3 61t-3 61q-7 21 -39 21h-16q-10 0 -10 10v114q0 10 10 10h19q29 0 36 20q3 9 3 58q0 36 -3 47q-6 21 -30 21q-22 0 -30 -20q-4 -9 -4 -46q0 -12 -12 -10l-124 12
q-10 1 -10 12q0 41 10 71q35 109 172 109q136 0 172 -109q10 -29 10 -87q0 -48 -9 -72q-14 -42 -55 -66v-2q43 -24 56 -66q8 -23 8 -90q0 -70 -10 -99q-36 -109 -172 -109q-137 0 -172 109z" />
    <glyph glyph-name="four" unicode="4" 
d="M32 104q-10 0 -10 10v122q0 5 2 11l129 425q3 8 11 8h130q10 0 7 -10l-128 -431v-2h61q6 0 6 6v119q0 10 10 10h122q10 0 10 -10v-119q0 -6 5 -6h26q10 0 10 -10v-113q0 -10 -10 -10h-25q-6 0 -6 -6v-88q0 -10 -10 -10h-122q-10 0 -10 10v88q0 6 -6 6h-202z" />
    <glyph glyph-name="five" unicode="5" 
d="M45 99q-9 27 -9 66q0 11 10 12l124 12q12 2 12 -10q0 -29 3 -40q8 -21 31 -21q22 0 30 21q3 11 3 83t-3 83q-8 21 -31 21q-25 0 -33 -25q-3 -10 -13 -10h-115q-9 0 -9 10v369q0 10 10 10h333q10 0 10 -10v-113q0 -10 -10 -10h-204q-6 0 -6 -6v-115h2q28 24 77 24
q102 0 131 -88q12 -33 12 -140q0 -93 -9 -123q-37 -109 -173 -109q-68 0 -112.5 28.5t-60.5 80.5z" />
    <glyph glyph-name="six" unicode="6" 
d="M44 100q-10 30 -10 101q0 66 8.5 106.5t29.5 86.5l127 277q5 9 15 9h132q12 0 7 -12l-116 -261l2 -2q8 4 25 4q96 0 128 -99q11 -35 11 -109q0 -71 -10 -101q-36 -110 -175 -110q-138 0 -174 110zM188 139q8 -21 30 -21q23 0 31 21q3 11 3 62q0 50 -3 61q-7 21 -31 21
q-22 0 -30 -21q-3 -11 -3 -61q0 -51 3 -62z" />
    <glyph glyph-name="seven" unicode="7" 
d="M86 12l166 536v2h-81q-6 0 -6 -6v-49q0 -10 -10 -10h-109q-10 0 -10 10v175q0 10 10 10h348q10 0 10 -10v-106q0 -4 -2 -12l-164 -542q-3 -10 -13 -10h-132q-11 0 -7 12z" />
    <glyph glyph-name="eight" unicode="8" 
d="M44 100q-10 30 -10 98q0 62 10 91q13 43 50 65v2q-37 22 -51 70q-9 26 -9 71q0 53 10 83q36 110 174 110q139 0 175 -110q10 -30 10 -83q0 -45 -9 -71q-14 -47 -51 -70v-2q35 -21 50 -65q10 -29 10 -91q0 -68 -10 -98q-36 -110 -175 -110q-138 0 -174 110zM218 413
q24 0 31 21q3 10 3 53t-3 54q-8 21 -31 21q-22 0 -30 -21q-3 -11 -3 -54t3 -53q8 -21 30 -21zM188 139q8 -21 30 -21q23 0 31 21q3 11 3 63t-3 62q-8 21 -31 21q-22 0 -30 -21q-3 -10 -3 -62t3 -63z" />
    <glyph glyph-name="nine" unicode="9" 
d="M84 12l116 261l-2 2q-8 -4 -25 -4q-96 0 -128 99q-11 35 -11 109q0 71 10 101q36 110 175 110q138 0 174 -110q10 -30 10 -101q0 -66 -8.5 -106.5t-29.5 -86.5l-127 -277q-4 -9 -15 -9h-132q-12 0 -7 12zM219 397q23 0 30 21q3 10 3 61t-3 62q-8 21 -30 21q-23 0 -31 -21
q-3 -11 -3 -62t3 -61q8 -21 31 -21z" />
    <glyph glyph-name="colon" unicode=":" horiz-adv-x="229" 
d="M54 332q-10 0 -10 10v135q0 10 10 10h121q10 0 10 -10v-135q0 -10 -10 -10h-121zM44 10v135q0 10 10 10h121q10 0 10 -10v-135q0 -10 -10 -10h-121q-10 0 -10 10z" />
    <glyph glyph-name="semicolon" unicode=";" horiz-adv-x="229" 
d="M54 332q-10 0 -10 10v135q0 10 10 10h121q10 0 10 -10v-135q0 -10 -10 -10h-121zM47 -86v231q0 10 10 10h112q10 0 10 -10v-106q0 -17 -9 -27l-101 -102q-5 -6 -12 -6q-10 0 -10 10z" />
    <glyph glyph-name="less" unicode="&#x3c;" 
d="M39 218q-10 3 -10 14v88q0 11 10 14l359 143q10 3 10 -7v-109q0 -9 -10 -13l-191 -71v-2l191 -71q10 -4 10 -13v-109q0 -10 -10 -7z" />
    <glyph glyph-name="equal" unicode="=" 
d="M39 311q-10 0 -10 10v99q0 10 10 10h359q10 0 10 -10v-99q0 -10 -10 -10h-359zM39 122q-10 0 -10 10v99q0 10 10 10h359q10 0 10 -10v-99q0 -10 -10 -10h-359z" />
    <glyph glyph-name="greater" unicode="&#x3e;" 
d="M39 75q-10 -3 -10 7v109q0 9 10 13l190 71v2l-190 71q-10 4 -10 13v109q0 10 10 7l359 -143q10 -3 10 -14v-88q0 -11 -10 -14z" />
    <glyph glyph-name="question" unicode="?" horiz-adv-x="416" 
d="M136 208q-10 0 -10 10v44q0 40 27 83l50 79q28 43 28 89q0 17 -3 28q-7 21 -30 21q-24 0 -31 -21q-3 -11 -3 -53q0 -12 -12 -10l-124 13q-10 1 -10 12q0 47 9 76q17 53 61.5 82t111.5 29q137 0 173 -111q9 -28 9 -66q0 -59 -39 -122l-50 -79q-21 -32 -21 -58v-36
q0 -10 -10 -10h-126zM131 10v135q0 10 10 10h121q10 0 10 -10v-135q0 -10 -10 -10h-121q-10 0 -10 10z" />
    <glyph glyph-name="at" unicode="@" horiz-adv-x="725" 
d="M50 70q-20 62 -20 200q0 136 20 198q33 100 116 155t197 55q113 0 196 -55t116 -155q20 -62 20 -198q0 -91 -11 -122q-30 -93 -139 -93q-93 0 -126 68h-1q-23 -68 -102 -68q-74 0 -95 65q-12 37 -12 145q0 112 11 146q22 65 92 65q54 0 78 -48h2v30q0 10 10 10h104
q10 0 10 -10v-263q0 -35 30 -35q20 0 27 18q3 9 3 92q0 121 -15 168q-20 63 -71.5 97t-126.5 34q-76 0 -127.5 -34t-71.5 -97q-15 -47 -15 -168q0 -122 15 -169q20 -64 71.5 -97.5t127.5 -33.5q88 0 148 41q9 5 14 -3l50 -68q5 -9 -3 -14q-92 -66 -209 -66q-114 0 -197 55.5
t-116 154.5zM336 181q6 -19 27 -19q20 0 26 19q3 11 3 84q0 75 -3 85q-6 19 -26 19q-21 0 -27 -19q-3 -10 -3 -85q0 -73 3 -84z" />
    <glyph glyph-name="A" unicode="A" horiz-adv-x="488" 
d="M7 10l149 660q3 10 12 10h155q10 0 12 -10l146 -660q3 -10 -8 -10h-138q-10 0 -12 10l-18 107h-121l-19 -107q-2 -10 -11 -10h-139q-10 0 -8 10zM205 236h79l-37 221h-2z" />
    <glyph glyph-name="B" unicode="B" horiz-adv-x="465" 
d="M37 10v660q0 10 10 10h198q98 0 144 -43.5t46 -132.5q0 -115 -79 -149v-2q87 -26 87 -154q0 -107 -50.5 -153t-153.5 -46h-192q-10 0 -10 10zM202 407h22q31 0 42.5 15.5t11.5 58.5q0 42 -11.5 57.5t-42.5 15.5h-22q-6 0 -6 -6v-135q0 -6 6 -6zM196 132q0 -6 6 -6h21
q34 0 47.5 17.5t13.5 64.5t-13.5 64t-47.5 17h-21q-6 0 -6 -6v-151z" />
    <glyph glyph-name="C" unicode="C" horiz-adv-x="444" 
d="M45 113q-15 47 -15 227t15 227q41 123 185 123q91 0 141 -48t55 -134q0 -11 -8 -12l-134 -22q-11 -2 -11 9q-1 65 -41 65q-26 0 -34 -24q-5 -18 -5 -184t5 -184q8 -24 34 -24q40 0 41 65q0 11 11 9l134 -22q8 -1 8 -12q-5 -86 -55 -134t-141 -48q-144 0 -185 123z" />
    <glyph glyph-name="D" unicode="D" horiz-adv-x="472" 
d="M37 10v660q0 10 10 10h189q150 0 188 -117q19 -60 19 -223t-19 -223q-38 -117 -188 -117h-189q-10 0 -10 10zM196 148q0 -6 6 -6h19q40 0 51 32q9 27 9 166t-9 166q-11 32 -51 32h-19q-6 0 -6 -6v-384z" />
    <glyph glyph-name="E" unicode="E" horiz-adv-x="401" 
d="M37 10v660q0 10 10 10h318q10 0 10 -10v-122q0 -10 -10 -10h-163q-6 0 -6 -6v-112q0 -6 6 -6h140q10 0 10 -10v-122q0 -10 -10 -10h-140q-6 0 -6 -6v-118q0 -6 6 -6h163q10 0 10 -10v-122q0 -10 -10 -10h-318q-10 0 -10 10z" />
    <glyph glyph-name="F" unicode="F" horiz-adv-x="397" 
d="M37 10v660q0 10 10 10h318q10 0 10 -10v-122q0 -10 -10 -10h-163q-6 0 -6 -6v-120q0 -6 6 -6h140q10 0 10 -10v-122q0 -10 -10 -10h-140q-6 0 -6 -6v-248q0 -10 -10 -10h-139q-10 0 -10 10z" />
    <glyph glyph-name="G" unicode="G" horiz-adv-x="466" 
d="M45 114q-15 46 -15 226t15 226q40 124 191 124q91 0 142 -48t57 -133q0 -10 -8 -12l-134 -21q-11 -2 -11 8q-4 64 -46 64q-29 0 -38 -26q-5 -16 -5 -182t5 -181q8 -27 41 -27q34 0 42 27q5 14 5 91q0 6 -6 6h-31q-10 0 -10 10v103q0 10 10 10h179q10 0 10 -10v-29
q0 -179 -15 -225q-41 -125 -187 -125q-151 0 -191 124z" />
    <glyph glyph-name="H" unicode="H" horiz-adv-x="478" 
d="M37 10v660q0 10 10 10h139q10 0 10 -10v-246q0 -6 6 -6h74q6 0 6 6v246q0 10 10 10h139q10 0 10 -10v-660q0 -10 -10 -10h-139q-10 0 -10 10v261q0 6 -6 6h-74q-6 0 -6 -6v-261q0 -10 -10 -10h-139q-10 0 -10 10z" />
    <glyph glyph-name="I" unicode="I" horiz-adv-x="233" 
d="M37 10v660q0 10 10 10h139q10 0 10 -10v-660q0 -10 -10 -10h-139q-10 0 -10 10z" />
    <glyph glyph-name="J" unicode="J" horiz-adv-x="386" 
d="M11 48q-7 6 1 14l84 85q8 8 17 0q17 -15 35 -15q42 0 42 51v487q0 10 10 10h139q10 0 10 -10v-472q0 -104 -51.5 -156t-146.5 -52q-92 0 -140 58z" />
    <glyph glyph-name="K" unicode="K" horiz-adv-x="486" 
d="M37 10v660q0 10 10 10h139q10 0 10 -10v-241l110 242q4 9 14 9h141q4 0 5.5 -3t-0.5 -7l-134 -262l146 -398q4 -10 -6 -10h-147q-8 0 -10 8l-85 254l-34 -74v-178q0 -10 -10 -10h-139q-10 0 -10 10z" />
    <glyph glyph-name="L" unicode="L" horiz-adv-x="398" 
d="M37 10v660q0 10 10 10h139q10 0 10 -10v-522q0 -6 6 -6h166q10 0 10 -10v-122q0 -10 -10 -10h-321q-10 0 -10 10z" />
    <glyph glyph-name="M" unicode="M" horiz-adv-x="576" 
d="M37 10v660q0 10 10 10h133q12 0 15 -10l93 -330h4l90 330q3 10 15 10h132q10 0 10 -10v-660q0 -10 -10 -10h-120q-10 0 -10 10v351h-5l-60 -230q-3 -10 -12 -10h-68q-9 0 -12 10l-60 230h-5v-351q0 -10 -10 -10h-120q-10 0 -10 10z" />
    <glyph glyph-name="N" unicode="N" horiz-adv-x="491" 
d="M37 10v660q0 10 10 10h145q11 0 14 -10l105 -379h5v379q0 10 10 10h118q10 0 10 -10v-660q0 -10 -10 -10h-142q-11 0 -14 10l-107 379h-6v-379q0 -10 -10 -10h-118q-10 0 -10 10z" />
    <glyph glyph-name="O" unicode="O" horiz-adv-x="471" 
d="M235 -10q-148 0 -189 125q-16 49 -16 225t16 225q41 125 189 125q149 0 190 -125q16 -49 16 -225t-16 -225q-41 -125 -190 -125zM235 132q30 0 38 25q5 16 5 183t-5 183q-8 25 -38 25q-29 0 -37 -25q-5 -16 -5 -183t5 -183q8 -25 37 -25z" />
    <glyph glyph-name="P" unicode="P" horiz-adv-x="463" 
d="M186 0h-139q-10 0 -10 10v660q0 10 10 10h187q99 0 153.5 -54t54.5 -165q0 -112 -56.5 -165.5t-151.5 -53.5h-32q-6 0 -6 -6v-226q0 -10 -10 -10zM225 376q31 0 44.5 18t13.5 67t-13.5 67t-44.5 18h-23q-6 0 -6 -6v-158q0 -6 6 -6h23z" />
    <glyph glyph-name="Q" unicode="Q" horiz-adv-x="473" 
d="M235 -10q-148 0 -189 125q-16 49 -16 225t16 225q41 125 189 125q149 0 190 -125q16 -49 16 -225t-16 -225l-5 -13l56 -67q8 -8 -1 -14l-94 -72q-8 -7 -15 2l-44 53q-40 -14 -87 -14zM235 132q30 0 38 25q5 16 5 183t-5 183q-8 25 -38 25q-29 0 -37 -25q-5 -16 -5 -183
t5 -183q8 -25 37 -25z" />
    <glyph glyph-name="R" unicode="R" horiz-adv-x="473" 
d="M455 0h-148q-10 0 -13 9l-69 245h-23q-6 0 -6 -6v-238q0 -10 -10 -10h-139q-10 0 -10 10v660q0 10 10 10h191q96 0 150 -52.5t54 -162.5q0 -117 -71 -172l89 -283q4 -10 -5 -10zM225 385q31 0 44.5 17.5t13.5 62.5t-13.5 63t-44.5 18h-23q-6 0 -6 -6v-149q0 -6 6 -6h23z
" />
    <glyph glyph-name="S" unicode="S" horiz-adv-x="445" 
d="M425 210q0 -111 -50 -165.5t-155 -54.5q-100 0 -149 49.5t-50 137.5q0 11 8 12l132 21q11 2 11 -9q1 -74 48 -74q23 0 33.5 14.5t10.5 48.5q0 35 -12 51t-49 30l-41 16q-73 29 -104 75t-31 129q0 199 194 199q93 0 143 -46t53 -128q0 -10 -9 -11l-126 -19q-11 -2 -11 8
q-1 59 -44 59q-41 0 -41 -51q0 -29 12 -43t51 -30l41 -16q73 -28 104 -73.5t31 -129.5z" />
    <glyph glyph-name="T" unicode="T" horiz-adv-x="440" 
d="M289 0h-139q-10 0 -10 10v522q0 6 -6 6h-112q-10 0 -10 10v122q0 10 10 10h395q10 0 10 -10v-122q0 -10 -10 -10h-112q-6 0 -6 -6v-522q0 -10 -10 -10z" />
    <glyph glyph-name="U" unicode="U" horiz-adv-x="472" 
d="M236 -10q-93 0 -146.5 53t-53.5 154v473q0 10 10 10h139q10 0 10 -10v-491q0 -47 41 -47t41 47v491q0 10 10 10h139q10 0 10 -10v-473q0 -101 -53.5 -154t-146.5 -53z" />
    <glyph glyph-name="V" unicode="V" horiz-adv-x="460" 
d="M302 0h-143q-9 0 -12 10l-137 660q-2 10 9 10h143q9 0 12 -10l57 -399h3l55 399q3 10 12 10h141q11 0 8 -10l-137 -660q-3 -10 -11 -10z" />
    <glyph glyph-name="W" unicode="W" horiz-adv-x="653" 
d="M515 0h-124q-9 0 -11 10l-52 368h-2l-52 -368q-3 -10 -12 -10h-124q-8 0 -11 10l-116 660q-3 10 8 10h143q9 0 11 -10l42 -396h3l51 396q2 10 11 10h93q9 0 12 -10l53 -396h2l41 396q3 10 12 10h141q11 0 8 -10l-116 -660q-2 -10 -11 -10z" />
    <glyph glyph-name="X" unicode="X" horiz-adv-x="453" 
d="M435 0h-142q-8 0 -11 10l-55 169h-1l-56 -169q-3 -10 -12 -10h-140q-11 0 -8 10l133 342l-124 318q-3 10 8 10h142q8 0 11 -10l46 -157h2l46 157q3 10 12 10h139q11 0 8 -10l-123 -318l133 -342q3 -10 -8 -10z" />
    <glyph glyph-name="Y" unicode="Y" horiz-adv-x="441" 
d="M290 0h-139q-10 0 -10 10v249l-134 411q-3 10 8 10h137q10 0 12 -10l57 -234h3l55 234q2 10 12 10h135q11 0 8 -10l-134 -411v-249q0 -10 -10 -10z" />
    <glyph glyph-name="Z" unicode="Z" horiz-adv-x="396" 
d="M360 0h-323q-10 0 -10 10v117q0 1 3 10l171 399v2h-155q-10 0 -10 10v122q0 10 10 10h314q10 0 10 -10v-118q0 -6 -3 -10l-173 -398v-2h166q10 0 10 -10v-122q0 -10 -10 -10z" />
    <glyph glyph-name="bracketleft" unicode="[" horiz-adv-x="277" 
d="M234 -84h-175q-10 0 -10 10v804q0 10 10 10h175q10 0 10 -10v-91q0 -10 -10 -10h-49q-6 0 -6 -6v-590q0 -6 6 -6h49q10 0 10 -10v-91q0 -10 -10 -10z" />
    <glyph glyph-name="backslash" unicode="\" horiz-adv-x="284" 
d="M260 -10h-107q-11 0 -13 10l-124 680q-2 10 8 10h107q11 0 13 -10l124 -680q2 -10 -8 -10z" />
    <glyph glyph-name="bracketright" unicode="]" horiz-adv-x="277" 
d="M218 -84h-175q-10 0 -10 10v91q0 10 10 10h49q6 0 6 6v590q0 6 -6 6h-49q-10 0 -10 10v91q0 10 10 10h175q10 0 10 -10v-804q0 -10 -10 -10z" />
    <glyph glyph-name="asciicircum" unicode="^" 
d="M406 258h-115q-9 0 -13 10l-58 216h-2l-58 -216q-4 -10 -13 -10h-116q-10 0 -7 10l130 402q3 10 14 10h101q11 0 14 -10l130 -402q3 -10 -7 -10z" />
    <glyph glyph-name="underscore" unicode="_" horiz-adv-x="456" 
d="M456 -159h-456v95h456v-95z" />
    <glyph glyph-name="grave" unicode="`" horiz-adv-x="444" 
d="M318 546h-96q-10 0 -18 10l-97 136q-3 4 -1.5 7t6.5 3h121q10 0 16 -10l75 -136q5 -10 -6 -10z" />
    <glyph glyph-name="a" unicode="a" horiz-adv-x="405" 
d="M363 0h-123q-10 0 -10 10v29h-1q-23 -49 -91 -49q-51 0 -84 35.5t-33 111.5q0 84 45 120t114 36h44q6 0 6 6v22q0 27 -13 39t-46 12q-44 0 -80 -25q-12 -8 -15 3l-39 93q-3 10 5 15q60 39 152 39q98 0 138.5 -42t40.5 -133v-312q0 -10 -10 -10zM190 102q18 0 29 12.5
t11 35.5v42q0 6 -6 6h-21q-47 0 -47 -50q0 -46 34 -46z" />
    <glyph glyph-name="b" unicode="b" horiz-adv-x="433" 
d="M283 -10q-70 0 -97 58h-1v-38q0 -10 -10 -10h-130q-10 0 -10 10v660q0 10 10 10h131q10 0 10 -10v-231h1q29 58 96 58q43 0 68.5 -18t39.5 -59q15 -46 15 -177q0 -129 -15 -176q-14 -41 -39.5 -59t-68.5 -18zM221 118q22 0 30 22q4 12 4 103q0 92 -4 104q-8 22 -30 22
q-23 0 -31 -22q-4 -12 -4 -104q0 -91 4 -103q8 -22 31 -22z" />
    <glyph glyph-name="c" unicode="c" horiz-adv-x="391" 
d="M202 -10q-129 0 -165 109q-13 39 -13 144q0 106 13 145q36 109 165 109q74 0 121 -39t52 -108q0 -9 -8 -12l-116 -20q-12 -2 -12 9q-3 42 -32 42q-22 0 -28 -20q-4 -11 -4 -106q0 -94 4 -105q6 -20 28 -20q29 0 32 42q0 11 12 9l116 -20q8 -3 8 -12q-5 -69 -52 -108
t-121 -39z" />
    <glyph glyph-name="d" unicode="d" horiz-adv-x="433" 
d="M388 0h-130q-10 0 -10 10v38h-1q-27 -58 -97 -58q-43 0 -68.5 18t-39.5 59q-15 47 -15 176q0 130 15 177q14 41 39.5 59t68.5 18q67 0 96 -58h1v231q0 10 10 10h131q10 0 10 -10v-660q0 -10 -10 -10zM213 118q22 0 30 22q4 12 4 103q0 92 -4 104q-8 22 -30 22
q-23 0 -31 -22q-4 -12 -4 -104q0 -91 4 -103q8 -22 31 -22z" />
    <glyph glyph-name="e" unicode="e" horiz-adv-x="408" 
d="M204 -10q-131 0 -167 110q-13 40 -13 143q0 104 13 144q36 110 167 110t167 -110q14 -44 14 -179q0 -10 -10 -10h-195q-6 0 -6 -6q0 -44 3 -56q7 -21 31 -21q27 0 37 31q3 9 12 8l115 -23q9 -1 7 -12q-12 -62 -58.5 -95.5t-116.5 -33.5zM236 293q6 0 6 6q0 50 -4 61
q-6 21 -30 21t-30 -21q-4 -11 -4 -61q0 -6 6 -6h56z" />
    <glyph glyph-name="f" unicode="f" horiz-adv-x="306" 
d="M204 0h-131q-10 0 -10 10v360q0 6 -6 6h-31q-10 0 -10 10v91q0 10 10 10h31q6 0 6 6v18q0 87 44.5 128t136.5 41h35q10 0 10 -10v-107q0 -10 -10 -10h-26q-39 0 -39 -35v-25q0 -6 6 -6h59q10 0 10 -10v-91q0 -10 -10 -10h-59q-6 0 -6 -6v-360q0 -10 -10 -10z" />
    <glyph glyph-name="g" unicode="g" horiz-adv-x="433" 
d="M211 -190q-71 0 -117.5 35.5t-52.5 91.5q0 10 6 11l120 26q8 3 11 -6q8 -31 35 -31q34 0 34 44v93h-1q-29 -58 -96 -58q-43 0 -68.5 18t-39.5 59q-15 47 -15 163t15 163q14 41 39.5 59t68.5 18q70 0 97 -58h1v39q0 10 10 10h130q10 0 10 -10v-478q0 -94 -49 -141.5
t-138 -47.5zM213 143q22 0 30 22q4 12 4 91t-4 91q-8 22 -30 22q-23 0 -31 -22q-4 -12 -4 -91t4 -91q8 -22 31 -22z" />
    <glyph glyph-name="h" unicode="h" horiz-adv-x="435" 
d="M392 0h-131q-10 0 -10 10v311q0 45 -32 45q-33 0 -33 -45v-311q0 -10 -10 -10h-131q-10 0 -10 10v660q0 10 10 10h131q10 0 10 -10v-230h1q29 57 98 57q62 0 89.5 -36t27.5 -114v-337q0 -10 -10 -10z" />
    <glyph glyph-name="i" unicode="i" horiz-adv-x="221" 
d="M176 550h-131q-10 0 -10 10v110q0 10 10 10h131q10 0 10 -10v-110q0 -10 -10 -10zM176 0h-131q-10 0 -10 10v467q0 10 10 10h131q10 0 10 -10v-467q0 -10 -10 -10z" />
    <glyph glyph-name="j" unicode="j" horiz-adv-x="222" 
d="M176 550h-131q-10 0 -10 10v110q0 10 10 10h131q10 0 10 -10v-110q0 -10 -10 -10zM1 -180h-21q-10 0 -10 10v110q0 10 10 10l14 1q22 2 31.5 14t9.5 43v469q0 10 10 10h131q10 0 10 -10v-463q0 -194 -185 -194z" />
    <glyph glyph-name="k" unicode="k" horiz-adv-x="436" 
d="M423 0h-136q-10 0 -15 11l-59 182l-27 -50v-133q0 -10 -10 -10h-131q-10 0 -10 10v660q0 10 10 10h131q10 0 10 -10v-339l80 147q4 9 14 9h135q4 0 5.5 -3t-0.5 -6l-107 -165l116 -304q2 -3 0 -6t-6 -3z" />
    <glyph glyph-name="l" unicode="l" horiz-adv-x="258" 
d="M231 -6h-21q-94 1 -134.5 40.5t-40.5 139.5v496q0 10 10 10h131q10 0 10 -10v-495q0 -47 39 -50l6 -1q10 0 10 -11v-109q0 -10 -10 -10z" />
    <glyph glyph-name="m" unicode="m" horiz-adv-x="651" 
d="M608 0h-131q-10 0 -10 10v311q0 45 -32 45q-33 0 -33 -45v-311q0 -10 -10 -10h-131q-10 0 -10 10v311q0 45 -32 45q-33 0 -33 -45v-311q0 -10 -10 -10h-131q-10 0 -10 10v467q0 10 10 10h130q10 0 10 -10v-37h1q29 57 99 57q75 0 100 -54h1q32 54 106 54q126 0 126 -150
v-337q0 -10 -10 -10z" />
    <glyph glyph-name="n" unicode="n" horiz-adv-x="435" 
d="M392 0h-131q-10 0 -10 10v311q0 45 -32 45q-33 0 -33 -45v-311q0 -10 -10 -10h-131q-10 0 -10 10v467q0 10 10 10h130q10 0 10 -10v-37h1q29 57 99 57q62 0 89.5 -36t27.5 -114v-337q0 -10 -10 -10z" />
    <glyph glyph-name="o" unicode="o" horiz-adv-x="418" 
d="M209 -10q-136 0 -172 114q-13 42 -13 139q0 98 13 140q36 114 172 114q134 0 172 -114q13 -42 13 -140q0 -97 -13 -139q-38 -114 -172 -114zM209 118q24 0 30 22q4 11 4 103q0 93 -4 104q-6 22 -30 22t-30 -22q-4 -11 -4 -104q0 -92 4 -103q6 -22 30 -22z" />
    <glyph glyph-name="p" unicode="p" horiz-adv-x="433" 
d="M176 -180h-131q-10 0 -10 10v647q0 10 10 10h130q10 0 10 -10v-38h1q27 58 97 58q43 0 68.5 -18t39.5 -59q15 -46 15 -177q0 -129 -15 -176q-14 -41 -39.5 -59t-68.5 -18q-67 0 -96 58h-1v-218q0 -10 -10 -10zM221 118q22 0 30 22q4 12 4 103q0 92 -4 104q-8 22 -30 22
q-23 0 -31 -22q-4 -12 -4 -104q0 -91 4 -103q8 -22 31 -22z" />
    <glyph glyph-name="q" unicode="q" horiz-adv-x="433" 
d="M388 -180h-131q-10 0 -10 10v218h-1q-29 -58 -96 -58q-43 0 -68.5 18t-39.5 59q-15 47 -15 176q0 130 15 177q14 41 39.5 59t68.5 18q70 0 97 -58h1v38q0 10 10 10h130q10 0 10 -10v-647q0 -10 -10 -10zM213 118q22 0 30 22q4 12 4 103q0 92 -4 104q-8 22 -30 22
q-23 0 -31 -22q-4 -12 -4 -104q0 -91 4 -103q8 -22 31 -22z" />
    <glyph glyph-name="r" unicode="r" horiz-adv-x="334" 
d="M176 0h-131q-10 0 -10 10v467q0 10 10 10h131q10 0 10 -10v-43h1q30 63 118 63q8 0 11 -1q10 0 8 -9l-22 -131q-1 -7 -10 -6q-5 1 -20 1q-86 0 -86 -107v-234q0 -10 -10 -10z" />
    <glyph glyph-name="s" unicode="s" horiz-adv-x="380" 
d="M190 -10q-79 0 -124 35t-50 97q-2 9 8 11l113 19q10 2 12 -8q6 -42 40 -42q16 0 25.5 9.5t9.5 25.5q0 28 -38 40l-39 13q-64 22 -93.5 58.5t-29.5 94.5q0 71 44 112.5t124 41.5q73 0 115.5 -33.5t47.5 -87.5q1 -10 -6 -12l-107 -18q-8 -2 -10 6q-7 33 -36 33
q-31 0 -31 -30q0 -23 38 -36l39 -13q69 -23 96 -58.5t27 -96.5q0 -76 -46 -118.5t-129 -42.5z" />
    <glyph glyph-name="t" unicode="t" horiz-adv-x="298" 
d="M268 -6h-38q-90 0 -129 35t-39 132v209q0 6 -6 6h-32q-10 0 -10 10v91q0 10 10 10h32q6 0 6 6v127q0 10 10 10h131q10 0 10 -10v-127q0 -6 6 -6h49q10 0 10 -10v-91q0 -10 -10 -10h-49q-6 0 -6 -6v-201q0 -24 9.5 -34t30.5 -10h15q10 0 10 -10v-111q0 -10 -10 -10z" />
    <glyph glyph-name="u" unicode="u" horiz-adv-x="434" 
d="M389 0h-130q-10 0 -10 10v37h-1q-29 -57 -99 -57q-60 0 -88 36t-28 114v337q0 10 10 10h131q10 0 10 -10v-312q0 -44 32 -44t32 44v312q0 10 10 10h131q10 0 10 -10v-467q0 -10 -10 -10z" />
    <glyph glyph-name="v" unicode="v" horiz-adv-x="402" 
d="M266 0h-129q-9 0 -12 10l-116 467q-3 10 7 10h129q9 0 11 -10l47 -273h1l47 273q2 10 11 10h124q10 0 7 -10l-115 -467q-3 -10 -12 -10z" />
    <glyph glyph-name="w" unicode="w" horiz-adv-x="593" 
d="M461 0h-111q-11 0 -12 10l-41 235h-2l-40 -235q-1 -10 -12 -10h-111q-9 0 -12 10l-110 467q-3 10 7 10h126q9 0 11 -10l43 -266h2l43 266q2 10 11 10h88q9 0 11 -10l43 -266h1l44 266q2 10 11 10h126q10 0 7 -10l-111 -467q-3 -10 -12 -10z" />
    <glyph glyph-name="x" unicode="x" horiz-adv-x="408" 
d="M395 0h-127q-9 0 -13 8l-51 127h-1l-52 -127q-4 -8 -13 -8h-125q-12 0 -6 10l119 241l-111 226q-6 10 5 10h127q9 0 13 -8l45 -112h1l43 112q4 8 14 8h124q12 0 6 -10l-112 -226l120 -241q6 -10 -6 -10z" />
    <glyph glyph-name="y" unicode="y" horiz-adv-x="405" 
d="M75 -180h-14q-10 0 -10 10v111q0 10 10 10h14q27 1 40 10.5t18 32.5l5 22l-128 461q-3 10 8 10h127q10 0 12 -10l46 -254h2l49 254q2 10 12 10h121q11 0 8 -10l-131 -491q-26 -96 -67 -131t-122 -35z" />
    <glyph glyph-name="z" unicode="z" horiz-adv-x="354" 
d="M321 0h-291q-10 0 -10 10v102q0 5 3 11l145 237v2h-127q-10 0 -10 10v105q0 10 10 10h280q10 0 10 -10v-99q0 -6 -3 -11l-145 -239v-2h138q10 0 10 -10v-106q0 -10 -10 -10z" />
    <glyph glyph-name="braceleft" unicode="{" horiz-adv-x="334" 
d="M292 -84h-47q-135 0 -135 136v148q0 38 -12.5 54t-43.5 16q-10 0 -10 10v100q0 10 10 10q31 0 43.5 16t12.5 54v144q0 136 135 136h47q10 0 10 -10v-91q0 -10 -10 -10h-11q-42 0 -42 -46v-119q0 -58 -11.5 -86.5t-44.5 -45.5v-4q33 -17 44.5 -45t11.5 -86v-124
q0 -46 42 -46h11q10 0 10 -10v-91q0 -10 -10 -10z" />
    <glyph glyph-name="bar" unicode="|" horiz-adv-x="265" 
d="M185 -84h-106q-10 0 -10 10v804q0 10 10 10h106q10 0 10 -10v-804q0 -10 -10 -10z" />
    <glyph glyph-name="braceright" unicode="}" horiz-adv-x="334" 
d="M89 -84h-47q-10 0 -10 10v91q0 10 10 10h11q42 0 42 46v124q0 58 11.5 86t44.5 45v4q-33 17 -44.5 45.5t-11.5 86.5v119q0 46 -42 46h-11q-10 0 -10 10v91q0 10 10 10h47q135 0 135 -136v-144q0 -38 12.5 -54t43.5 -16q10 0 10 -10v-100q0 -10 -10 -10q-31 0 -43.5 -16
t-12.5 -54v-148q0 -136 -135 -136z" />
    <glyph glyph-name="asciitilde" unicode="~" 
d="M288 176q-29 0 -71 23q-37 21 -54 21q-15 0 -24.5 -8t-22.5 -31q-4 -7 -13 -3l-73 37q-8 5 -4 14q46 98 122 98q32 0 72 -22q40 -21 53 -21q15 0 25 8t23 30q3 9 13 4l73 -37q8 -5 4 -14q-47 -99 -123 -99z" />
    <glyph glyph-name="uni00A0" unicode="&#xa0;" horiz-adv-x="195" 
 />
    <glyph glyph-name="exclamdown" unicode="&#xa1;" horiz-adv-x="255" 
d="M167 279q10 0 10 -10l28 -452q0 -10 -10 -10h-135q-10 0 -10 10l27 452q0 10 10 10h80zM197 477v-135q0 -10 -10 -10h-120q-10 0 -10 10v135q0 10 10 10h120q10 0 10 -10z" />
    <glyph glyph-name="cent" unicode="&#xa2;" 
d="M399 130q-6 -58 -40.5 -93.5t-93.5 -43.5v-80q0 -10 -10 -10h-65q-10 0 -10 10v81q-97 17 -125 105q-13 39 -13 144q0 106 13 145q28 88 125 105v80q0 10 10 10h65q10 0 10 -10v-79q59 -9 93.5 -44t40.5 -93q2 -11 -7 -12l-117 -20q-12 -1 -12 8q-4 36 -35 36
q-23 0 -31 -20q-4 -11 -4 -106q0 -94 4 -105q8 -20 31 -20q31 0 35 36q0 10 12 8l117 -20q9 -1 7 -12z" />
    <glyph glyph-name="sterling" unicode="&#xa3;" 
d="M402 0h-361q-10 0 -10 10v105q0 8 6 14q24 28 24 90v49q0 6 -6 6h-27q-10 0 -10 10v84q0 10 10 10h27q6 0 6 6v131q0 85 46.5 130t131.5 45q86 0 130.5 -43.5t46.5 -116.5q2 -10 -9 -12l-125 -19q-9 -1 -11 9q-1 30 -7.5 42t-22.5 12q-29 0 -29 -44v-134q0 -6 6 -6h102
q10 0 10 -10v-84q0 -10 -10 -10h-102q-6 0 -6 -6v-51q0 -60 -25 -86v-3h215q10 0 10 -10v-108q0 -10 -10 -10z" />
    <glyph glyph-name="currency" unicode="&#xa4;" 
d="M406 194l-60 -60q-7 -7 -14 0l-49 48q-27 -13 -65 -13q-37 0 -66 13l-48 -48q-7 -7 -14 0l-60 60q-7 7 0 14l48 47q-15 30 -15 68q0 35 14 66l-48 48q-7 7 0 14l60 60q7 7 14 0l48 -49q30 15 67 15q38 0 68 -15l48 49q7 7 14 0l60 -60q7 -7 0 -14l-49 -49q14 -30 14 -65
t-15 -68l48 -47q7 -7 0 -14zM218 273q22 0 35.5 14t13.5 36t-13.5 36t-35.5 14q-21 0 -34.5 -14t-13.5 -36t13.5 -36t34.5 -14z" />
    <glyph glyph-name="yen" unicode="&#xa5;" 
d="M284 0h-131q-10 0 -10 10v83q0 6 -6 6h-83q-10 0 -10 10v69q0 10 10 10h83q6 0 6 6v27q0 6 -6 6h-83q-10 0 -10 10v68q0 10 10 10h72v3l-112 352q-3 10 8 10h131q10 0 12 -10l54 -234h3l52 234q2 10 12 10h129q11 0 8 -10l-112 -352v-3h72q10 0 10 -10v-68q0 -10 -10 -10
h-83q-6 0 -6 -6v-27q0 -6 6 -6h83q10 0 10 -10v-69q0 -10 -10 -10h-83q-6 0 -6 -6v-83q0 -10 -10 -10z" />
    <glyph glyph-name="brokenbar" unicode="&#xa6;" horiz-adv-x="265" 
d="M185 388h-106q-10 0 -10 10v332q0 10 10 10h106q10 0 10 -10v-332q0 -10 -10 -10zM185 -84h-106q-10 0 -10 10v336q0 10 10 10h106q10 0 10 -10v-336q0 -10 -10 -10z" />
    <glyph glyph-name="section" unicode="&#xa7;" horiz-adv-x="468" 
d="M234 -190q-134 0 -166 97q-9 25 -9 70q0 9 9 10l121 11q10 0 10 -10q0 -35 3 -46q6 -19 29 -19q22 0 28 19q3 11 3 31q0 24 -4 37q-10 33 -81 57q-93 33 -117 100q-11 35 -11 85t10 76q14 46 61 67v1q-38 20 -54 66q-9 24 -9 68q0 35 8 62q32 98 166 98q133 0 165 -97
q9 -26 9 -66q0 -9 -9 -9l-120 -11q-10 0 -10 10q0 31 -3 41q-6 19 -27 19q-22 0 -28 -19q-3 -10 -3 -28q0 -24 4 -37q6 -18 24 -30t58 -26q48 -17 76 -41t40 -59q11 -35 11 -85q0 -49 -9 -76q-14 -45 -64 -68v-1q42 -21 57 -66q8 -25 8 -67q0 -39 -8 -66q-32 -98 -168 -98z
M234 174q24 0 32 23q4 12 4 55t-4 55q-8 23 -32 23q-25 0 -33 -23q-4 -18 -4 -55t4 -55q8 -23 33 -23z" />
    <glyph glyph-name="dieresis" unicode="&#xa8;" horiz-adv-x="444" 
d="M349 551h-91q-10 0 -10 10v110q0 10 10 10h91q10 0 10 -10v-110q0 -10 -10 -10zM186 551h-91q-10 0 -10 10v110q0 10 10 10h91q10 0 10 -10v-110q0 -10 -10 -10z" />
    <glyph glyph-name="copyright" unicode="&#xa9;" horiz-adv-x="703" 
d="M351 -10q-110 0 -188.5 54t-110.5 151q-18 57 -18 145t18 145q32 97 110.5 151t188.5 54q111 0 189.5 -54t110.5 -151q18 -57 18 -145t-18 -145q-32 -97 -110.5 -151t-189.5 -54zM351 73q79 0 133.5 37.5t77.5 108.5q15 47 15 121t-15 121q-23 71 -77.5 108.5
t-133.5 37.5t-133 -37.5t-77 -108.5q-15 -47 -15 -121t15 -121q23 -71 77 -108.5t133 -37.5zM355 143q-105 0 -134 87q-9 27 -9 110t9 110q29 87 134 87q57 0 93.5 -28.5t41.5 -73.5q2 -10 -7 -12l-88 -15q-10 -2 -11 7q-4 24 -27 24q-18 0 -24 -16q-3 -11 -3 -83t3 -83
q6 -16 24 -16q23 0 27 24q1 9 11 7l88 -15q9 -2 7 -12q-5 -45 -41.5 -73.5t-93.5 -28.5z" />
    <glyph glyph-name="ordfeminine" unicode="&#xaa;" horiz-adv-x="304" 
d="M256 392h-71q-10 0 -10 10v15h-2q-17 -28 -60 -28q-32 0 -54 21.5t-22 64.5q0 50 30 72.5t74 22.5h28q6 0 6 6v5q0 29 -40 29q-24 0 -50 -14q-11 -6 -16 4l-20 52q-3 8 5 13q40 22 96 22q60 0 88 -25.5t28 -79.5v-180q0 -10 -10 -10zM148 457q27 0 27 27v22q0 6 -6 6h-16
q-29 0 -29 -29q0 -26 24 -26z" />
    <glyph glyph-name="guillemotleft" unicode="&#xab;" horiz-adv-x="492" 
d="M432 56l-193 201q-7 7 0 14l193 201q3 3 6.5 1.5t3.5 -5.5v-125q0 -9 -10 -19l-53 -56q-4 -4 0 -8l53 -56q10 -10 10 -19v-125q0 -4 -3.5 -5.5t-6.5 1.5zM222 56l-194 201q-7 7 0 14l194 201q3 3 6.5 1.5t3.5 -5.5v-125q0 -9 -10 -19l-53 -56q-4 -4 0 -8l53 -56
q10 -10 10 -19v-125q0 -4 -3.5 -5.5t-6.5 1.5z" />
    <glyph glyph-name="logicalnot" unicode="&#xac;" 
d="M398 114h-103q-10 0 -10 10v86q0 6 -6 6h-240q-10 0 -10 10v100q0 10 10 10h359q10 0 10 -10v-202q0 -10 -10 -10z" />
    <glyph glyph-name="uni00AD" unicode="&#xad;" horiz-adv-x="357" 
d="M313 197h-268q-10 0 -10 10v116q0 10 10 10h268q10 0 10 -10v-116q0 -10 -10 -10z" />
    <glyph glyph-name="registered" unicode="&#xae;" horiz-adv-x="415" 
d="M207 302q-60 0 -103.5 30t-60.5 83q-10 32 -10 78q0 45 10 77q17 53 60.5 83t103.5 30q61 0 104.5 -30t60.5 -83q10 -32 10 -77q0 -46 -10 -78q-17 -53 -60.5 -83t-104.5 -30zM207 348q93 0 118 81q8 24 8 64q0 39 -8 63q-25 81 -118 81q-92 0 -117 -81q-9 -27 -9 -63
q0 -37 9 -64q25 -81 117 -81zM190 388h-39q-7 0 -7 7v198q0 7 7 7h62q66 0 66 -67q0 -34 -23 -53l27 -85q3 -7 -5 -7h-42q-6 0 -9 7l-20 71h-8q-2 0 -2 -3v-68q0 -7 -7 -7zM205 510q12 0 16 4.5t4 17.5q0 14 -4.5 19t-15.5 5h-4q-4 0 -4 -5v-37q0 -4 4 -4h4z" />
    <glyph glyph-name="macron" unicode="&#xaf;" horiz-adv-x="444" 
d="M344 563h-244q-10 0 -10 10v89q0 10 10 10h244q10 0 10 -10v-89q0 -10 -10 -10z" />
    <glyph glyph-name="degree" unicode="&#xb0;" horiz-adv-x="342" 
d="M171 416q-58 0 -97 38.5t-39 96.5t38.5 96.5t97.5 38.5t97.5 -38.5t38.5 -96.5t-39 -96.5t-97 -38.5zM171 496q23 0 38 15.5t15 39.5t-15 39.5t-38 15.5t-38 -15.5t-15 -39.5t15 -39.5t38 -15.5z" />
    <glyph glyph-name="plusminus" unicode="&#xb1;" 
d="M270 166h-103q-10 0 -10 10v116q0 6 -6 6h-112q-10 0 -10 10v99q0 10 10 10h112q6 0 6 6v116q0 10 10 10h103q10 0 10 -10v-116q0 -6 6 -6h112q10 0 10 -10v-99q0 -10 -10 -10h-112q-6 0 -6 -6v-116q0 -10 -10 -10zM398 0h-359q-10 0 -10 10v99q0 10 10 10h359
q10 0 10 -10v-99q0 -10 -10 -10z" />
    <glyph glyph-name="twosuperior" unicode="&#xb2;" horiz-adv-x="315" 
d="M274 430h-228q-10 0 -10 10v71q0 10 6 16l114 141q21 24 21 50q0 18 -3 24q-5 11 -19 11q-17 0 -20 -12q-2 -6 -2 -29q0 -12 -12 -10l-84 9q-10 1 -10 12q0 30 6 48q11 34 43.5 53t81.5 19q102 0 125 -72q6 -18 6 -52q0 -48 -37 -98l-70 -94v-2h92q10 0 10 -10v-75
q0 -10 -10 -10z" />
    <glyph glyph-name="threesuperior" unicode="&#xb3;" horiz-adv-x="315" 
d="M157 423q-49 0 -81.5 19t-43.5 53q-6 17 -6 34q0 11 10 12l85 8q12 2 12 -10q0 -9 2 -15q4 -11 20 -11q15 0 19 13q2 8 2 25q0 14 -2 24q-4 14 -25 14h-7q-10 0 -10 10v77q0 10 10 10h11q17 0 21 12q2 4 2 21q0 13 -2 21q-4 13 -19 13q-16 0 -20 -11q-2 -6 -2 -15
q0 -12 -12 -10l-85 8q-10 1 -10 12q0 17 6 34q11 34 43.5 53t81.5 19t82 -19t44 -53q5 -18 5 -44q0 -25 -4 -40q-10 -29 -41 -44v-2q30 -15 40 -44q5 -15 5 -50q0 -34 -5 -52q-11 -34 -44 -53t-82 -19z" />
    <glyph glyph-name="acute" unicode="&#xb4;" horiz-adv-x="444" 
d="M222 546h-96q-11 0 -6 10l75 136q6 10 16 10h121q5 0 6.5 -3t-1.5 -7l-97 -136q-8 -10 -18 -10z" />
    <glyph glyph-name="mu" unicode="&#xb5;" horiz-adv-x="436" 
d="M391 0h-131q-10 0 -10 10v37h-1q-14 -38 -55 -50q-2 0 -5 1h-3v-168q0 -10 -10 -10h-131q-10 0 -10 10v647q0 10 10 10h131q10 0 10 -10v-311q0 -45 32 -45t32 45v311q0 10 10 10h131q10 0 10 -10v-467q0 -10 -10 -10z" />
    <glyph glyph-name="mu" unicode="&#x3bc;" horiz-adv-x="436" 
d="M391 0h-131q-10 0 -10 10v37h-1q-14 -38 -55 -50q-2 0 -5 1h-3v-168q0 -10 -10 -10h-131q-10 0 -10 10v647q0 10 10 10h131q10 0 10 -10v-311q0 -45 32 -45t32 45v311q0 10 10 10h131q10 0 10 -10v-467q0 -10 -10 -10z" />
    <glyph glyph-name="paragraph" unicode="&#xb6;" horiz-adv-x="555" 
d="M496 -180h-99q-10 0 -10 10v720q0 6 -6 6h-38q-6 0 -6 -6v-720q0 -10 -10 -10h-100q-10 0 -10 10v403q-77 5 -126 69t-49 155q0 95 58 159t156 64h240q10 0 10 -10v-840q0 -10 -10 -10z" />
    <glyph glyph-name="periodcentered" unicode="&#xb7;" horiz-adv-x="221" 
d="M171 187h-121q-10 0 -10 10v135q0 10 10 10h121q10 0 10 -10v-135q0 -10 -10 -10z" />
    <glyph glyph-name="cedilla" unicode="&#xb8;" horiz-adv-x="444" 
d="M132 -155l68 155q4 10 16 10h91q10 0 7 -10l-56 -155q-4 -10 -15 -10h-104q-10 0 -7 10z" />
    <glyph glyph-name="onesuperior" unicode="&#xb9;" horiz-adv-x="315" 
d="M226 430h-92q-10 0 -10 10v276h-2l-56 -33q-10 -6 -10 5v92q0 9 7 13l58 37q9 6 16 6h89q10 0 10 -10v-386q0 -10 -10 -10z" />
    <glyph glyph-name="ordmasculine" unicode="&#xba;" horiz-adv-x="316" 
d="M158 385q-88 0 -113 74q-8 27 -8 77q0 54 8 78q24 73 113 73t113 -73q8 -23 8 -78q0 -54 -8 -77q-24 -74 -113 -74zM185 537q0 47 -3 55q-6 16 -24 16t-24 -16q-3 -8 -3 -55q0 -49 3 -56q6 -16 24 -16t24 16q3 7 3 56z" />
    <glyph glyph-name="guillemotright" unicode="&#xbb;" horiz-adv-x="492" 
d="M270 56q-3 -3 -6.5 -1.5t-3.5 5.5v125q0 9 10 19l54 56q4 4 0 8l-54 56q-10 10 -10 19v125q0 4 3.5 5.5t6.5 -1.5l194 -201q7 -7 0 -14zM60 56q-3 -3 -6.5 -1.5t-3.5 5.5v125q0 9 10 19l54 56q4 4 0 8l-54 56q-10 10 -10 19v125q0 4 3.5 5.5t6.5 -1.5l194 -201
q7 -7 0 -14z" />
    <glyph glyph-name="onequarter" unicode="&#xbc;" horiz-adv-x="793" 
d="M239 274h-92q-10 0 -10 10v276h-2l-56 -33q-10 -6 -10 5v92q0 9 7 13l58 37q9 6 16 6h89q10 0 10 -10v-386q0 -10 -10 -10zM691 0h-82q-10 0 -10 10v41q0 6 -6 6h-137q-10 0 -10 10v79q0 7 3 16l81 234q3 10 13 10h92q10 0 7 -10l-83 -242v-3h34q6 0 6 6v60q0 10 10 10
h82q10 0 10 -10v-60q0 -6 5 -6h9q10 0 10 -10v-74q0 -10 -10 -10h-8q-6 0 -6 -6v-41q0 -10 -10 -10zM290 -10h-81q-10 0 -7 10l254 680q3 10 13 10h82q10 0 7 -10l-254 -680q-3 -10 -14 -10z" />
    <glyph glyph-name="onehalf" unicode="&#xbd;" horiz-adv-x="814" 
d="M239 274h-92q-10 0 -10 10v276h-2l-56 -33q-10 -6 -10 5v92q0 9 7 13l58 37q9 6 16 6h89q10 0 10 -10v-386q0 -10 -10 -10zM731 0h-228q-10 0 -10 10v71q0 10 6 16l114 141q21 24 21 50q0 18 -3 24q-5 11 -19 11q-17 0 -20 -12q-2 -6 -2 -29q0 -12 -12 -10l-84 9
q-10 1 -10 12q0 30 6 48q11 34 43.5 53t81.5 19q102 0 125 -72q6 -18 6 -52q0 -48 -37 -98l-70 -94v-2h92q10 0 10 -10v-75q0 -10 -10 -10zM290 -10h-81q-10 0 -7 10l254 680q3 10 13 10h82q10 0 7 -10l-254 -680q-3 -10 -14 -10z" />
    <glyph glyph-name="threequarters" unicode="&#xbe;" horiz-adv-x="849" 
d="M747 0h-82q-10 0 -10 10v41q0 6 -6 6h-137q-10 0 -10 10v79q0 7 3 16l81 234q3 10 13 10h92q10 0 7 -10l-83 -242v-3h34q6 0 6 6v60q0 10 10 10h82q10 0 10 -10v-60q0 -6 5 -6h9q10 0 10 -10v-74q0 -10 -10 -10h-8q-6 0 -6 -6v-41q0 -10 -10 -10zM345 -10h-81
q-10 0 -7 10l254 680q3 10 13 10h82q10 0 7 -10l-254 -680q-3 -10 -14 -10zM198 267q-49 0 -81.5 19t-43.5 53q-6 17 -6 34q0 11 10 12l85 8q12 2 12 -10q0 -9 2 -15q4 -11 20 -11q15 0 19 13q2 8 2 25q0 14 -2 24q-4 14 -25 14h-7q-10 0 -10 10v77q0 10 10 10h11
q16 0 21 12q2 4 2 21q0 13 -2 21q-4 13 -19 13q-16 0 -20 -11q-2 -6 -2 -15q0 -12 -12 -10l-85 8q-10 1 -10 12q0 17 6 34q11 34 43.5 53t81.5 19t82 -19t44 -53q5 -18 5 -44q0 -25 -4 -40q-10 -29 -41 -44v-2q30 -15 40 -44q5 -15 5 -50q0 -34 -5 -52q-11 -34 -44 -53
t-82 -19z" />
    <glyph glyph-name="questiondown" unicode="&#xbf;" horiz-adv-x="416" 
d="M280 279q10 0 10 -10v-44q0 -39 -27 -83l-50 -79q-28 -43 -28 -89q0 -18 3 -28q8 -21 30 -21q24 0 31 21q3 10 3 53q0 12 12 10l124 -13q10 -1 10 -12q0 -48 -9 -76q-17 -53 -61.5 -82t-111.5 -29q-137 0 -173 111q-9 28 -9 66q0 59 39 122l50 79q21 32 21 58v36
q0 10 10 10h126zM285 477v-135q0 -10 -10 -10h-121q-10 0 -10 10v135q0 10 10 10h121q10 0 10 -10z" />
    <glyph glyph-name="Agrave" unicode="&#xc0;" horiz-adv-x="488" 
d="M7 10l149 660q3 10 12 10h155q10 0 12 -10l146 -660q3 -10 -8 -10h-138q-10 0 -12 10l-18 107h-121l-19 -107q-2 -10 -11 -10h-139q-10 0 -8 10zM205 236h79l-37 221h-2zM296 747h-95q-9 0 -19 10l-110 122q-3 4 -1.5 7t6.5 3h120q9 0 16 -10l89 -122q3 -4 1 -7t-7 -3z
" />
    <glyph glyph-name="Aacute" unicode="&#xc1;" horiz-adv-x="488" 
d="M7 10l149 660q3 10 12 10h155q10 0 12 -10l146 -660q3 -10 -8 -10h-138q-10 0 -12 10l-18 107h-121l-19 -107q-2 -10 -11 -10h-139q-10 0 -8 10zM205 236h79l-37 221h-2zM291 747h-95q-5 0 -7 3t1 7l88 122q7 10 16 10h121q5 0 6.5 -3t-1.5 -7l-110 -122q-10 -10 -19 -10
z" />
    <glyph glyph-name="Acircumflex" unicode="&#xc2;" horiz-adv-x="488" 
d="M7 10l149 660q3 10 12 10h155q10 0 12 -10l146 -660q3 -10 -8 -10h-138q-10 0 -12 10l-18 107h-121l-19 -107q-2 -10 -11 -10h-139q-10 0 -8 10zM205 236h79l-37 221h-2zM391 740h-80q-10 0 -19 10l-47 56h-2l-47 -56q-9 -10 -19 -10h-81q-4 0 -5.5 3t1.5 7l94 137
q7 10 17 10h82q10 0 17 -10l93 -137q3 -4 2 -7t-6 -3z" />
    <glyph glyph-name="Atilde" unicode="&#xc3;" horiz-adv-x="488" 
d="M7 10l149 660q3 10 12 10h155q10 0 12 -10l146 -660q3 -10 -8 -10h-138q-10 0 -12 10l-18 107h-121l-19 -107q-2 -10 -11 -10h-139q-10 0 -8 10zM205 236h79l-37 221h-2zM298 744q-26 0 -60 19q-28 18 -50 18q-31 0 -62 -31q-4 -4 -7.5 -3t-3.5 6v87q0 9 7 17
q30 30 67 30q26 0 60 -19q28 -18 50 -18q31 0 62 31q4 4 7.5 3t3.5 -6v-87q0 -10 -7 -17q-30 -30 -67 -30z" />
    <glyph glyph-name="Adieresis" unicode="&#xc4;" horiz-adv-x="488" 
d="M7 10l149 660q3 10 12 10h155q10 0 12 -10l146 -660q3 -10 -8 -10h-138q-10 0 -12 10l-18 107h-121l-19 -107q-2 -10 -11 -10h-139q-10 0 -8 10zM205 236h79l-37 221h-2zM371 750h-91q-10 0 -10 10v110q0 10 10 10h91q10 0 10 -10v-110q0 -10 -10 -10zM208 750h-91
q-10 0 -10 10v110q0 10 10 10h91q10 0 10 -10v-110q0 -10 -10 -10z" />
    <glyph glyph-name="Aring" unicode="&#xc5;" horiz-adv-x="488" 
d="M7 10l149 660q3 10 12 10h155q10 0 12 -10l146 -660q3 -10 -8 -10h-138q-10 0 -12 10l-18 107h-121l-19 -107q-2 -10 -11 -10h-139q-10 0 -8 10zM205 236h79l-37 221h-2zM244 709q-44 0 -73.5 29t-29.5 72q0 44 29.5 73t73.5 29t73.5 -29t29.5 -73q0 -43 -29.5 -72
t-73.5 -29zM244 767q17 0 29 12t12 31t-12 31.5t-29 12.5q-18 0 -29.5 -12.5t-11.5 -31.5t11.5 -31t29.5 -12z" />
    <glyph glyph-name="AE" unicode="&#xc6;" horiz-adv-x="695" 
d="M659 0h-318q-10 0 -10 10v101q0 6 -6 6h-127l-33 -107q-3 -10 -13 -10h-138q-10 0 -7 10l218 660q3 10 12 10h422q10 0 10 -10v-122q0 -10 -10 -10h-163q-6 0 -6 -6v-112q0 -6 6 -6h140q10 0 10 -10v-122q0 -10 -10 -10h-140q-6 0 -6 -6v-118q0 -6 6 -6h163q10 0 10 -10
v-122q0 -10 -10 -10zM328 538l-94 -302h91q6 0 6 6v296h-3z" />
    <glyph glyph-name="Ccedilla" unicode="&#xc7;" horiz-adv-x="444" 
d="M103 -155l66 151q-92 21 -124 117q-15 47 -15 227t15 227q41 123 185 123q91 0 141 -48t55 -134q0 -11 -8 -12l-134 -22q-11 -2 -11 9q-1 65 -41 65q-26 0 -34 -24q-5 -18 -5 -184t5 -184q8 -24 34 -24q40 0 41 65q0 11 11 9l134 -22q8 -1 8 -12q-8 -151 -143 -177
l-54 -150q-4 -10 -15 -10h-104q-10 0 -7 10z" />
    <glyph glyph-name="Egrave" unicode="&#xc8;" horiz-adv-x="401" 
d="M260 747h-95q-9 0 -19 10l-110 122q-3 4 -1.5 7t6.5 3h120q9 0 16 -10l89 -122q3 -4 1 -7t-7 -3zM37 10v660q0 10 10 10h318q10 0 10 -10v-122q0 -10 -10 -10h-163q-6 0 -6 -6v-112q0 -6 6 -6h140q10 0 10 -10v-122q0 -10 -10 -10h-140q-6 0 -6 -6v-118q0 -6 6 -6h163
q10 0 10 -10v-122q0 -10 -10 -10h-318q-10 0 -10 10z" />
    <glyph glyph-name="Eacute" unicode="&#xc9;" horiz-adv-x="401" 
d="M240 747h-95q-5 0 -7 3t1 7l88 122q7 10 16 10h121q5 0 6.5 -3t-1.5 -7l-110 -122q-10 -10 -19 -10zM37 10v660q0 10 10 10h318q10 0 10 -10v-122q0 -10 -10 -10h-163q-6 0 -6 -6v-112q0 -6 6 -6h140q10 0 10 -10v-122q0 -10 -10 -10h-140q-6 0 -6 -6v-118q0 -6 6 -6h163
q10 0 10 -10v-122q0 -10 -10 -10h-318q-10 0 -10 10z" />
    <glyph glyph-name="Ecircumflex" unicode="&#xca;" horiz-adv-x="401" 
d="M37 10v660q0 10 10 10h318q10 0 10 -10v-122q0 -10 -10 -10h-163q-6 0 -6 -6v-112q0 -6 6 -6h140q10 0 10 -10v-122q0 -10 -10 -10h-140q-6 0 -6 -6v-118q0 -6 6 -6h163q10 0 10 -10v-122q0 -10 -10 -10h-318q-10 0 -10 10zM351 740h-80q-10 0 -19 10l-47 56h-2l-47 -56
q-9 -10 -19 -10h-81q-4 0 -5.5 3t1.5 7l94 137q7 10 17 10h82q10 0 17 -10l93 -137q3 -4 2 -7t-6 -3z" />
    <glyph glyph-name="Edieresis" unicode="&#xcb;" horiz-adv-x="401" 
d="M330 750h-91q-10 0 -10 10v110q0 10 10 10h91q10 0 10 -10v-110q0 -10 -10 -10zM167 750h-91q-10 0 -10 10v110q0 10 10 10h91q10 0 10 -10v-110q0 -10 -10 -10zM37 10v660q0 10 10 10h318q10 0 10 -10v-122q0 -10 -10 -10h-163q-6 0 -6 -6v-112q0 -6 6 -6h140
q10 0 10 -10v-122q0 -10 -10 -10h-140q-6 0 -6 -6v-118q0 -6 6 -6h163q10 0 10 -10v-122q0 -10 -10 -10h-318q-10 0 -10 10z" />
    <glyph glyph-name="Igrave" unicode="&#xcc;" horiz-adv-x="233" 
d="M37 10v660q0 10 10 10h139q10 0 10 -10v-660q0 -10 -10 -10h-139q-10 0 -10 10zM166 747h-95q-9 0 -19 10l-110 122q-3 4 -1.5 7t6.5 3h120q9 0 16 -10l89 -122q3 -4 1 -7t-7 -3z" />
    <glyph glyph-name="Iacute" unicode="&#xcd;" horiz-adv-x="233" 
d="M37 10v660q0 10 10 10h139q10 0 10 -10v-660q0 -10 -10 -10h-139q-10 0 -10 10zM164 747h-95q-5 0 -7 3t1 7l88 122q7 10 16 10h121q5 0 6.5 -3t-1.5 -7l-110 -122q-10 -10 -19 -10z" />
    <glyph glyph-name="Icircumflex" unicode="&#xce;" horiz-adv-x="233" 
d="M37 10v660q0 10 10 10h139q10 0 10 -10v-660q0 -10 -10 -10h-139q-10 0 -10 10zM264 740h-80q-10 0 -19 10l-47 56h-2l-47 -56q-9 -10 -19 -10h-81q-5 0 -6 3t2 7l94 137q7 10 17 10h82q10 0 17 -10l93 -137q3 -4 1.5 -7t-5.5 -3z" />
    <glyph glyph-name="Idieresis" unicode="&#xcf;" horiz-adv-x="233" 
d="M37 10v660q0 10 10 10h139q10 0 10 -10v-660q0 -10 -10 -10h-139q-10 0 -10 10zM244 750h-91q-10 0 -10 10v110q0 10 10 10h91q10 0 10 -10v-110q0 -10 -10 -10zM81 750h-91q-10 0 -10 10v110q0 10 10 10h91q10 0 10 -10v-110q0 -10 -10 -10z" />
    <glyph glyph-name="Eth" unicode="&#xd0;" horiz-adv-x="472" 
d="M236 0h-189q-10 0 -10 10v272q0 6 -6 6h-23q-10 0 -10 10v89q0 10 10 10h23q6 0 6 6v267q0 10 10 10h189q150 0 188 -117q19 -60 19 -223t-19 -223q-38 -117 -188 -117zM222 142q40 0 51 32q9 27 9 166t-9 166q-11 32 -51 32h-21q-6 0 -6 -6v-130q0 -6 6 -6h32
q10 0 10 -10v-89q0 -10 -10 -10h-32q-6 0 -6 -6v-133q0 -6 6 -6h21z" />
    <glyph glyph-name="Ntilde" unicode="&#xd1;" horiz-adv-x="491" 
d="M300 744q-26 0 -60 19q-28 18 -50 18q-31 0 -62 -31q-4 -4 -7.5 -3t-3.5 6v87q0 9 7 17q30 30 67 30q26 0 60 -19q28 -18 50 -18q31 0 62 31q4 4 7.5 3t3.5 -6v-87q0 -10 -7 -17q-30 -30 -67 -30zM37 10v660q0 10 10 10h145q11 0 14 -10l105 -379h5v379q0 10 10 10h118
q10 0 10 -10v-660q0 -10 -10 -10h-142q-11 0 -14 10l-107 379h-6v-379q0 -10 -10 -10h-118q-10 0 -10 10z" />
    <glyph glyph-name="Ograve" unicode="&#xd2;" horiz-adv-x="471" 
d="M285 747h-95q-9 0 -19 10l-110 122q-3 4 -1.5 7t6.5 3h120q9 0 16 -10l89 -122q3 -4 1 -7t-7 -3zM235 -10q-148 0 -189 125q-16 49 -16 225t16 225q41 125 189 125q149 0 190 -125q16 -49 16 -225t-16 -225q-41 -125 -190 -125zM235 132q30 0 38 25q5 16 5 183t-5 183
q-8 25 -38 25q-29 0 -37 -25q-5 -16 -5 -183t5 -183q8 -25 37 -25z" />
    <glyph glyph-name="Oacute" unicode="&#xd3;" horiz-adv-x="471" 
d="M281 747h-95q-5 0 -7 3t1 7l88 122q7 10 16 10h121q5 0 6.5 -3t-1.5 -7l-110 -122q-10 -10 -19 -10zM235 -10q-148 0 -189 125q-16 49 -16 225t16 225q41 125 189 125q149 0 190 -125q16 -49 16 -225t-16 -225q-41 -125 -190 -125zM235 132q30 0 38 25q5 16 5 183t-5 183
q-8 25 -38 25q-29 0 -37 -25q-5 -16 -5 -183t5 -183q8 -25 37 -25z" />
    <glyph glyph-name="Ocircumflex" unicode="&#xd4;" horiz-adv-x="471" 
d="M235 -10q-148 0 -189 125q-16 49 -16 225t16 225q41 125 189 125q149 0 190 -125q16 -49 16 -225t-16 -225q-41 -125 -190 -125zM235 132q30 0 38 25q5 16 5 183t-5 183q-8 25 -38 25q-29 0 -37 -25q-5 -16 -5 -183t5 -183q8 -25 37 -25zM383 740h-80q-10 0 -19 10
l-47 56h-2l-47 -56q-9 -10 -19 -10h-81q-4 0 -5.5 3t1.5 7l94 137q7 10 17 10h82q10 0 17 -10l93 -137q3 -4 2 -7t-6 -3z" />
    <glyph glyph-name="Otilde" unicode="&#xd5;" horiz-adv-x="471" 
d="M290 744q-26 0 -60 19q-28 18 -50 18q-31 0 -62 -31q-4 -4 -7.5 -3t-3.5 6v87q0 9 7 17q30 30 67 30q26 0 60 -19q28 -18 50 -18q31 0 62 31q4 4 7.5 3t3.5 -6v-87q0 -10 -7 -17q-30 -30 -67 -30zM235 -10q-148 0 -189 125q-16 49 -16 225t16 225q41 125 189 125
q149 0 190 -125q16 -49 16 -225t-16 -225q-41 -125 -190 -125zM235 132q30 0 38 25q5 16 5 183t-5 183q-8 25 -38 25q-29 0 -37 -25q-5 -16 -5 -183t5 -183q8 -25 37 -25z" />
    <glyph glyph-name="Odieresis" unicode="&#xd6;" horiz-adv-x="471" 
d="M362 750h-91q-10 0 -10 10v110q0 10 10 10h91q10 0 10 -10v-110q0 -10 -10 -10zM199 750h-91q-10 0 -10 10v110q0 10 10 10h91q10 0 10 -10v-110q0 -10 -10 -10zM235 -10q-148 0 -189 125q-16 49 -16 225t16 225q41 125 189 125q149 0 190 -125q16 -49 16 -225t-16 -225
q-41 -125 -190 -125zM235 132q30 0 38 25q5 16 5 183t-5 183q-8 25 -38 25q-29 0 -37 -25q-5 -16 -5 -183t5 -183q8 -25 37 -25z" />
    <glyph glyph-name="multiply" unicode="&#xd7;" 
d="M389 171l-66 -65q-7 -9 -14 0l-86 86q-4 3 -8 0l-86 -86q-7 -8 -15 0l-66 65q-6 7 0 15l86 86q4 4 0 8l-86 86q-6 8 0 15l66 65q8 8 15 0l86 -86q4 -3 8 0l86 86q7 9 14 0l66 -65q7 -7 0 -15l-86 -86q-3 -4 0 -8l86 -86q7 -8 0 -15z" />
    <glyph glyph-name="Oslash" unicode="&#xd8;" horiz-adv-x="471" 
d="M235 -10q-63 0 -110 25l-18 -35q-5 -10 -16 -10h-78q-5 0 -6.5 3t0.5 7l53 101q-8 16 -14 34q-9 27 -12.5 69t-3.5 156t3.5 156t12.5 69q42 125 189 125q63 0 110 -25l19 35q5 10 16 10h78q4 0 6 -3t0 -7l-54 -101q9 -17 15 -34q16 -49 16 -225t-16 -225
q-41 -125 -190 -125zM235 132q30 0 38 25q5 16 5 183t-5 183q-8 25 -38 25q-29 0 -37 -25q-5 -16 -5 -183t5 -183q8 -25 37 -25z" />
    <glyph glyph-name="Ugrave" unicode="&#xd9;" horiz-adv-x="472" 
d="M287 747h-95q-9 0 -19 10l-110 122q-3 4 -1.5 7t6.5 3h120q9 0 16 -10l89 -122q3 -4 1 -7t-7 -3zM236 -10q-93 0 -146.5 53t-53.5 154v473q0 10 10 10h139q10 0 10 -10v-491q0 -47 41 -47t41 47v491q0 10 10 10h139q10 0 10 -10v-473q0 -101 -53.5 -154t-146.5 -53z" />
    <glyph glyph-name="Uacute" unicode="&#xda;" horiz-adv-x="472" 
d="M282 747h-95q-5 0 -7 3t1 7l88 122q7 10 16 10h121q5 0 6.5 -3t-1.5 -7l-110 -122q-10 -10 -19 -10zM236 -10q-93 0 -146.5 53t-53.5 154v473q0 10 10 10h139q10 0 10 -10v-491q0 -47 41 -47t41 47v491q0 10 10 10h139q10 0 10 -10v-473q0 -101 -53.5 -154t-146.5 -53z
" />
    <glyph glyph-name="Ucircumflex" unicode="&#xdb;" horiz-adv-x="472" 
d="M236 -10q-93 0 -146.5 53t-53.5 154v473q0 10 10 10h139q10 0 10 -10v-491q0 -47 41 -47t41 47v491q0 10 10 10h139q10 0 10 -10v-473q0 -101 -53.5 -154t-146.5 -53zM383 740h-80q-10 0 -19 10l-47 56h-2l-47 -56q-9 -10 -19 -10h-81q-4 0 -5.5 3t1.5 7l94 137
q7 10 17 10h82q10 0 17 -10l93 -137q3 -4 2 -7t-6 -3z" />
    <glyph glyph-name="Udieresis" unicode="&#xdc;" horiz-adv-x="472" 
d="M363 750h-91q-10 0 -10 10v110q0 10 10 10h91q10 0 10 -10v-110q0 -10 -10 -10zM200 750h-91q-10 0 -10 10v110q0 10 10 10h91q10 0 10 -10v-110q0 -10 -10 -10zM236 -10q-93 0 -146.5 53t-53.5 154v473q0 10 10 10h139q10 0 10 -10v-491q0 -47 41 -47t41 47v491
q0 10 10 10h139q10 0 10 -10v-473q0 -101 -53.5 -154t-146.5 -53z" />
    <glyph glyph-name="Yacute" unicode="&#xdd;" horiz-adv-x="441" 
d="M290 0h-139q-10 0 -10 10v249l-134 411q-3 10 8 10h137q10 0 12 -10l57 -234h3l55 234q2 10 12 10h135q11 0 8 -10l-134 -411v-249q0 -10 -10 -10zM262 747h-95q-5 0 -7 3t1 7l88 122q7 10 16 10h121q5 0 6.5 -3t-1.5 -7l-110 -122q-10 -10 -19 -10z" />
    <glyph glyph-name="Thorn" unicode="&#xde;" horiz-adv-x="463" 
d="M186 0h-139q-10 0 -10 10v660q0 10 10 10h139q10 0 10 -10v-96q0 -6 6 -6h32q99 0 153.5 -53.5t54.5 -165.5t-56.5 -165.5t-151.5 -53.5h-32q-6 0 -6 -6v-114q0 -10 -10 -10zM225 264q31 0 44.5 18t13.5 67t-13.5 67t-44.5 18h-23q-6 0 -6 -6v-158q0 -6 6 -6h23z" />
    <glyph glyph-name="germandbls" unicode="&#xdf;" horiz-adv-x="454" 
d="M248 -5h-11q-10 0 -10 10v108q0 10 10 10h6q21 0 27 17q4 11 4 85t-4 85q-7 18 -27 18h-6q-10 0 -10 10v108q0 10 10 10h5q17 0 23 16q3 9 3 39q0 52 -40 52q-42 0 -42 -52v-501q0 -10 -10 -10h-131q-10 0 -10 10v492q0 91 49.5 139.5t143.5 48.5q90 0 140.5 -46
t50.5 -125q0 -83 -51 -120v-2q35 -21 48 -61q9 -27 9 -111q0 -105 -11 -137q-16 -50 -56 -71.5t-110 -21.5z" />
    <glyph glyph-name="agrave" unicode="&#xe0;" horiz-adv-x="405" 
d="M363 0h-123q-10 0 -10 10v29h-1q-23 -49 -91 -49q-51 0 -84 35.5t-33 111.5q0 84 45 120t114 36h44q6 0 6 6v22q0 27 -13 39t-46 12q-44 0 -80 -25q-12 -8 -15 3l-39 93q-3 10 5 15q60 39 152 39q98 0 138.5 -42t40.5 -133v-312q0 -10 -10 -10zM190 102q18 0 29 12.5
t11 35.5v42q0 6 -6 6h-21q-47 0 -47 -50q0 -46 34 -46zM265 546h-96q-11 0 -18 10l-97 136q-3 4 -1.5 7t6.5 3h121q10 0 16 -10l75 -136q5 -10 -6 -10z" />
    <glyph glyph-name="aacute" unicode="&#xe1;" horiz-adv-x="405" 
d="M363 0h-123q-10 0 -10 10v29h-1q-23 -49 -91 -49q-51 0 -84 35.5t-33 111.5q0 84 45 120t114 36h44q6 0 6 6v22q0 27 -13 39t-46 12q-44 0 -80 -25q-12 -8 -15 3l-39 93q-3 10 5 15q60 39 152 39q98 0 138.5 -42t40.5 -133v-312q0 -10 -10 -10zM190 102q18 0 29 12.5
t11 35.5v42q0 6 -6 6h-21q-47 0 -47 -50q0 -46 34 -46zM240 546h-96q-11 0 -6 10l75 136q6 10 16 10h121q5 0 6.5 -3t-1.5 -7l-97 -136q-8 -10 -18 -10z" />
    <glyph glyph-name="acircumflex" unicode="&#xe2;" horiz-adv-x="405" 
d="M363 0h-123q-10 0 -10 10v29h-1q-23 -49 -91 -49q-51 0 -84 35.5t-33 111.5q0 84 45 120t114 36h44q6 0 6 6v22q0 27 -13 39t-46 12q-44 0 -80 -25q-12 -8 -15 3l-39 93q-3 10 5 15q60 39 152 39q98 0 138.5 -42t40.5 -133v-312q0 -10 -10 -10zM190 102q18 0 29 12.5
t11 35.5v42q0 6 -6 6h-21q-47 0 -47 -50q0 -46 34 -46zM351 545h-80q-10 0 -19 10l-47 56h-2l-47 -56q-9 -10 -19 -10h-81q-4 0 -5.5 3t1.5 7l94 136q7 10 17 10h82q10 0 17 -10l93 -136q3 -4 2 -7t-6 -3z" />
    <glyph glyph-name="atilde" unicode="&#xe3;" horiz-adv-x="405" 
d="M363 0h-123q-10 0 -10 10v29h-1q-23 -49 -91 -49q-51 0 -84 35.5t-33 111.5q0 84 45 120t114 36h44q6 0 6 6v22q0 27 -13 39t-46 12q-44 0 -80 -25q-12 -8 -15 3l-39 93q-3 10 5 15q60 39 152 39q98 0 138.5 -42t40.5 -133v-312q0 -10 -10 -10zM190 102q18 0 29 12.5
t11 35.5v42q0 6 -6 6h-21q-47 0 -47 -50q0 -46 34 -46zM258 548q-24 0 -60 20q-28 18 -50 18q-31 0 -62 -31q-4 -4 -7.5 -3t-3.5 6v87q0 9 7 16q31 31 67 31q27 0 60 -20q29 -17 50 -17q31 0 62 31q4 4 7.5 3t3.5 -6v-87q0 -10 -7 -17q-31 -31 -67 -31z" />
    <glyph glyph-name="adieresis" unicode="&#xe4;" horiz-adv-x="405" 
d="M363 0h-123q-10 0 -10 10v29h-1q-23 -49 -91 -49q-51 0 -84 35.5t-33 111.5q0 84 45 120t114 36h44q6 0 6 6v22q0 27 -13 39t-46 12q-44 0 -80 -25q-12 -8 -15 3l-39 93q-3 10 5 15q60 39 152 39q98 0 138.5 -42t40.5 -133v-312q0 -10 -10 -10zM190 102q18 0 29 12.5
t11 35.5v42q0 6 -6 6h-21q-47 0 -47 -50q0 -46 34 -46zM331 551h-91q-10 0 -10 10v110q0 10 10 10h91q10 0 10 -10v-110q0 -10 -10 -10zM168 551h-91q-10 0 -10 10v110q0 10 10 10h91q10 0 10 -10v-110q0 -10 -10 -10z" />
    <glyph glyph-name="aring" unicode="&#xe5;" horiz-adv-x="405" 
d="M363 0h-123q-10 0 -10 10v29h-1q-23 -49 -91 -49q-51 0 -84 35.5t-33 111.5q0 84 45 120t114 36h44q6 0 6 6v22q0 27 -13 39t-46 12q-44 0 -80 -25q-12 -8 -15 3l-39 93q-3 10 5 15q60 39 152 39q98 0 138.5 -42t40.5 -133v-312q0 -10 -10 -10zM190 102q18 0 29 12.5
t11 35.5v42q0 6 -6 6h-21q-47 0 -47 -50q0 -46 34 -46zM204 528q-44 0 -73.5 28.5t-29.5 72.5t29.5 72.5t73.5 28.5t73.5 -28.5t29.5 -72.5t-29.5 -72.5t-73.5 -28.5zM204 586q17 0 29 12t12 31t-12 31t-29 12q-18 0 -29.5 -12t-11.5 -31t11.5 -31t29.5 -12z" />
    <glyph glyph-name="ae" unicode="&#xe6;" horiz-adv-x="612" 
d="M408 -10q-88 0 -132 53h-2q-24 -29 -52 -41t-70 -12q-58 0 -94.5 36t-36.5 111q0 84 45 120t114 36h44q6 0 6 6v22q0 27 -13 39t-46 12q-44 0 -80 -25q-12 -8 -15 3l-39 93q-3 10 5 15q60 39 152 39q74 0 114 -26h1q38 26 99 26q132 0 168 -110q13 -40 13 -179
q0 -10 -10 -10h-195q-6 0 -6 -6q0 -44 3 -56q7 -21 31 -21q27 0 37 31q3 9 12 8l115 -23q9 -1 7 -12q-12 -62 -58.5 -95.5t-116.5 -33.5zM441 293q6 0 6 6q0 48 -5 61q-6 21 -30 21t-30 -21q-4 -11 -4 -61q0 -6 6 -6h57zM190 102q18 0 29 12.5t11 35.5v42q0 6 -6 6h-21
q-47 0 -47 -50q0 -46 34 -46z" />
    <glyph glyph-name="ccedilla" unicode="&#xe7;" horiz-adv-x="391" 
d="M80 -155l66 151q-82 20 -109 103q-13 39 -13 144q0 106 13 145q36 109 165 109q74 0 121 -39t52 -108q0 -9 -8 -12l-116 -20q-12 -2 -12 9q-3 42 -32 42q-22 0 -28 -20q-4 -11 -4 -106q0 -94 4 -105q6 -20 28 -20q29 0 32 42q0 11 12 9l116 -20q8 -3 8 -12
q-4 -54 -34.5 -90t-79.5 -49l-55 -153q-4 -10 -15 -10h-104q-10 0 -7 10z" />
    <glyph glyph-name="egrave" unicode="&#xe8;" horiz-adv-x="408" 
d="M204 -10q-131 0 -167 110q-13 40 -13 143q0 104 13 144q36 110 167 110t167 -110q14 -44 14 -179q0 -10 -10 -10h-195q-6 0 -6 -6q0 -44 3 -56q7 -21 31 -21q27 0 37 31q3 9 12 8l115 -23q9 -1 7 -12q-12 -62 -58.5 -95.5t-116.5 -33.5zM236 293q6 0 6 6q0 50 -4 61
q-6 21 -30 21t-30 -21q-4 -11 -4 -61q0 -6 6 -6h56zM260 546h-96q-10 0 -18 10l-97 136q-3 4 -1.5 7t6.5 3h121q10 0 16 -10l75 -136q5 -10 -6 -10z" />
    <glyph glyph-name="eacute" unicode="&#xe9;" horiz-adv-x="408" 
d="M239 546h-96q-11 0 -6 10l75 136q6 10 16 10h121q5 0 6.5 -3t-1.5 -7l-97 -136q-8 -10 -18 -10zM204 -10q-131 0 -167 110q-13 40 -13 143q0 104 13 144q36 110 167 110t167 -110q14 -44 14 -179q0 -10 -10 -10h-195q-6 0 -6 -6q0 -44 3 -56q7 -21 31 -21q27 0 37 31
q3 9 12 8l115 -23q9 -1 7 -12q-12 -62 -58.5 -95.5t-116.5 -33.5zM236 293q6 0 6 6q0 50 -4 61q-6 21 -30 21t-30 -21q-4 -11 -4 -61q0 -6 6 -6h56z" />
    <glyph glyph-name="ecircumflex" unicode="&#xea;" horiz-adv-x="408" 
d="M351 545h-80q-10 0 -19 10l-47 56h-2l-47 -56q-9 -10 -19 -10h-81q-4 0 -5.5 3t1.5 7l94 136q7 10 17 10h82q10 0 17 -10l93 -136q3 -4 2 -7t-6 -3zM204 -10q-131 0 -167 110q-13 40 -13 143q0 104 13 144q36 110 167 110t167 -110q14 -44 14 -179q0 -10 -10 -10h-195
q-6 0 -6 -6q0 -44 3 -56q7 -21 31 -21q27 0 37 31q3 9 12 8l115 -23q9 -1 7 -12q-12 -62 -58.5 -95.5t-116.5 -33.5zM236 293q6 0 6 6q0 50 -4 61q-6 21 -30 21t-30 -21q-4 -11 -4 -61q0 -6 6 -6h56z" />
    <glyph glyph-name="edieresis" unicode="&#xeb;" horiz-adv-x="408" 
d="M331 551h-91q-10 0 -10 10v110q0 10 10 10h91q10 0 10 -10v-110q0 -10 -10 -10zM168 551h-91q-10 0 -10 10v110q0 10 10 10h91q10 0 10 -10v-110q0 -10 -10 -10zM204 -10q-131 0 -167 110q-13 40 -13 143q0 104 13 144q36 110 167 110t167 -110q14 -44 14 -179
q0 -10 -10 -10h-195q-6 0 -6 -6q0 -44 3 -56q7 -21 31 -21q27 0 37 31q3 9 12 8l115 -23q9 -1 7 -12q-12 -62 -58.5 -95.5t-116.5 -33.5zM236 293q6 0 6 6q0 50 -4 61q-6 21 -30 21t-30 -21q-4 -11 -4 -61q0 -6 6 -6h56z" />
    <glyph glyph-name="igrave" unicode="&#xec;" horiz-adv-x="221" 
d="M176 0h-131q-10 0 -10 10v467q0 10 10 10h131q10 0 10 -10v-467q0 -10 -10 -10zM171 546h-96q-11 0 -18 10l-97 136q-3 4 -1.5 7t6.5 3h121q10 0 16 -10l75 -136q5 -10 -6 -10z" />
    <glyph glyph-name="iacute" unicode="&#xed;" horiz-adv-x="221" 
d="M154 546h-96q-11 0 -6 10l75 136q6 10 16 10h121q5 0 6.5 -3t-1.5 -7l-97 -136q-8 -10 -18 -10zM176 0h-131q-10 0 -10 10v467q0 10 10 10h131q10 0 10 -10v-467q0 -10 -10 -10z" />
    <glyph glyph-name="icircumflex" unicode="&#xee;" horiz-adv-x="221" 
d="M258 545h-80q-10 0 -19 10l-47 56h-2l-47 -56q-9 -10 -19 -10h-81q-5 0 -6 3t2 7l94 136q7 10 17 10h82q10 0 17 -10l93 -136q3 -4 1.5 -7t-5.5 -3zM176 0h-131q-10 0 -10 10v467q0 10 10 10h131q10 0 10 -10v-467q0 -10 -10 -10z" />
    <glyph glyph-name="idieresis" unicode="&#xef;" horiz-adv-x="221" 
d="M237 551h-91q-10 0 -10 10v110q0 10 10 10h91q10 0 10 -10v-110q0 -10 -10 -10zM74 551h-91q-10 0 -10 10v110q0 10 10 10h91q10 0 10 -10v-110q0 -10 -10 -10zM176 0h-131q-10 0 -10 10v467q0 10 10 10h131q10 0 10 -10v-467q0 -10 -10 -10z" />
    <glyph glyph-name="eth" unicode="&#xf0;" horiz-adv-x="419" 
d="M346 568l-53 -17l29 -56q41 -78 56.5 -134.5t15.5 -130.5q0 -84 -13 -126q-38 -114 -172 -114q-136 0 -172 114q-13 42 -13 115q0 74 14 119q16 49 49.5 78t81.5 29q24 0 33 -7h1l-38 72l-67 -21q-9 -3 -12 6l-20 63q-3 10 6 13l54 17l-42 82q-5 10 6 10h128q8 0 14 -10
l21 -41l66 21q9 3 12 -6l22 -63q3 -10 -7 -13zM209 118q24 0 30 22q4 12 4 79q0 69 -4 81q-6 21 -30 21t-30 -21q-4 -12 -4 -81q0 -67 4 -79q6 -22 30 -22z" />
    <glyph glyph-name="ntilde" unicode="&#xf1;" horiz-adv-x="435" 
d="M392 0h-131q-10 0 -10 10v311q0 45 -32 45q-33 0 -33 -45v-311q0 -10 -10 -10h-131q-10 0 -10 10v467q0 10 10 10h130q10 0 10 -10v-37h1q29 57 99 57q62 0 89.5 -36t27.5 -114v-337q0 -10 -10 -10zM273 548q-24 0 -60 20q-28 18 -50 18q-31 0 -62 -31q-4 -4 -7.5 -3
t-3.5 6v87q0 9 7 16q31 31 67 31q27 0 60 -20q29 -17 50 -17q31 0 62 31q4 4 7.5 3t3.5 -6v-87q0 -10 -7 -17q-31 -31 -67 -31z" />
    <glyph glyph-name="ograve" unicode="&#xf2;" horiz-adv-x="418" 
d="M209 -10q-136 0 -172 114q-13 42 -13 139q0 98 13 140q36 114 172 114q134 0 172 -114q13 -42 13 -140q0 -97 -13 -139q-38 -114 -172 -114zM209 118q24 0 30 22q4 11 4 103q0 93 -4 104q-6 22 -30 22t-30 -22q-4 -11 -4 -104q0 -92 4 -103q6 -22 30 -22zM261 546h-96
q-11 0 -18 10l-97 136q-3 4 -1.5 7t6.5 3h121q10 0 16 -10l75 -136q5 -10 -6 -10z" />
    <glyph glyph-name="oacute" unicode="&#xf3;" horiz-adv-x="418" 
d="M242 546h-96q-11 0 -6 10l75 136q6 10 16 10h121q5 0 6.5 -3t-1.5 -7l-97 -136q-8 -10 -18 -10zM209 -10q-136 0 -172 114q-13 42 -13 139q0 98 13 140q36 114 172 114q134 0 172 -114q13 -42 13 -140q0 -97 -13 -139q-38 -114 -172 -114zM209 118q24 0 30 22q4 11 4 103
q0 93 -4 104q-6 22 -30 22t-30 -22q-4 -11 -4 -104q0 -92 4 -103q6 -22 30 -22z" />
    <glyph glyph-name="ocircumflex" unicode="&#xf4;" horiz-adv-x="418" 
d="M357 545h-80q-10 0 -19 10l-47 56h-2l-47 -56q-9 -10 -19 -10h-81q-4 0 -5.5 3t1.5 7l94 136q7 10 17 10h82q10 0 17 -10l93 -136q3 -4 2 -7t-6 -3zM209 -10q-136 0 -172 114q-13 42 -13 139q0 98 13 140q36 114 172 114q134 0 172 -114q13 -42 13 -140q0 -97 -13 -139
q-38 -114 -172 -114zM209 118q24 0 30 22q4 11 4 103q0 93 -4 104q-6 22 -30 22t-30 -22q-4 -11 -4 -104q0 -92 4 -103q6 -22 30 -22z" />
    <glyph glyph-name="otilde" unicode="&#xf5;" horiz-adv-x="418" 
d="M209 -10q-136 0 -172 114q-13 42 -13 139q0 98 13 140q36 114 172 114q134 0 172 -114q13 -42 13 -140q0 -97 -13 -139q-38 -114 -172 -114zM209 118q24 0 30 22q4 11 4 103q0 93 -4 104q-6 22 -30 22t-30 -22q-4 -11 -4 -104q0 -92 4 -103q6 -22 30 -22zM264 548
q-24 0 -60 20q-28 18 -50 18q-31 0 -62 -31q-4 -4 -7.5 -3t-3.5 6v87q0 9 7 16q31 31 67 31q27 0 60 -20q29 -17 50 -17q31 0 62 31q4 4 7.5 3t3.5 -6v-87q0 -10 -7 -17q-31 -31 -67 -31z" />
    <glyph glyph-name="odieresis" unicode="&#xf6;" horiz-adv-x="418" 
d="M337 551h-91q-10 0 -10 10v110q0 10 10 10h91q10 0 10 -10v-110q0 -10 -10 -10zM174 551h-91q-10 0 -10 10v110q0 10 10 10h91q10 0 10 -10v-110q0 -10 -10 -10zM209 -10q-136 0 -172 114q-13 42 -13 139q0 98 13 140q36 114 172 114q134 0 172 -114q13 -42 13 -140
q0 -97 -13 -139q-38 -114 -172 -114zM209 118q24 0 30 22q4 11 4 103q0 93 -4 104q-6 22 -30 22t-30 -22q-4 -11 -4 -104q0 -92 4 -103q6 -22 30 -22z" />
    <glyph glyph-name="divide" unicode="&#xf7;" 
d="M219 384q-32 0 -54 22t-22 54t22 53.5t54 21.5q31 0 53 -21.5t22 -53.5t-21.5 -54t-53.5 -22zM398 216h-359q-10 0 -10 10v100q0 10 10 10h359q10 0 10 -10v-100q0 -10 -10 -10zM219 17q-32 0 -54 21.5t-22 53.5t22 54t54 22t53.5 -22t21.5 -54t-22 -53.5t-53 -21.5z" />
    <glyph glyph-name="oslash" unicode="&#xf8;" horiz-adv-x="418" 
d="M209 -10q-53 0 -94 19l-17 -29q-7 -10 -16 -10h-66q-11 0 -5 10l47 79q-14 19 -21 45q-13 42 -13 139q0 98 13 140q36 114 172 114q53 0 93 -20l18 30q7 10 16 10h66q11 0 5 -10l-48 -80q12 -17 22 -44q13 -38 13 -140q0 -97 -13 -139q-38 -114 -172 -114zM209 118
q24 0 31 22q4 11 4 103q0 93 -4 104q-7 22 -31 22t-31 -22q-4 -11 -4 -104q0 -92 4 -103q7 -22 31 -22z" />
    <glyph glyph-name="ugrave" unicode="&#xf9;" horiz-adv-x="434" 
d="M389 0h-130q-10 0 -10 10v37h-1q-29 -57 -99 -57q-60 0 -88 36t-28 114v337q0 10 10 10h131q10 0 10 -10v-312q0 -44 32 -44t32 44v312q0 10 10 10h131q10 0 10 -10v-467q0 -10 -10 -10zM274 546h-96q-10 0 -18 10l-97 136q-3 4 -1.5 7t6.5 3h121q10 0 16 -10l75 -136
q5 -10 -6 -10z" />
    <glyph glyph-name="uacute" unicode="&#xfa;" horiz-adv-x="434" 
d="M252 546h-96q-11 0 -6 10l75 136q6 10 16 10h121q5 0 6.5 -3t-1.5 -7l-97 -136q-8 -10 -18 -10zM389 0h-130q-10 0 -10 10v37h-1q-29 -57 -99 -57q-60 0 -88 36t-28 114v337q0 10 10 10h131q10 0 10 -10v-312q0 -44 32 -44t32 44v312q0 10 10 10h131q10 0 10 -10v-467
q0 -10 -10 -10z" />
    <glyph glyph-name="ucircumflex" unicode="&#xfb;" horiz-adv-x="434" 
d="M365 545h-80q-10 0 -19 10l-47 56h-2l-47 -56q-9 -10 -19 -10h-81q-4 0 -5.5 3t1.5 7l94 136q7 10 17 10h82q10 0 17 -10l93 -136q3 -4 2 -7t-6 -3zM389 0h-130q-10 0 -10 10v37h-1q-29 -57 -99 -57q-60 0 -88 36t-28 114v337q0 10 10 10h131q10 0 10 -10v-312
q0 -44 32 -44t32 44v312q0 10 10 10h131q10 0 10 -10v-467q0 -10 -10 -10z" />
    <glyph glyph-name="udieresis" unicode="&#xfc;" horiz-adv-x="434" 
d="M345 551h-91q-10 0 -10 10v110q0 10 10 10h91q10 0 10 -10v-110q0 -10 -10 -10zM182 551h-91q-10 0 -10 10v110q0 10 10 10h91q10 0 10 -10v-110q0 -10 -10 -10zM389 0h-130q-10 0 -10 10v37h-1q-29 -57 -99 -57q-60 0 -88 36t-28 114v337q0 10 10 10h131q10 0 10 -10
v-312q0 -44 32 -44t32 44v312q0 10 10 10h131q10 0 10 -10v-467q0 -10 -10 -10z" />
    <glyph glyph-name="yacute" unicode="&#xfd;" horiz-adv-x="405" 
d="M75 -180h-14q-10 0 -10 10v111q0 10 10 10h14q27 1 40 10.5t18 32.5l5 22l-128 461q-3 10 8 10h127q10 0 12 -10l46 -254h2l49 254q2 10 12 10h121q11 0 8 -10l-131 -491q-26 -96 -67 -131t-122 -35zM238 546h-96q-11 0 -6 10l75 136q6 10 16 10h121q5 0 6.5 -3t-1.5 -7
l-97 -136q-8 -10 -18 -10z" />
    <glyph glyph-name="thorn" unicode="&#xfe;" horiz-adv-x="433" 
d="M176 -180h-131q-10 0 -10 10v840q0 10 10 10h131q10 0 10 -10v-231h1q29 58 96 58q43 0 68.5 -18t39.5 -59q15 -46 15 -177q0 -129 -15 -176q-14 -41 -39.5 -59t-68.5 -18q-67 0 -96 58h-1v-218q0 -10 -10 -10zM221 118q22 0 30 22q4 12 4 103q0 92 -4 104q-8 22 -30 22
q-23 0 -31 -22q-4 -12 -4 -104q0 -91 4 -103q8 -22 31 -22z" />
    <glyph glyph-name="ydieresis" unicode="&#xff;" horiz-adv-x="405" 
d="M75 -180h-14q-10 0 -10 10v111q0 10 10 10h14q27 1 40 10.5t18 32.5l5 22l-128 461q-3 10 8 10h127q10 0 12 -10l46 -254h2l49 254q2 10 12 10h121q11 0 8 -10l-131 -491q-26 -96 -67 -131t-122 -35zM330 551h-91q-10 0 -10 10v110q0 10 10 10h91q10 0 10 -10v-110
q0 -10 -10 -10zM167 551h-91q-10 0 -10 10v110q0 10 10 10h91q10 0 10 -10v-110q0 -10 -10 -10z" />
    <glyph glyph-name="Amacron" unicode="&#x100;" horiz-adv-x="488" 
d="M7 10l149 660q3 10 12 10h155q10 0 12 -10l146 -660q3 -10 -8 -10h-138q-10 0 -12 10l-18 107h-121l-19 -107q-2 -10 -11 -10h-139q-10 0 -8 10zM205 236h79l-37 221h-2zM366 761h-244q-10 0 -10 10v89q0 10 10 10h244q10 0 10 -10v-89q0 -10 -10 -10z" />
    <glyph glyph-name="amacron" unicode="&#x101;" horiz-adv-x="405" 
d="M363 0h-123q-10 0 -10 10v29h-1q-23 -49 -91 -49q-51 0 -84 35.5t-33 111.5q0 84 45 120t114 36h44q6 0 6 6v22q0 27 -13 39t-46 12q-44 0 -80 -25q-12 -8 -15 3l-39 93q-3 10 5 15q60 39 152 39q98 0 138.5 -42t40.5 -133v-312q0 -10 -10 -10zM190 102q18 0 29 12.5
t11 35.5v42q0 6 -6 6h-21q-47 0 -47 -50q0 -46 34 -46zM326 563h-244q-10 0 -10 10v89q0 10 10 10h244q10 0 10 -10v-89q0 -10 -10 -10z" />
    <glyph glyph-name="Abreve" unicode="&#x102;" horiz-adv-x="488" 
d="M7 10l149 660q3 10 12 10h155q10 0 12 -10l146 -660q3 -10 -8 -10h-138q-10 0 -12 10l-18 107h-121l-19 -107q-2 -10 -11 -10h-139q-10 0 -8 10zM205 236h79l-37 221h-2zM244 731q-65 0 -102 39t-39 99q0 11 13 11h60q9 0 14 -11q16 -42 54 -42t54 42q5 11 14 11h60
q13 0 13 -11q-2 -60 -39 -99t-102 -39z" />
    <glyph glyph-name="abreve" unicode="&#x103;" horiz-adv-x="405" 
d="M363 0h-123q-10 0 -10 10v29h-1q-23 -49 -91 -49q-51 0 -84 35.5t-33 111.5q0 84 45 120t114 36h44q6 0 6 6v22q0 27 -13 39t-46 12q-44 0 -80 -25q-12 -8 -15 3l-39 93q-3 10 5 15q60 39 152 39q98 0 138.5 -42t40.5 -133v-312q0 -10 -10 -10zM190 102q18 0 29 12.5
t11 35.5v42q0 6 -6 6h-21q-47 0 -47 -50q0 -46 34 -46zM204 541q-65 0 -102 39t-39 99q0 11 13 11h60q10 0 14 -11q17 -42 54 -42t54 42q4 11 14 11h60q13 0 13 -11q-2 -60 -39 -99t-102 -39z" />
    <glyph glyph-name="Aogonek" unicode="&#x104;" horiz-adv-x="488" 
d="M401 -192q-47 0 -74.5 24.5t-27.5 67.5q0 53 50 100h-16q-9 1 -10 10l-18 107h-120l-20 -107q-2 -10 -11 -10h-139q-10 0 -8 10l149 660q3 10 12 10h155q10 0 12 -10l146 -660q1 -7 -5 -11q-69 -33 -69 -72q0 -21 19 -21q8 0 15 3q9 5 12 -5l25 -63q3 -8 -5 -13
q-28 -20 -72 -20zM285 236l-38 221h-2l-40 -221h80z" />
    <glyph glyph-name="aogonek" unicode="&#x105;" horiz-adv-x="405" 
d="M289 -192q-46 0 -73.5 24.5t-27.5 67.5q0 54 51 102h-2q-7 0 -7 8v29h-1q-23 -49 -91 -49q-51 0 -84 35.5t-33 111.5q0 84 45 120t114 36h44q6 0 6 6v22q0 27 -13 39t-46 12q-44 0 -80 -25q-12 -8 -15 3l-39 93q-3 10 5 15q60 39 152 39q98 0 138.5 -42t40.5 -133v-312
q0 -7 -7 -10q-70 -35 -70 -73q0 -21 18 -21q7 0 15 3q10 5 13 -5l25 -63q3 -8 -5 -13q-28 -20 -73 -20zM190 102q18 0 29 12.5t11 35.5v42q0 6 -6 6h-21q-47 0 -47 -50q0 -46 34 -46z" />
    <glyph glyph-name="Cacute" unicode="&#x106;" horiz-adv-x="444" 
d="M45 113q-15 47 -15 227t15 227q41 123 185 123q91 0 141 -48t55 -134q0 -11 -8 -12l-134 -22q-11 -2 -11 9q-1 65 -41 65q-26 0 -34 -24q-5 -18 -5 -184t5 -184q8 -24 34 -24q40 0 41 65q0 11 11 9l134 -22q8 -1 8 -12q-5 -86 -55 -134t-141 -48q-144 0 -185 123z
M259 747h-95q-5 0 -7 3t1 7l88 122q7 10 16 10h121q5 0 6.5 -3t-1.5 -7l-110 -122q-10 -10 -19 -10z" />
    <glyph glyph-name="cacute" unicode="&#x107;" horiz-adv-x="391" 
d="M242 546h-96q-11 0 -6 10l75 136q6 10 16 10h121q5 0 6.5 -3t-1.5 -7l-97 -136q-8 -10 -18 -10zM202 -10q-129 0 -165 109q-13 39 -13 144q0 106 13 145q36 109 165 109q74 0 121 -39t52 -108q0 -9 -8 -12l-116 -20q-12 -2 -12 9q-3 42 -32 42q-22 0 -28 -20
q-4 -11 -4 -106q0 -94 4 -105q6 -20 28 -20q29 0 32 42q0 11 12 9l116 -20q8 -3 8 -12q-5 -69 -52 -108t-121 -39z" />
    <glyph glyph-name="Ccircumflex" unicode="&#x108;" horiz-adv-x="444" 
d="M45 113q-15 47 -15 227t15 227q41 123 185 123q91 0 141 -48t55 -134q0 -11 -8 -12l-134 -22q-11 -2 -11 9q-1 65 -41 65q-26 0 -34 -24q-5 -18 -5 -184t5 -184q8 -24 34 -24q40 0 41 65q0 11 11 9l134 -22q8 -1 8 -12q-5 -86 -55 -134t-141 -48q-144 0 -185 123z
M374 740h-80q-10 0 -19 10l-47 56h-2l-47 -56q-9 -10 -19 -10h-81q-5 0 -6 3t2 7l94 137q7 10 17 10h82q10 0 17 -10l93 -137q3 -4 1.5 -7t-5.5 -3z" />
    <glyph glyph-name="ccircumflex" unicode="&#x109;" horiz-adv-x="391" 
d="M347 545h-80q-10 0 -19 10l-47 56h-2l-47 -56q-9 -10 -19 -10h-81q-4 0 -5.5 3t1.5 7l94 136q7 10 17 10h82q10 0 17 -10l93 -136q3 -4 2 -7t-6 -3zM202 -10q-129 0 -165 109q-13 39 -13 144q0 106 13 145q36 109 165 109q74 0 121 -39t52 -108q0 -9 -8 -12l-116 -20
q-12 -2 -12 9q-3 42 -32 42q-22 0 -28 -20q-4 -11 -4 -106q0 -94 4 -105q6 -20 28 -20q29 0 32 42q0 11 12 9l116 -20q8 -3 8 -12q-5 -69 -52 -108t-121 -39z" />
    <glyph glyph-name="Cdotaccent" unicode="&#x10a;" horiz-adv-x="444" 
d="M287 750h-131q-10 0 -10 10v110q0 10 10 10h131q10 0 10 -10v-110q0 -10 -10 -10zM45 113q-15 47 -15 227t15 227q41 123 185 123q91 0 141 -48t55 -134q0 -11 -8 -12l-134 -22q-11 -2 -11 9q-1 65 -41 65q-26 0 -34 -24q-5 -18 -5 -184t5 -184q8 -24 34 -24q40 0 41 65
q0 11 11 9l134 -22q8 -1 8 -12q-5 -86 -55 -134t-141 -48q-144 0 -185 123z" />
    <glyph glyph-name="cdotaccent" unicode="&#x10b;" horiz-adv-x="391" 
d="M202 -10q-129 0 -165 109q-13 39 -13 144q0 106 13 145q36 109 165 109q74 0 121 -39t52 -108q0 -9 -8 -12l-116 -20q-12 -2 -12 9q-3 42 -32 42q-22 0 -28 -20q-4 -11 -4 -106q0 -94 4 -105q6 -20 28 -20q29 0 32 42q0 11 12 9l116 -20q8 -3 8 -12q-5 -69 -52 -108
t-121 -39zM262 550h-131q-10 0 -10 10v110q0 10 10 10h131q10 0 10 -10v-110q0 -10 -10 -10z" />
    <glyph glyph-name="Ccaron" unicode="&#x10c;" horiz-adv-x="444" 
d="M45 113q-15 47 -15 227t15 227q41 123 185 123q91 0 141 -48t55 -134q0 -11 -8 -12l-134 -22q-11 -2 -11 9q-1 65 -41 65q-26 0 -34 -24q-5 -18 -5 -184t5 -184q8 -24 34 -24q40 0 41 65q0 11 11 9l134 -22q8 -1 8 -12q-5 -86 -55 -134t-141 -48q-144 0 -185 123z
M266 734h-82q-10 0 -17 10l-94 137q-3 4 -2 7t6 3h81q10 0 19 -10l47 -56h2l47 56q9 10 19 10h80q4 0 5.5 -3t-1.5 -7l-93 -137q-7 -10 -17 -10z" />
    <glyph glyph-name="ccaron" unicode="&#x10d;" horiz-adv-x="391" 
d="M241 542h-82q-10 0 -17 10l-94 137q-3 4 -1.5 7t5.5 3h81q10 0 19 -10l47 -56h2l47 56q9 10 19 10h80q5 0 6 -3t-2 -7l-93 -137q-7 -10 -17 -10zM202 -10q-129 0 -165 109q-13 39 -13 144q0 106 13 145q36 109 165 109q74 0 121 -39t52 -108q0 -9 -8 -12l-116 -20
q-12 -2 -12 9q-3 42 -32 42q-22 0 -28 -20q-4 -11 -4 -106q0 -94 4 -105q6 -20 28 -20q29 0 32 42q0 11 12 9l116 -20q8 -3 8 -12q-5 -69 -52 -108t-121 -39z" />
    <glyph glyph-name="Dcaron" unicode="&#x10e;" horiz-adv-x="472" 
d="M260 734h-82q-10 0 -17 10l-94 137q-3 4 -2 7t6 3h81q10 0 19 -10l47 -56h2l47 56q9 10 19 10h80q4 0 5.5 -3t-1.5 -7l-93 -137q-7 -10 -17 -10zM37 10v660q0 10 10 10h189q150 0 188 -117q19 -60 19 -223t-19 -223q-38 -117 -188 -117h-189q-10 0 -10 10zM196 148
q0 -6 6 -6h19q40 0 51 32q9 27 9 166t-9 166q-11 32 -51 32h-19q-6 0 -6 -6v-384z" />
    <glyph glyph-name="dcaron" unicode="&#x10f;" horiz-adv-x="433" 
d="M435 475q-10 0 -10 10v185q0 10 10 10h93q10 0 10 -10v-84q0 -14 -9 -24l-82 -81q-5 -6 -12 -6zM388 0h-130q-10 0 -10 10v38h-1q-27 -58 -97 -58q-43 0 -68.5 18t-39.5 59q-15 47 -15 176q0 130 15 177q14 41 39.5 59t68.5 18q67 0 96 -58h1v231q0 10 10 10h131
q10 0 10 -10v-660q0 -10 -10 -10zM213 118q22 0 30 22q4 12 4 103q0 92 -4 104q-8 22 -30 22q-23 0 -31 -22q-4 -12 -4 -104q0 -91 4 -103q8 -22 31 -22z" />
    <glyph glyph-name="Dcroat" unicode="&#x110;" horiz-adv-x="472" 
d="M236 0h-189q-10 0 -10 10v272q0 6 -6 6h-23q-10 0 -10 10v89q0 10 10 10h23q6 0 6 6v267q0 10 10 10h189q150 0 188 -117q19 -60 19 -223t-19 -223q-38 -117 -188 -117zM222 142q40 0 51 32q9 27 9 166t-9 166q-11 32 -51 32h-21q-6 0 -6 -6v-130q0 -6 6 -6h32
q10 0 10 -10v-89q0 -10 -10 -10h-32q-6 0 -6 -6v-133q0 -6 6 -6h21z" />
    <glyph glyph-name="dcroat" unicode="&#x111;" horiz-adv-x="433" 
d="M388 0h-130q-10 0 -10 10v38h-1q-27 -58 -97 -58q-43 0 -68.5 18t-39.5 59q-15 47 -15 176q0 130 15 177q14 41 39.5 59t68.5 18q67 0 96 -58h1v97q0 6 -6 6h-92q-10 0 -10 10v70q0 10 10 10h92q6 0 6 6v32q0 10 10 10h131q10 0 10 -10v-32q0 -6 6 -6h18q10 0 10 -10v-70
q0 -10 -10 -10h-18q-6 0 -6 -6v-526q0 -10 -10 -10zM213 118q22 0 30 22q4 12 4 103q0 92 -4 104q-8 22 -30 22q-23 0 -31 -22q-4 -12 -4 -104q0 -91 4 -103q8 -22 31 -22z" />
    <glyph glyph-name="Emacron" unicode="&#x112;" horiz-adv-x="401" 
d="M325 761h-244q-10 0 -10 10v89q0 10 10 10h244q10 0 10 -10v-89q0 -10 -10 -10zM37 10v660q0 10 10 10h318q10 0 10 -10v-122q0 -10 -10 -10h-163q-6 0 -6 -6v-112q0 -6 6 -6h140q10 0 10 -10v-122q0 -10 -10 -10h-140q-6 0 -6 -6v-118q0 -6 6 -6h163q10 0 10 -10v-122
q0 -10 -10 -10h-318q-10 0 -10 10z" />
    <glyph glyph-name="emacron" unicode="&#x113;" horiz-adv-x="408" 
d="M204 -10q-131 0 -167 110q-13 40 -13 143q0 104 13 144q36 110 167 110t167 -110q14 -44 14 -179q0 -10 -10 -10h-195q-6 0 -6 -6q0 -44 3 -56q7 -21 31 -21q27 0 37 31q3 9 12 8l115 -23q9 -1 7 -12q-12 -62 -58.5 -95.5t-116.5 -33.5zM236 293q6 0 6 6q0 50 -4 61
q-6 21 -30 21t-30 -21q-4 -11 -4 -61q0 -6 6 -6h56zM326 563h-244q-10 0 -10 10v89q0 10 10 10h244q10 0 10 -10v-89q0 -10 -10 -10z" />
    <glyph glyph-name="Ebreve" unicode="&#x114;" horiz-adv-x="401" 
d="M203 731q-65 0 -102 39t-39 99q0 11 13 11h60q9 0 14 -11q16 -42 54 -42t54 42q5 11 14 11h60q13 0 13 -11q-2 -60 -39 -99t-102 -39zM37 10v660q0 10 10 10h318q10 0 10 -10v-122q0 -10 -10 -10h-163q-6 0 -6 -6v-112q0 -6 6 -6h140q10 0 10 -10v-122q0 -10 -10 -10
h-140q-6 0 -6 -6v-118q0 -6 6 -6h163q10 0 10 -10v-122q0 -10 -10 -10h-318q-10 0 -10 10z" />
    <glyph glyph-name="ebreve" unicode="&#x115;" horiz-adv-x="408" 
d="M204 -10q-131 0 -167 110q-13 40 -13 143q0 104 13 144q36 110 167 110t167 -110q14 -44 14 -179q0 -10 -10 -10h-195q-6 0 -6 -6q0 -44 3 -56q7 -21 31 -21q27 0 37 31q3 9 12 8l115 -23q9 -1 7 -12q-12 -62 -58.5 -95.5t-116.5 -33.5zM236 293q6 0 6 6q0 50 -4 61
q-6 21 -30 21t-30 -21q-4 -11 -4 -61q0 -6 6 -6h56zM204 541q-65 0 -102 39t-39 99q0 11 13 11h60q10 0 14 -11q17 -42 54 -42t54 42q4 11 14 11h60q13 0 13 -11q-2 -60 -39 -99t-102 -39z" />
    <glyph glyph-name="Edotaccent" unicode="&#x116;" horiz-adv-x="401" 
d="M268 750h-131q-10 0 -10 10v110q0 10 10 10h131q10 0 10 -10v-110q0 -10 -10 -10zM37 10v660q0 10 10 10h318q10 0 10 -10v-122q0 -10 -10 -10h-163q-6 0 -6 -6v-112q0 -6 6 -6h140q10 0 10 -10v-122q0 -10 -10 -10h-140q-6 0 -6 -6v-118q0 -6 6 -6h163q10 0 10 -10v-122
q0 -10 -10 -10h-318q-10 0 -10 10z" />
    <glyph glyph-name="edotaccent" unicode="&#x117;" horiz-adv-x="408" 
d="M204 -10q-131 0 -167 110q-13 40 -13 143q0 104 13 144q36 110 167 110t167 -110q14 -44 14 -179q0 -10 -10 -10h-195q-6 0 -6 -6q0 -44 3 -56q7 -21 31 -21q27 0 37 31q3 9 12 8l115 -23q9 -1 7 -12q-12 -62 -58.5 -95.5t-116.5 -33.5zM236 293q6 0 6 6q0 50 -4 61
q-6 21 -30 21t-30 -21q-4 -11 -4 -61q0 -6 6 -6h56zM270 550h-131q-10 0 -10 10v110q0 10 10 10h131q10 0 10 -10v-110q0 -10 -10 -10z" />
    <glyph glyph-name="Eogonek" unicode="&#x118;" horiz-adv-x="401" 
d="M280 -192q-47 0 -74 24.5t-27 67.5q0 51 49 100h-181q-10 0 -10 10v660q0 10 10 10h318q10 0 10 -10v-122q0 -10 -10 -10h-163q-6 0 -6 -6v-112q0 -6 6 -6h140q10 0 10 -10v-122q0 -10 -10 -10h-140q-6 0 -6 -6v-118q0 -6 6 -6h163q10 0 10 -10v-122q0 -10 -10 -10h-12
q-66 -37 -66 -73q0 -21 18 -21q7 0 15 3q10 5 13 -5l25 -63q3 -8 -5 -13q-28 -20 -73 -20z" />
    <glyph glyph-name="eogonek" unicode="&#x119;" horiz-adv-x="408" 
d="M200 -10q-127 1 -163 110q-13 40 -13 143q0 104 13 144q36 110 167 110q132 0 167 -110q14 -39 14 -179q0 -10 -10 -10h-195q-6 0 -6 -6q0 -44 3 -56q7 -21 31 -21q27 0 37 31q3 9 12 8l115 -23q9 -1 7 -12q-10 -44 -34 -72q-64 -87 -64 -120q0 -21 18 -21q7 0 15 3
q9 4 12 -5l26 -63q3 -8 -5 -13q-30 -20 -73 -20q-47 0 -74 24.5t-27 67.5q0 49 35 91q-3 -1 -8 -1zM236 293q6 0 6 6q0 50 -4 61q-6 21 -30 21t-30 -21q-4 -11 -4 -61q0 -6 6 -6h56z" />
    <glyph glyph-name="Ecaron" unicode="&#x11a;" horiz-adv-x="401" 
d="M245 734h-82q-10 0 -17 10l-94 137q-3 4 -1.5 7t5.5 3h81q10 0 19 -10l47 -56h2l47 56q9 10 19 10h80q5 0 6 -3t-2 -7l-93 -137q-7 -10 -17 -10zM37 10v660q0 10 10 10h318q10 0 10 -10v-122q0 -10 -10 -10h-163q-6 0 -6 -6v-112q0 -6 6 -6h140q10 0 10 -10v-122
q0 -10 -10 -10h-140q-6 0 -6 -6v-118q0 -6 6 -6h163q10 0 10 -10v-122q0 -10 -10 -10h-318q-10 0 -10 10z" />
    <glyph glyph-name="ecaron" unicode="&#x11b;" horiz-adv-x="408" 
d="M245 542h-82q-10 0 -17 10l-94 137q-3 4 -1.5 7t5.5 3h81q10 0 19 -10l47 -56h2l47 56q9 10 19 10h80q5 0 6 -3t-2 -7l-93 -137q-7 -10 -17 -10zM204 -10q-131 0 -167 110q-13 40 -13 143q0 104 13 144q36 110 167 110t167 -110q14 -44 14 -179q0 -10 -10 -10h-195
q-6 0 -6 -6q0 -44 3 -56q7 -21 31 -21q27 0 37 31q3 9 12 8l115 -23q9 -1 7 -12q-12 -62 -58.5 -95.5t-116.5 -33.5zM236 293q6 0 6 6q0 50 -4 61q-6 21 -30 21t-30 -21q-4 -11 -4 -61q0 -6 6 -6h56z" />
    <glyph glyph-name="Gcircumflex" unicode="&#x11c;" horiz-adv-x="466" 
d="M45 114q-15 46 -15 226t15 226q40 124 191 124q91 0 142 -48t57 -133q0 -10 -8 -12l-134 -21q-11 -2 -11 8q-4 64 -46 64q-29 0 -38 -26q-5 -16 -5 -182t5 -181q8 -27 41 -27q34 0 42 27q5 14 5 91q0 6 -6 6h-31q-10 0 -10 10v103q0 10 10 10h179q10 0 10 -10v-29
q0 -179 -15 -225q-41 -125 -187 -125q-151 0 -191 124zM381 740h-80q-10 0 -19 10l-47 56h-2l-47 -56q-9 -10 -19 -10h-81q-4 0 -5.5 3t1.5 7l94 137q7 10 17 10h82q10 0 17 -10l93 -137q3 -4 2 -7t-6 -3z" />
    <glyph glyph-name="gcircumflex" unicode="&#x11d;" horiz-adv-x="433" 
d="M364 545h-80q-10 0 -19 10l-47 56h-2l-47 -56q-9 -10 -19 -10h-81q-5 0 -6 3t2 7l94 136q7 10 17 10h82q10 0 17 -10l93 -136q3 -4 1.5 -7t-5.5 -3zM211 -190q-71 0 -117.5 35.5t-52.5 91.5q0 10 6 11l120 26q8 3 11 -6q8 -31 35 -31q34 0 34 44v93h-1q-29 -58 -96 -58
q-43 0 -68.5 18t-39.5 59q-15 47 -15 163t15 163q14 41 39.5 59t68.5 18q70 0 97 -58h1v39q0 10 10 10h130q10 0 10 -10v-478q0 -94 -49 -141.5t-138 -47.5zM213 143q22 0 30 22q4 12 4 91t-4 91q-8 22 -30 22q-23 0 -31 -22q-4 -12 -4 -91t4 -91q8 -22 31 -22z" />
    <glyph glyph-name="Gbreve" unicode="&#x11e;" horiz-adv-x="466" 
d="M233 731q-65 0 -102 39t-39 99q0 11 13 11h60q9 0 14 -11q16 -42 54 -42t54 42q5 11 14 11h60q13 0 13 -11q-2 -60 -39 -99t-102 -39zM45 114q-15 46 -15 226t15 226q40 124 191 124q91 0 142 -48t57 -133q0 -10 -8 -12l-134 -21q-11 -2 -11 8q-4 64 -46 64
q-29 0 -38 -26q-5 -16 -5 -182t5 -181q8 -27 41 -27q34 0 42 27q5 14 5 91q0 6 -6 6h-31q-10 0 -10 10v103q0 10 10 10h179q10 0 10 -10v-29q0 -179 -15 -225q-41 -125 -187 -125q-151 0 -191 124z" />
    <glyph glyph-name="gbreve" unicode="&#x11f;" horiz-adv-x="433" 
d="M211 -190q-71 0 -117.5 35.5t-52.5 91.5q0 10 6 11l120 26q8 3 11 -6q8 -31 35 -31q34 0 34 44v93h-1q-29 -58 -96 -58q-43 0 -68.5 18t-39.5 59q-15 47 -15 163t15 163q14 41 39.5 59t68.5 18q70 0 97 -58h1v39q0 10 10 10h130q10 0 10 -10v-478q0 -94 -49 -141.5
t-138 -47.5zM213 143q22 0 30 22q4 12 4 91t-4 91q-8 22 -30 22q-23 0 -31 -22q-4 -12 -4 -91t4 -91q8 -22 31 -22zM217 541q-65 0 -102 39t-39 99q0 11 13 11h60q10 0 14 -11q17 -42 54 -42t54 42q4 11 14 11h60q13 0 13 -11q-2 -60 -39 -99t-102 -39z" />
    <glyph glyph-name="Gdotaccent" unicode="&#x120;" horiz-adv-x="466" 
d="M299 750h-131q-10 0 -10 10v110q0 10 10 10h131q10 0 10 -10v-110q0 -10 -10 -10zM45 114q-15 46 -15 226t15 226q40 124 191 124q91 0 142 -48t57 -133q0 -10 -8 -12l-134 -21q-11 -2 -11 8q-4 64 -46 64q-29 0 -38 -26q-5 -16 -5 -182t5 -181q8 -27 41 -27q34 0 42 27
q5 14 5 91q0 6 -6 6h-31q-10 0 -10 10v103q0 10 10 10h179q10 0 10 -10v-29q0 -179 -15 -225q-41 -125 -187 -125q-151 0 -191 124z" />
    <glyph glyph-name="gdotaccent" unicode="&#x121;" horiz-adv-x="433" 
d="M211 -190q-71 0 -117.5 35.5t-52.5 91.5q0 10 6 11l120 26q8 3 11 -6q8 -31 35 -31q34 0 34 44v93h-1q-29 -58 -96 -58q-43 0 -68.5 18t-39.5 59q-15 47 -15 163t15 163q14 41 39.5 59t68.5 18q70 0 97 -58h1v39q0 10 10 10h130q10 0 10 -10v-478q0 -94 -49 -141.5
t-138 -47.5zM213 143q22 0 30 22q4 12 4 91t-4 91q-8 22 -30 22q-23 0 -31 -22q-4 -12 -4 -91t4 -91q8 -22 31 -22zM282 550h-131q-10 0 -10 10v110q0 10 10 10h131q10 0 10 -10v-110q0 -10 -10 -10z" />
    <glyph glyph-name="Gcommaaccent" unicode="&#x122;" horiz-adv-x="466" 
d="M182 -242q-11 0 -11 11v170q0 10 10 10h100q10 0 10 -10v-67q0 -14 -9 -24l-88 -84q-4 -6 -12 -6zM45 114q-15 46 -15 226t15 226q40 124 191 124q91 0 142 -48t57 -133q0 -10 -8 -12l-134 -21q-11 -2 -11 8q-4 64 -46 64q-29 0 -38 -26q-5 -16 -5 -182t5 -181
q8 -27 41 -27q34 0 42 27q5 14 5 91q0 6 -6 6h-31q-10 0 -10 10v103q0 10 10 10h179q10 0 10 -10v-29q0 -179 -15 -225q-41 -125 -187 -125q-151 0 -191 124z" />
    <glyph glyph-name="gcommaaccent" unicode="&#x123;" horiz-adv-x="433" 
d="M267 550h-100q-10 0 -10 10v67q0 14 10 24l87 84q6 6 13 6q10 0 10 -11v-170q0 -10 -10 -10zM211 -190q-71 0 -117.5 35.5t-52.5 91.5q0 10 6 11l120 26q8 3 11 -6q8 -31 35 -31q34 0 34 44v93h-1q-29 -58 -96 -58q-43 0 -68.5 18t-39.5 59q-15 47 -15 163t15 163
q14 41 39.5 59t68.5 18q70 0 97 -58h1v39q0 10 10 10h130q10 0 10 -10v-478q0 -94 -49 -141.5t-138 -47.5zM213 143q22 0 30 22q4 12 4 91t-4 91q-8 22 -30 22q-23 0 -31 -22q-4 -12 -4 -91t4 -91q8 -22 31 -22z" />
    <glyph glyph-name="Hcircumflex" unicode="&#x124;" horiz-adv-x="478" 
d="M37 10v660q0 10 10 10h139q10 0 10 -10v-246q0 -6 6 -6h74q6 0 6 6v246q0 10 10 10h139q10 0 10 -10v-660q0 -10 -10 -10h-139q-10 0 -10 10v261q0 6 -6 6h-74q-6 0 -6 -6v-261q0 -10 -10 -10h-139q-10 0 -10 10zM386 740h-80q-10 0 -19 10l-47 56h-2l-47 -56
q-9 -10 -19 -10h-81q-5 0 -6 3t2 7l94 137q7 10 17 10h82q10 0 17 -10l93 -137q3 -4 1.5 -7t-5.5 -3z" />
    <glyph glyph-name="hcircumflex" unicode="&#x125;" horiz-adv-x="435" 
d="M392 0h-131q-10 0 -10 10v311q0 45 -32 45q-33 0 -33 -45v-311q0 -10 -10 -10h-131q-10 0 -10 10v660q0 10 10 10h131q10 0 10 -10v-230h1q29 57 98 57q62 0 89.5 -36t27.5 -114v-337q0 -10 -10 -10zM260 740h-80q-10 0 -19 10l-47 56h-2l-47 -56q-9 -10 -19 -10h-81
q-5 0 -6 3t2 7l94 137q7 10 17 10h82q10 0 17 -10l93 -137q3 -4 1.5 -7t-5.5 -3z" />
    <glyph glyph-name="Hbar" unicode="&#x126;" horiz-adv-x="478" 
d="M431 0h-139q-10 0 -10 10v261q0 6 -6 6h-74q-6 0 -6 -6v-261q0 -10 -10 -10h-139q-10 0 -10 10v481q0 6 -6 6h-22q-10 0 -10 10v85q0 10 10 10h22q6 0 6 6v62q0 10 10 10h139q10 0 10 -10v-62q0 -6 6 -6h74q6 0 6 6v62q0 10 10 10h139q10 0 10 -10v-62q0 -6 6 -6h22
q10 0 10 -10v-85q0 -10 -10 -10h-22q-6 0 -6 -6v-481q0 -10 -10 -10zM276 418q6 0 6 6v67q0 6 -6 6h-74q-6 0 -6 -6v-67q0 -6 6 -6h74z" />
    <glyph glyph-name="hbar" unicode="&#x127;" horiz-adv-x="435" 
d="M392 0h-131q-10 0 -10 10v311q0 45 -32 45q-33 0 -33 -45v-311q0 -10 -10 -10h-131q-10 0 -10 10v526q0 6 -6 6h-18q-10 0 -10 10v70q0 10 10 10h18q6 0 6 6v32q0 10 10 10h131q10 0 10 -10v-32q0 -6 6 -6h93q10 0 10 -10v-70q0 -10 -10 -10h-93q-6 0 -6 -6v-96h1
q29 57 98 57q62 0 89.5 -36t27.5 -114v-337q0 -10 -10 -10z" />
    <glyph glyph-name="Itilde" unicode="&#x128;" horiz-adv-x="233" 
d="M37 10v660q0 10 10 10h139q10 0 10 -10v-660q0 -10 -10 -10h-139q-10 0 -10 10zM172 744q-26 0 -60 19q-28 18 -50 18q-31 0 -62 -31q-4 -4 -7.5 -3t-3.5 6v87q0 9 7 17q30 30 67 30q26 0 60 -19q28 -18 50 -18q31 0 62 31q4 4 7.5 3t3.5 -6v-87q0 -10 -7 -17
q-30 -30 -67 -30z" />
    <glyph glyph-name="itilde" unicode="&#x129;" horiz-adv-x="221" 
d="M176 0h-131q-10 0 -10 10v467q0 10 10 10h131q10 0 10 -10v-467q0 -10 -10 -10zM166 548q-24 0 -60 20q-28 18 -50 18q-31 0 -62 -31q-4 -4 -7.5 -3t-3.5 6v87q0 9 7 16q31 31 67 31q27 0 60 -20q29 -17 50 -17q31 0 62 31q4 4 7.5 3t3.5 -6v-87q0 -10 -7 -17
q-31 -31 -67 -31z" />
    <glyph glyph-name="Imacron" unicode="&#x12a;" horiz-adv-x="233" 
d="M37 10v660q0 10 10 10h139q10 0 10 -10v-660q0 -10 -10 -10h-139q-10 0 -10 10zM239 761h-244q-10 0 -10 10v89q0 10 10 10h244q10 0 10 -10v-89q0 -10 -10 -10z" />
    <glyph glyph-name="imacron" unicode="&#x12b;" horiz-adv-x="221" 
d="M176 0h-131q-10 0 -10 10v467q0 10 10 10h131q10 0 10 -10v-467q0 -10 -10 -10zM234 563h-244q-10 0 -10 10v89q0 10 10 10h244q10 0 10 -10v-89q0 -10 -10 -10z" />
    <glyph glyph-name="Ibreve" unicode="&#x12c;" horiz-adv-x="233" 
d="M37 10v660q0 10 10 10h139q10 0 10 -10v-660q0 -10 -10 -10h-139q-10 0 -10 10zM117 731q-65 0 -102 39t-39 99q0 11 13 11h60q9 0 14 -11q16 -42 54 -42t54 42q5 11 14 11h60q13 0 13 -11q-2 -60 -39 -99t-102 -39z" />
    <glyph glyph-name="ibreve" unicode="&#x12d;" horiz-adv-x="221" 
d="M176 0h-131q-10 0 -10 10v467q0 10 10 10h131q10 0 10 -10v-467q0 -10 -10 -10zM112 541q-65 0 -102 39t-39 99q0 11 13 11h60q10 0 14 -11q17 -42 54 -42t54 42q4 11 14 11h60q13 0 13 -11q-2 -60 -39 -99t-102 -39z" />
    <glyph glyph-name="Iogonek" unicode="&#x12e;" horiz-adv-x="233" 
d="M118 -192q-47 0 -74.5 24.5t-27.5 67.5q0 51 49 100h-18q-10 0 -10 10v660q0 10 10 10h139q10 0 10 -10v-660q0 -6 -4 -9q-68 -40 -68 -74q0 -21 19 -21q7 0 15 3q9 5 12 -5l25 -63q3 -8 -5 -13q-28 -20 -72 -20z" />
    <glyph glyph-name="iogonek" unicode="&#x12f;" horiz-adv-x="221" 
d="M176 550h-131q-10 0 -10 10v110q0 10 10 10h131q10 0 10 -10v-110q0 -10 -10 -10zM108 -192q-47 0 -74.5 24.5t-27.5 67.5q0 53 49 100h-10q-10 0 -10 10v467q0 10 10 10h131q10 0 10 -10v-467q0 -6 -5 -10q-67 -38 -67 -73q0 -21 19 -21q7 0 14 3q10 5 13 -5l25 -63
q3 -8 -5 -13q-28 -20 -72 -20z" />
    <glyph glyph-name="Idotaccent" unicode="&#x130;" horiz-adv-x="233" 
d="M37 10v660q0 10 10 10h139q10 0 10 -10v-660q0 -10 -10 -10h-139q-10 0 -10 10zM183 750h-131q-10 0 -10 10v110q0 10 10 10h131q10 0 10 -10v-110q0 -10 -10 -10z" />
    <glyph glyph-name="dotlessi" unicode="&#x131;" horiz-adv-x="221" 
d="M176 0h-131q-10 0 -10 10v467q0 10 10 10h131q10 0 10 -10v-467q0 -10 -10 -10z" />
    <glyph glyph-name="Jcircumflex" unicode="&#x134;" horiz-adv-x="386" 
d="M11 48q-7 6 1 14l84 85q8 8 17 0q17 -15 35 -15q42 0 42 51v487q0 10 10 10h139q10 0 10 -10v-472q0 -104 -51.5 -156t-146.5 -52q-92 0 -140 58zM416 740h-80q-10 0 -19 10l-47 56h-2l-47 -56q-9 -10 -19 -10h-81q-5 0 -6 3t2 7l94 137q7 10 17 10h82q10 0 17 -10
l93 -137q3 -4 1.5 -7t-5.5 -3z" />
    <glyph glyph-name="jcircumflex" unicode="&#x135;" horiz-adv-x="222" 
d="M1 -180h-21q-10 0 -10 10v111q0 10 10 10l14 1q22 2 31.5 14t9.5 43v468q0 10 10 10h131q10 0 10 -10v-463q0 -194 -185 -194zM259 545h-80q-10 0 -19 10l-47 56h-2l-47 -56q-9 -10 -19 -10h-81q-4 0 -5.5 3t1.5 7l94 136q7 10 17 10h82q10 0 17 -10l93 -136q3 -4 2 -7
t-6 -3z" />
    <glyph glyph-name="Kcommaaccent" unicode="&#x136;" horiz-adv-x="486" 
d="M207 -242q-11 0 -11 11v170q0 10 10 10h100q10 0 10 -10v-67q0 -14 -9 -24l-88 -84q-5 -6 -12 -6zM37 10v660q0 10 10 10h139q10 0 10 -10v-241l110 242q4 9 14 9h141q4 0 5.5 -3t-0.5 -7l-134 -262l146 -398q4 -10 -6 -10h-147q-8 0 -10 8l-85 254l-34 -74v-178
q0 -10 -10 -10h-139q-10 0 -10 10z" />
    <glyph glyph-name="kcommaaccent" unicode="&#x137;" horiz-adv-x="436" 
d="M170 -242q-11 0 -11 11v170q0 10 10 10h100q10 0 10 -10v-67q0 -14 -9 -24l-88 -84q-4 -6 -12 -6zM423 0h-136q-10 0 -15 11l-59 182l-27 -50v-133q0 -10 -10 -10h-131q-10 0 -10 10v660q0 10 10 10h131q10 0 10 -10v-339l80 147q4 9 14 9h135q4 0 5.5 -3t-0.5 -6
l-107 -165l116 -304q2 -3 0 -6t-6 -3z" />
    <glyph glyph-name="kgreenlandic" unicode="&#x138;" horiz-adv-x="436" 
d="M423 0h-136q-10 0 -15 11l-59 182l-27 -50v-133q0 -10 -10 -10h-131q-10 0 -10 10v467q0 10 10 10h131q10 0 10 -10v-146l80 147q4 9 14 9h135q4 0 5.5 -3t-0.5 -6l-107 -165l116 -304q2 -3 0 -6t-6 -3z" />
    <glyph glyph-name="Lacute" unicode="&#x139;" horiz-adv-x="398" 
d="M167 747h-95q-5 0 -7 3t1 7l88 122q7 10 16 10h121q5 0 6.5 -3t-1.5 -7l-110 -122q-10 -10 -19 -10zM37 10v660q0 10 10 10h139q10 0 10 -10v-522q0 -6 6 -6h166q10 0 10 -10v-122q0 -10 -10 -10h-321q-10 0 -10 10z" />
    <glyph glyph-name="lacute" unicode="&#x13a;" horiz-adv-x="259" 
d="M155 747h-95q-5 0 -7 3t1 7l88 122q7 10 16 10h121q5 0 6.5 -3t-1.5 -7l-110 -122q-10 -10 -19 -10zM231 -6h-21q-94 1 -134.5 40.5t-40.5 139.5v496q0 10 10 10h131q10 0 10 -10v-495q0 -47 39 -50l6 -1q10 0 10 -11v-109q0 -10 -10 -10z" />
    <glyph glyph-name="Lcommaaccent" unicode="&#x13b;" horiz-adv-x="398" 
d="M151 -242q-11 0 -11 11v170q0 10 10 10h100q10 0 10 -10v-67q0 -14 -9 -24l-88 -84q-5 -6 -12 -6zM37 10v660q0 10 10 10h139q10 0 10 -10v-522q0 -6 6 -6h166q10 0 10 -10v-122q0 -10 -10 -10h-321q-10 0 -10 10z" />
    <glyph glyph-name="lcommaaccent" unicode="&#x13c;" horiz-adv-x="259" 
d="M94 -242q-11 0 -11 11v170q0 10 10 10h100q10 0 10 -10v-67q0 -14 -9 -24l-88 -84q-4 -6 -12 -6zM231 -6h-21q-94 1 -134.5 40.5t-40.5 139.5v496q0 10 10 10h131q10 0 10 -10v-495q0 -47 39 -50l6 -1q10 0 10 -11v-109q0 -10 -10 -10z" />
    <glyph glyph-name="Lcaron" unicode="&#x13d;" horiz-adv-x="398" 
d="M243 475q-10 0 -10 10v185q0 10 10 10h93q10 0 10 -10v-84q0 -14 -9 -24l-82 -81q-5 -6 -12 -6zM37 10v660q0 10 10 10h139q10 0 10 -10v-522q0 -6 6 -6h166q10 0 10 -10v-122q0 -10 -10 -10h-321q-10 0 -10 10z" />
    <glyph glyph-name="lcaron" unicode="&#x13e;" horiz-adv-x="259" 
d="M235 475q-10 0 -10 10v185q0 10 10 10h93q10 0 10 -10v-84q0 -14 -9 -24l-82 -81q-5 -6 -12 -6zM231 -6h-21q-94 1 -134.5 40.5t-40.5 139.5v496q0 10 10 10h131q10 0 10 -10v-495q0 -47 39 -50l6 -1q10 0 10 -11v-109q0 -10 -10 -10z" />
    <glyph glyph-name="Ldot" unicode="&#x13f;" horiz-adv-x="398" 
d="M37 10v660q0 10 10 10h139q10 0 10 -10v-522q0 -6 6 -6h166q10 0 10 -10v-122q0 -10 -10 -10h-321q-10 0 -10 10zM377 230h-121q-10 0 -10 10v135q0 10 10 10h121q10 0 10 -10v-135q0 -10 -10 -10z" />
    <glyph glyph-name="ldot" unicode="&#x140;" horiz-adv-x="367" 
d="M231 -6h-21q-94 1 -134.5 40.5t-40.5 139.5v496q0 10 10 10h131q10 0 10 -10v-495q0 -47 39 -50l6 -1q10 0 10 -11v-109q0 -10 -10 -10zM354 237h-121q-10 0 -10 10v135q0 10 10 10h121q10 0 10 -10v-135q0 -10 -10 -10z" />
    <glyph glyph-name="Lslash" unicode="&#x141;" horiz-adv-x="398" 
d="M279 386l-83 -57v-181q0 -6 6 -6h166q10 0 10 -10v-122q0 -10 -10 -10h-321q-10 0 -10 10v217l-24 -16q-4 -2 -7 -0.5t-3 5.5v111q0 9 10 16l24 16v311q0 10 10 10h139q10 0 10 -10v-208l83 57q4 2 7 0.5t3 -5.5v-112q0 -9 -10 -16z" />
    <glyph glyph-name="lslash" unicode="&#x142;" horiz-adv-x="258" 
d="M230 390l-44 -31v-184q0 -47 39 -50l6 -1q10 0 10 -11v-109q0 -10 -10 -10h-21q-94 1 -134.5 40.5t-40.5 139.5v89l-21 -14q-4 -2 -7 -0.5t-3 5.5v104q0 9 10 16l21 14v282q0 10 10 10h131q10 0 10 -10v-186l44 31q4 2 7 0.5t3 -5.5v-104q0 -9 -10 -16z" />
    <glyph glyph-name="Nacute" unicode="&#x143;" horiz-adv-x="491" 
d="M276 747h-95q-5 0 -7 3t1 7l88 122q7 10 16 10h121q5 0 6.5 -3t-1.5 -7l-110 -122q-10 -10 -19 -10zM37 10v660q0 10 10 10h145q11 0 14 -10l105 -379h5v379q0 10 10 10h118q10 0 10 -10v-660q0 -10 -10 -10h-142q-11 0 -14 10l-107 379h-6v-379q0 -10 -10 -10h-118
q-10 0 -10 10z" />
    <glyph glyph-name="nacute" unicode="&#x144;" horiz-adv-x="435" 
d="M241 546h-96q-11 0 -6 10l75 136q6 10 16 10h121q5 0 6.5 -3t-1.5 -7l-97 -136q-7 -10 -18 -10zM392 0h-131q-10 0 -10 10v311q0 45 -32 45q-33 0 -33 -45v-311q0 -10 -10 -10h-131q-10 0 -10 10v467q0 10 10 10h130q10 0 10 -10v-37h1q29 57 99 57q62 0 89.5 -36
t27.5 -114v-337q0 -10 -10 -10z" />
    <glyph glyph-name="Ncommaaccent" unicode="&#x145;" horiz-adv-x="491" 
d="M212 -242q-11 0 -11 11v170q0 10 10 10h100q10 0 10 -10v-67q0 -14 -9 -24l-88 -84q-4 -6 -12 -6zM37 10v660q0 10 10 10h145q11 0 14 -10l105 -379h5v379q0 10 10 10h118q10 0 10 -10v-660q0 -10 -10 -10h-142q-11 0 -14 10l-107 379h-6v-379q0 -10 -10 -10h-118
q-10 0 -10 10z" />
    <glyph glyph-name="ncommaaccent" unicode="&#x146;" horiz-adv-x="435" 
d="M169 -242q-11 0 -11 11v170q0 10 10 10h100q10 0 10 -10v-67q0 -14 -9 -24l-88 -84q-5 -6 -12 -6zM392 0h-131q-10 0 -10 10v311q0 45 -32 45q-33 0 -33 -45v-311q0 -10 -10 -10h-131q-10 0 -10 10v467q0 10 10 10h130q10 0 10 -10v-37h1q29 57 99 57q62 0 89.5 -36
t27.5 -114v-337q0 -10 -10 -10z" />
    <glyph glyph-name="Ncaron" unicode="&#x147;" horiz-adv-x="491" 
d="M286 734h-82q-10 0 -17 10l-94 137q-3 4 -2 7t6 3h81q10 0 19 -10l47 -56h2l47 56q9 10 19 10h80q4 0 5.5 -3t-1.5 -7l-93 -137q-7 -10 -17 -10zM37 10v660q0 10 10 10h145q11 0 14 -10l105 -379h5v379q0 10 10 10h118q10 0 10 -10v-660q0 -10 -10 -10h-142q-11 0 -14 10
l-107 379h-6v-379q0 -10 -10 -10h-118q-10 0 -10 10z" />
    <glyph glyph-name="ncaron" unicode="&#x148;" horiz-adv-x="435" 
d="M259 542h-82q-10 0 -17 10l-94 137q-3 4 -1.5 7t5.5 3h81q10 0 19 -10l47 -56h2l47 56q9 10 19 10h80q5 0 6 -3t-2 -7l-93 -137q-7 -10 -17 -10zM392 0h-131q-10 0 -10 10v311q0 45 -32 45q-33 0 -33 -45v-311q0 -10 -10 -10h-131q-10 0 -10 10v467q0 10 10 10h130
q10 0 10 -10v-37h1q29 57 99 57q62 0 89.5 -36t27.5 -114v-337q0 -10 -10 -10z" />
    <glyph glyph-name="Eng" unicode="&#x14a;" horiz-adv-x="491" 
d="M261 -180h-20q-10 0 -10 10v120q0 10 10 10l13 1q42 3 42 38v1l-115 389h-6v-379q0 -10 -10 -10h-118q-10 0 -10 10v660q0 10 10 10h143q13 0 16 -10l105 -375h5v375q0 10 10 10h118q10 0 10 -10v-652q0 -104 -48 -151t-145 -47z" />
    <glyph glyph-name="eng" unicode="&#x14b;" horiz-adv-x="435" 
d="M223 -180h-13q-10 0 -10 10v110q0 10 10 10h6q18 1 26.5 11t8.5 36v324q0 45 -32 45q-33 0 -33 -45v-311q0 -10 -10 -10h-131q-10 0 -10 10v467q0 10 10 10h130q10 0 10 -10v-37h1q29 57 99 57q62 0 89.5 -36t27.5 -114v-333q0 -99 -43.5 -146.5t-135.5 -47.5z" />
    <glyph glyph-name="Omacron" unicode="&#x14c;" horiz-adv-x="471" 
d="M357 761h-244q-10 0 -10 10v89q0 10 10 10h244q10 0 10 -10v-89q0 -10 -10 -10zM235 -10q-148 0 -189 125q-16 49 -16 225t16 225q41 125 189 125q149 0 190 -125q16 -49 16 -225t-16 -225q-41 -125 -190 -125zM235 132q30 0 38 25q5 16 5 183t-5 183q-8 25 -38 25
q-29 0 -37 -25q-5 -16 -5 -183t5 -183q8 -25 37 -25z" />
    <glyph glyph-name="omacron" unicode="&#x14d;" horiz-adv-x="418" 
d="M332 563h-244q-10 0 -10 10v89q0 10 10 10h244q10 0 10 -10v-89q0 -10 -10 -10zM209 -10q-136 0 -172 114q-13 42 -13 139q0 98 13 140q36 114 172 114q134 0 172 -114q13 -42 13 -140q0 -97 -13 -139q-38 -114 -172 -114zM209 118q24 0 30 22q4 11 4 103q0 93 -4 104
q-6 22 -30 22t-30 -22q-4 -11 -4 -104q0 -92 4 -103q6 -22 30 -22z" />
    <glyph glyph-name="Obreve" unicode="&#x14e;" horiz-adv-x="471" 
d="M235 731q-65 0 -102 39t-39 99q0 11 13 11h60q9 0 14 -11q16 -42 54 -42t54 42q5 11 14 11h60q13 0 13 -11q-2 -60 -39 -99t-102 -39zM235 -10q-148 0 -189 125q-16 49 -16 225t16 225q41 125 189 125q149 0 190 -125q16 -49 16 -225t-16 -225q-41 -125 -190 -125z
M235 132q30 0 38 25q5 16 5 183t-5 183q-8 25 -38 25q-29 0 -37 -25q-5 -16 -5 -183t5 -183q8 -25 37 -25z" />
    <glyph glyph-name="obreve" unicode="&#x14f;" horiz-adv-x="418" 
d="M209 -10q-136 0 -172 114q-13 42 -13 139q0 98 13 140q36 114 172 114q134 0 172 -114q13 -42 13 -140q0 -97 -13 -139q-38 -114 -172 -114zM209 118q24 0 30 22q4 11 4 103q0 93 -4 104q-6 22 -30 22t-30 -22q-4 -11 -4 -104q0 -92 4 -103q6 -22 30 -22zM210 541
q-65 0 -102 39t-39 99q0 11 13 11h60q10 0 14 -11q17 -42 54 -42t54 42q4 11 14 11h60q13 0 13 -11q-2 -60 -39 -99t-102 -39z" />
    <glyph glyph-name="Ohungarumlaut" unicode="&#x150;" horiz-adv-x="471" 
d="M235 -10q-148 0 -189 125q-16 49 -16 225t16 225q41 125 189 125q149 0 190 -125q16 -49 16 -225t-16 -225q-41 -125 -190 -125zM235 132q30 0 38 25q5 16 5 183t-5 183q-8 25 -38 25q-29 0 -37 -25q-5 -16 -5 -183t5 -183q8 -25 37 -25zM347 747h-80q-11 0 -6 10l72 119
q7 10 16 10h99q4 0 5.5 -3t-1.5 -7l-86 -119q-9 -10 -19 -10zM192 747h-81q-12 0 -5 10l71 119q7 10 16 10h99q11 0 5 -10l-87 -119q-7 -10 -18 -10z" />
    <glyph glyph-name="ohungarumlaut" unicode="&#x151;" horiz-adv-x="418" 
d="M319 543h-81q-11 0 -6 10l65 137q4 10 16 10h99q11 0 5 -10l-80 -137q-7 -10 -18 -10zM163 543h-80q-11 0 -6 10l65 137q4 10 16 10h99q11 0 5 -10l-81 -137q-7 -10 -18 -10zM209 -10q-136 0 -172 114q-13 42 -13 139q0 98 13 140q36 114 172 114q134 0 172 -114
q13 -42 13 -140q0 -97 -13 -139q-38 -114 -172 -114zM209 118q24 0 30 22q4 11 4 103q0 93 -4 104q-6 22 -30 22t-30 -22q-4 -11 -4 -104q0 -92 4 -103q6 -22 30 -22z" />
    <glyph glyph-name="OE" unicode="&#x152;" horiz-adv-x="642" 
d="M606 0h-317q-10 0 -10 10v14h-1q-23 -34 -89 -34q-110 0 -144 108q-15 45 -15 242t15 242q34 108 144 108q66 0 89 -34h1v14q0 10 10 10h317q10 0 10 -10v-122q0 -10 -10 -10h-163q-6 0 -6 -6v-112q0 -6 6 -6h140q10 0 10 -10v-122q0 -10 -10 -10h-140q-6 0 -6 -6v-118
q0 -6 6 -6h163q10 0 10 -10v-122q0 -10 -10 -10zM235 132q30 0 38 25q5 16 5 183t-5 183q-8 25 -38 25q-29 0 -37 -25q-5 -16 -5 -183t5 -183q8 -25 37 -25z" />
    <glyph glyph-name="oe" unicode="&#x153;" horiz-adv-x="627" 
d="M423 -10q-67 0 -105 35h-2q-45 -35 -107 -35q-136 0 -172 114q-13 42 -13 139q0 98 13 140q36 114 171 114q67 0 108 -35h2q41 35 107 35q130 0 166 -111q13 -40 13 -178q0 -10 -10 -10h-195q-6 0 -6 -6q0 -45 4 -56q6 -21 30 -21q28 0 37 31q3 9 12 8l115 -23
q9 -1 7 -12q-12 -62 -58.5 -95.5t-116.5 -33.5zM456 293q6 0 6 6q0 45 -4 61q-6 21 -31 21q-24 0 -30 -21q-4 -11 -4 -61q0 -6 6 -6h57zM209 118q24 0 30 22q4 11 4 103q0 93 -4 104q-6 22 -30 22t-30 -22q-4 -11 -4 -104q0 -92 4 -103q6 -22 30 -22z" />
    <glyph glyph-name="Racute" unicode="&#x154;" horiz-adv-x="473" 
d="M455 0h-148q-10 0 -13 9l-69 245h-23q-6 0 -6 -6v-238q0 -10 -10 -10h-139q-10 0 -10 10v660q0 10 10 10h191q96 0 150 -52.5t54 -162.5q0 -117 -71 -172l89 -283q4 -10 -5 -10zM225 385q31 0 44.5 17.5t13.5 62.5t-13.5 63t-44.5 18h-23q-6 0 -6 -6v-149q0 -6 6 -6h23z
M245 747h-95q-5 0 -7 3t1 7l88 122q7 10 16 10h121q5 0 6.5 -3t-1.5 -7l-110 -122q-10 -10 -19 -10z" />
    <glyph glyph-name="racute" unicode="&#x155;" horiz-adv-x="334" 
d="M213 546h-96q-11 0 -6 10l75 136q6 10 16 10h121q5 0 6.5 -3t-1.5 -7l-97 -136q-7 -10 -18 -10zM176 0h-131q-10 0 -10 10v467q0 10 10 10h131q10 0 10 -10v-43h1q30 63 118 63q8 0 11 -1q10 0 8 -9l-22 -131q-1 -7 -10 -6q-5 1 -20 1q-86 0 -86 -107v-234q0 -10 -10 -10
z" />
    <glyph glyph-name="Rcommaaccent" unicode="&#x156;" horiz-adv-x="473" 
d="M187 -242q-11 0 -11 11v170q0 10 10 10h100q10 0 10 -10v-67q0 -14 -9 -24l-88 -84q-5 -6 -12 -6zM455 0h-148q-10 0 -13 9l-69 245h-23q-6 0 -6 -6v-238q0 -10 -10 -10h-139q-10 0 -10 10v660q0 10 10 10h191q96 0 150 -52.5t54 -162.5q0 -117 -71 -172l89 -283
q4 -10 -5 -10zM225 385q31 0 44.5 17.5t13.5 62.5t-13.5 63t-44.5 18h-23q-6 0 -6 -6v-149q0 -6 6 -6h23z" />
    <glyph glyph-name="rcommaaccent" unicode="&#x157;" horiz-adv-x="334" 
d="M64 -242q-11 0 -11 11v170q0 10 10 10h100q10 0 10 -10v-67q0 -14 -9 -24l-88 -84q-4 -6 -12 -6zM176 0h-131q-10 0 -10 10v467q0 10 10 10h131q10 0 10 -10v-43h1q30 63 118 63q8 0 11 -1q10 0 8 -9l-22 -131q-1 -7 -10 -6q-5 1 -20 1q-86 0 -86 -107v-234
q0 -10 -10 -10z" />
    <glyph glyph-name="Rcaron" unicode="&#x158;" horiz-adv-x="473" 
d="M255 734h-82q-10 0 -17 10l-94 137q-3 4 -1.5 7t5.5 3h81q10 0 19 -10l47 -56h2l47 56q9 10 19 10h80q5 0 6 -3t-2 -7l-93 -137q-7 -10 -17 -10zM455 0h-148q-10 0 -13 9l-69 245h-23q-6 0 -6 -6v-238q0 -10 -10 -10h-139q-10 0 -10 10v660q0 10 10 10h191
q96 0 150 -52.5t54 -162.5q0 -117 -71 -172l89 -283q4 -10 -5 -10zM225 385q31 0 44.5 17.5t13.5 62.5t-13.5 63t-44.5 18h-23q-6 0 -6 -6v-149q0 -6 6 -6h23z" />
    <glyph glyph-name="rcaron" unicode="&#x159;" horiz-adv-x="334" 
d="M216 542h-82q-10 0 -17 10l-94 137q-3 4 -2 7t6 3h81q10 0 19 -10l47 -56h2l47 56q9 10 19 10h80q4 0 5.5 -3t-1.5 -7l-93 -137q-7 -10 -17 -10zM176 0h-131q-10 0 -10 10v467q0 10 10 10h131q10 0 10 -10v-43h1q30 63 118 63q8 0 11 -1q10 0 8 -9l-22 -131q-1 -7 -10 -6
q-5 1 -20 1q-86 0 -86 -107v-234q0 -10 -10 -10z" />
    <glyph glyph-name="Sacute" unicode="&#x15a;" horiz-adv-x="445" 
d="M425 210q0 -111 -50 -165.5t-155 -54.5q-100 0 -149 49.5t-50 137.5q0 11 8 12l132 21q11 2 11 -9q1 -74 48 -74q23 0 33.5 14.5t10.5 48.5q0 35 -12 51t-49 30l-41 16q-73 29 -104 75t-31 129q0 199 194 199q93 0 143 -46t53 -128q0 -10 -9 -11l-126 -19q-11 -2 -11 8
q-1 59 -44 59q-41 0 -41 -51q0 -29 12 -43t51 -30l41 -16q73 -28 104 -73.5t31 -129.5zM257 747h-95q-5 0 -7 3t1 7l88 122q7 10 16 10h121q5 0 6.5 -3t-1.5 -7l-110 -122q-10 -10 -19 -10z" />
    <glyph glyph-name="sacute" unicode="&#x15b;" horiz-adv-x="380" 
d="M224 546h-96q-11 0 -6 10l75 136q6 10 16 10h121q5 0 6.5 -3t-1.5 -7l-97 -136q-8 -10 -18 -10zM190 -10q-79 0 -124 35t-50 97q-2 9 8 11l113 19q10 2 12 -8q6 -42 40 -42q16 0 25.5 9.5t9.5 25.5q0 28 -38 40l-39 13q-64 22 -93.5 58.5t-29.5 94.5q0 71 44 112.5
t124 41.5q73 0 115.5 -33.5t47.5 -87.5q1 -10 -6 -12l-107 -18q-8 -2 -10 6q-7 33 -36 33q-31 0 -31 -30q0 -23 38 -36l39 -13q69 -23 96 -58.5t27 -96.5q0 -76 -46 -118.5t-129 -42.5z" />
    <glyph glyph-name="Scircumflex" unicode="&#x15c;" horiz-adv-x="445" 
d="M425 210q0 -111 -50 -165.5t-155 -54.5q-100 0 -149 49.5t-50 137.5q0 11 8 12l132 21q11 2 11 -9q1 -74 48 -74q23 0 33.5 14.5t10.5 48.5q0 35 -12 51t-49 30l-41 16q-73 29 -104 75t-31 129q0 199 194 199q93 0 143 -46t53 -128q0 -10 -9 -11l-126 -19q-11 -2 -11 8
q-1 59 -44 59q-41 0 -41 -51q0 -29 12 -43t51 -30l41 -16q73 -28 104 -73.5t31 -129.5zM369 740h-80q-10 0 -19 10l-47 56h-2l-47 -56q-9 -10 -19 -10h-81q-4 0 -5.5 3t1.5 7l94 137q7 10 17 10h82q10 0 17 -10l93 -137q3 -4 2 -7t-6 -3z" />
    <glyph glyph-name="scircumflex" unicode="&#x15d;" horiz-adv-x="380" 
d="M338 545h-80q-10 0 -19 10l-47 56h-2l-47 -56q-9 -10 -19 -10h-81q-5 0 -6 3t2 7l94 136q7 10 17 10h82q10 0 17 -10l93 -136q3 -4 1.5 -7t-5.5 -3zM190 -10q-79 0 -124 35t-50 97q-2 9 8 11l113 19q10 2 12 -8q6 -42 40 -42q16 0 25.5 9.5t9.5 25.5q0 28 -38 40l-39 13
q-64 22 -93.5 58.5t-29.5 94.5q0 71 44 112.5t124 41.5q73 0 115.5 -33.5t47.5 -87.5q1 -10 -6 -12l-107 -18q-8 -2 -10 6q-7 33 -36 33q-31 0 -31 -30q0 -23 38 -36l39 -13q69 -23 96 -58.5t27 -96.5q0 -76 -46 -118.5t-129 -42.5z" />
    <glyph glyph-name="Scedilla" unicode="&#x15e;" horiz-adv-x="445" 
d="M107 -155l65 149q-149 22 -151 183q0 11 8 12l132 21q11 2 11 -9q1 -74 48 -74q23 0 33.5 14.5t10.5 48.5q0 35 -12 51t-49 30l-41 16q-73 29 -104 75t-31 129q0 199 194 199q93 0 143 -46t53 -128q0 -10 -9 -11l-126 -19q-11 -2 -11 8q-1 59 -44 59q-41 0 -41 -51
q0 -29 12 -43t51 -30l41 -16q73 -28 104 -73.5t31 -129.5q0 -182 -137 -213l-55 -152q-4 -10 -15 -10h-104q-10 0 -7 10z" />
    <glyph glyph-name="scedilla" unicode="&#x15f;" horiz-adv-x="380" 
d="M73 -155l65 150q-114 20 -122 127q-2 9 8 11l113 19q10 2 12 -8q6 -42 40 -42q16 0 25.5 9.5t9.5 25.5q0 28 -38 40l-39 13q-64 22 -93.5 58.5t-29.5 94.5q0 71 44 112.5t124 41.5q73 0 115.5 -33.5t47.5 -87.5q1 -10 -6 -12l-107 -18q-8 -2 -10 6q-7 33 -36 33
q-31 0 -31 -30q0 -23 38 -36l39 -13q69 -23 96 -58.5t27 -96.5q0 -123 -111 -153l-55 -153q-4 -10 -15 -10h-104q-10 0 -7 10z" />
    <glyph glyph-name="Scaron" unicode="&#x160;" horiz-adv-x="445" 
d="M425 210q0 -111 -50 -165.5t-155 -54.5q-100 0 -149 49.5t-50 137.5q0 11 8 12l132 21q11 2 11 -9q1 -74 48 -74q23 0 33.5 14.5t10.5 48.5q0 35 -12 51t-49 30l-41 16q-73 29 -104 75t-31 129q0 199 194 199q93 0 143 -46t53 -128q0 -10 -9 -11l-126 -19q-11 -2 -11 8
q-1 59 -44 59q-41 0 -41 -51q0 -29 12 -43t51 -30l41 -16q73 -28 104 -73.5t31 -129.5zM260 734h-82q-10 0 -17 10l-94 137q-3 4 -2 7t6 3h81q10 0 19 -10l47 -56h2l47 56q9 10 19 10h80q4 0 5.5 -3t-1.5 -7l-93 -137q-7 -10 -17 -10z" />
    <glyph glyph-name="scaron" unicode="&#x161;" horiz-adv-x="380" 
d="M232 542h-82q-10 0 -17 10l-94 137q-3 4 -2 7t6 3h81q10 0 19 -10l47 -56h2l47 56q9 10 19 10h80q4 0 5.5 -3t-1.5 -7l-93 -137q-7 -10 -17 -10zM190 -10q-79 0 -124 35t-50 97q-2 9 8 11l113 19q10 2 12 -8q6 -42 40 -42q16 0 25.5 9.5t9.5 25.5q0 28 -38 40l-39 13
q-64 22 -93.5 58.5t-29.5 94.5q0 71 44 112.5t124 41.5q73 0 115.5 -33.5t47.5 -87.5q1 -10 -6 -12l-107 -18q-8 -2 -10 6q-7 33 -36 33q-31 0 -31 -30q0 -23 38 -36l39 -13q69 -23 96 -58.5t27 -96.5q0 -76 -46 -118.5t-129 -42.5z" />
    <glyph glyph-name="Tcommaaccent" unicode="&#x162;" horiz-adv-x="440" 
d="M172 -242q-11 0 -11 11v170q0 10 10 10h100q10 0 10 -10v-67q0 -14 -9 -24l-88 -84q-4 -6 -12 -6zM289 0h-139q-10 0 -10 10v522q0 6 -6 6h-112q-10 0 -10 10v122q0 10 10 10h395q10 0 10 -10v-122q0 -10 -10 -10h-112q-6 0 -6 -6v-522q0 -10 -10 -10z" />
    <glyph glyph-name="tcommaaccent" unicode="&#x163;" horiz-adv-x="298" 
d="M124 -242q-11 0 -11 11v170q0 10 10 10h100q10 0 10 -10v-67q0 -14 -9 -24l-88 -84q-4 -6 -12 -6zM268 -6h-38q-90 0 -129 35t-39 132v209q0 6 -6 6h-32q-10 0 -10 10v91q0 10 10 10h32q6 0 6 6v127q0 10 10 10h131q10 0 10 -10v-127q0 -6 6 -6h49q10 0 10 -10v-91
q0 -10 -10 -10h-49q-6 0 -6 -6v-201q0 -24 9.5 -34t30.5 -10h15q10 0 10 -10v-111q0 -10 -10 -10z" />
    <glyph glyph-name="Tcaron" unicode="&#x164;" horiz-adv-x="440" 
d="M262 734h-82q-10 0 -17 10l-94 137q-3 4 -2 7t6 3h81q10 0 19 -10l47 -56h2l47 56q9 10 19 10h80q4 0 5.5 -3t-1.5 -7l-93 -137q-7 -10 -17 -10zM289 0h-139q-10 0 -10 10v522q0 6 -6 6h-112q-10 0 -10 10v122q0 10 10 10h395q10 0 10 -10v-122q0 -10 -10 -10h-112
q-6 0 -6 -6v-522q0 -10 -10 -10z" />
    <glyph glyph-name="tcaron" unicode="&#x165;" horiz-adv-x="298" 
d="M304 475q-10 0 -10 10v185q0 10 10 10h93q10 0 10 -10v-84q0 -14 -9 -24l-82 -81q-4 -6 -12 -6zM268 -6h-38q-90 0 -129 35t-39 132v209q0 6 -6 6h-32q-10 0 -10 10v91q0 10 10 10h32q6 0 6 6v127q0 10 10 10h131q10 0 10 -10v-127q0 -6 6 -6h49q10 0 10 -10v-91
q0 -10 -10 -10h-49q-6 0 -6 -6v-201q0 -24 9.5 -34t30.5 -10h15q10 0 10 -10v-111q0 -10 -10 -10z" />
    <glyph glyph-name="Tbar" unicode="&#x166;" horiz-adv-x="440" 
d="M289 0h-139q-10 0 -10 10v290q0 6 -6 6h-59q-10 0 -10 10v94q0 10 10 10h59q6 0 6 6v106q0 6 -6 6h-112q-10 0 -10 10v122q0 10 10 10h395q10 0 10 -10v-122q0 -10 -10 -10h-112q-6 0 -6 -6v-106q0 -6 6 -6h59q10 0 10 -10v-94q0 -10 -10 -10h-59q-6 0 -6 -6v-290
q0 -10 -10 -10z" />
    <glyph glyph-name="tbar" unicode="&#x167;" horiz-adv-x="298" 
d="M268 -6h-38q-90 0 -129 35t-39 132v66q0 6 -6 6h-25q-10 0 -10 10v69q0 10 10 10h25q6 0 6 6v42q0 6 -6 6h-32q-10 0 -10 10v91q0 10 10 10h32q6 0 6 6v127q0 10 10 10h131q10 0 10 -10v-127q0 -6 6 -6h49q10 0 10 -10v-91q0 -10 -10 -10h-49q-6 0 -6 -6v-42q0 -6 6 -6
h38q10 0 10 -10v-69q0 -10 -10 -10h-38q-6 0 -6 -6v-58q0 -24 9.5 -34t30.5 -10h15q10 0 10 -10v-111q0 -10 -10 -10z" />
    <glyph glyph-name="Utilde" unicode="&#x168;" horiz-adv-x="472" 
d="M290 744q-26 0 -60 19q-28 18 -50 18q-31 0 -62 -31q-4 -4 -7.5 -3t-3.5 6v87q0 9 7 17q30 30 67 30q26 0 60 -19q28 -18 50 -18q31 0 62 31q4 4 7.5 3t3.5 -6v-87q0 -10 -7 -17q-30 -30 -67 -30zM236 -10q-93 0 -146.5 53t-53.5 154v473q0 10 10 10h139q10 0 10 -10
v-491q0 -47 41 -47t41 47v491q0 10 10 10h139q10 0 10 -10v-473q0 -101 -53.5 -154t-146.5 -53z" />
    <glyph glyph-name="utilde" unicode="&#x169;" horiz-adv-x="434" 
d="M389 0h-130q-10 0 -10 10v37h-1q-29 -57 -99 -57q-60 0 -88 36t-28 114v337q0 10 10 10h131q10 0 10 -10v-312q0 -44 32 -44t32 44v312q0 10 10 10h131q10 0 10 -10v-467q0 -10 -10 -10zM272 548q-24 0 -60 20q-28 18 -50 18q-31 0 -62 -31q-4 -4 -7.5 -3t-3.5 6v87
q0 9 7 16q31 31 67 31q27 0 60 -20q29 -17 50 -17q31 0 62 31q4 4 7.5 3t3.5 -6v-87q0 -10 -7 -17q-31 -31 -67 -31z" />
    <glyph glyph-name="Umacron" unicode="&#x16a;" horiz-adv-x="472" 
d="M358 761h-244q-10 0 -10 10v89q0 10 10 10h244q10 0 10 -10v-89q0 -10 -10 -10zM236 -10q-93 0 -146.5 53t-53.5 154v473q0 10 10 10h139q10 0 10 -10v-491q0 -47 41 -47t41 47v491q0 10 10 10h139q10 0 10 -10v-473q0 -101 -53.5 -154t-146.5 -53z" />
    <glyph glyph-name="umacron" unicode="&#x16b;" horiz-adv-x="434" 
d="M389 0h-130q-10 0 -10 10v37h-1q-29 -57 -99 -57q-60 0 -88 36t-28 114v337q0 10 10 10h131q10 0 10 -10v-312q0 -44 32 -44t32 44v312q0 10 10 10h131q10 0 10 -10v-467q0 -10 -10 -10zM340 563h-244q-10 0 -10 10v89q0 10 10 10h244q10 0 10 -10v-89q0 -10 -10 -10z
" />
    <glyph glyph-name="Ubreve" unicode="&#x16c;" horiz-adv-x="472" 
d="M236 731q-65 0 -102 39t-39 99q0 11 13 11h60q9 0 14 -11q16 -42 54 -42t54 42q5 11 14 11h60q13 0 13 -11q-2 -60 -39 -99t-102 -39zM236 -10q-93 0 -146.5 53t-53.5 154v473q0 10 10 10h139q10 0 10 -10v-491q0 -47 41 -47t41 47v491q0 10 10 10h139q10 0 10 -10v-473
q0 -101 -53.5 -154t-146.5 -53z" />
    <glyph glyph-name="ubreve" unicode="&#x16d;" horiz-adv-x="434" 
d="M389 0h-130q-10 0 -10 10v37h-1q-29 -57 -99 -57q-60 0 -88 36t-28 114v337q0 10 10 10h131q10 0 10 -10v-312q0 -44 32 -44t32 44v312q0 10 10 10h131q10 0 10 -10v-467q0 -10 -10 -10zM218 541q-65 0 -102 39t-39 99q0 11 13 11h60q10 0 14 -11q17 -42 54 -42t54 42
q4 11 14 11h60q13 0 13 -11q-2 -60 -39 -99t-102 -39z" />
    <glyph glyph-name="Uring" unicode="&#x16e;" horiz-adv-x="472" 
d="M236 -10q-93 0 -146.5 53t-53.5 154v473q0 10 10 10h139q10 0 10 -10v-491q0 -47 41 -47t41 47v491q0 10 10 10h139q10 0 10 -10v-473q0 -101 -53.5 -154t-146.5 -53zM236 709q-44 0 -73.5 29t-29.5 72q0 44 29.5 73t73.5 29t73.5 -29t29.5 -73q0 -43 -29.5 -72
t-73.5 -29zM236 767q17 0 29 12t12 31t-12 31.5t-29 12.5q-18 0 -29.5 -12.5t-11.5 -31.5t11.5 -31t29.5 -12z" />
    <glyph glyph-name="uring" unicode="&#x16f;" horiz-adv-x="434" 
d="M218 528q-44 0 -73.5 28.5t-29.5 72.5t29.5 72.5t73.5 28.5t73.5 -28.5t29.5 -72.5t-29.5 -72.5t-73.5 -28.5zM218 586q17 0 29 12t12 31t-12 31t-29 12q-18 0 -29.5 -12t-11.5 -31t11.5 -31t29.5 -12zM389 0h-130q-10 0 -10 10v37h-1q-29 -57 -99 -57q-60 0 -88 36
t-28 114v337q0 10 10 10h131q10 0 10 -10v-312q0 -44 32 -44t32 44v312q0 10 10 10h131q10 0 10 -10v-467q0 -10 -10 -10z" />
    <glyph glyph-name="Uhungarumlaut" unicode="&#x170;" horiz-adv-x="472" 
d="M236 -10q-93 0 -146.5 53t-53.5 154v473q0 10 10 10h139q10 0 10 -10v-491q0 -47 41 -47t41 47v491q0 10 10 10h139q10 0 10 -10v-473q0 -101 -53.5 -154t-146.5 -53zM354 747h-80q-11 0 -6 10l72 119q7 10 16 10h99q5 0 6 -3t-2 -7l-86 -119q-9 -10 -19 -10zM199 747
h-81q-12 0 -5 10l71 119q7 10 16 10h99q11 0 5 -10l-87 -119q-7 -10 -18 -10z" />
    <glyph glyph-name="uhungarumlaut" unicode="&#x171;" horiz-adv-x="434" 
d="M389 0h-130q-10 0 -10 10v37h-1q-29 -57 -99 -57q-60 0 -88 36t-28 114v337q0 10 10 10h131q10 0 10 -10v-312q0 -44 32 -44t32 44v312q0 10 10 10h131q10 0 10 -10v-467q0 -10 -10 -10zM328 543h-81q-11 0 -6 10l65 137q4 10 16 10h99q11 0 5 -10l-80 -137
q-7 -10 -18 -10zM172 543h-80q-11 0 -6 10l65 137q4 10 16 10h99q11 0 5 -10l-81 -137q-7 -10 -18 -10z" />
    <glyph glyph-name="Uogonek" unicode="&#x172;" horiz-adv-x="472" 
d="M246 -192q-47 0 -74.5 24.5t-27.5 67.5q0 45 40 95q-70 13 -109 64t-39 138v473q0 10 10 10h139q10 0 10 -10v-491q0 -47 41 -47t41 47v491q0 10 10 10h139q10 0 10 -10v-473q0 -80 -34 -130t-95 -68q-33 -26 -43.5 -41.5t-10.5 -30.5q0 -21 18 -21q7 0 15 3q9 5 12 -5
l26 -63q3 -8 -5 -13q-30 -20 -73 -20z" />
    <glyph glyph-name="uogonek" unicode="&#x173;" horiz-adv-x="434" 
d="M316 -192q-47 0 -74.5 24.5t-27.5 67.5q0 51 50 101h-8q-7 2 -7 9v37h-1q-29 -57 -99 -57q-60 0 -88 36t-28 114v337q0 10 10 10h131q10 0 10 -10v-312q0 -44 32 -44t32 44v312q0 10 10 10h131q10 0 10 -10v-467q0 -7 -7 -10q-70 -33 -70 -73q0 -21 19 -21q7 0 15 3
q9 5 12 -5l25 -63q3 -8 -5 -13q-28 -20 -72 -20z" />
    <glyph glyph-name="Wcircumflex" unicode="&#x174;" horiz-adv-x="653" 
d="M515 0h-124q-9 0 -11 10l-52 368h-2l-52 -368q-3 -10 -12 -10h-124q-8 0 -11 10l-116 660q-3 10 8 10h143q9 0 11 -10l42 -396h3l51 396q2 10 11 10h93q9 0 12 -10l53 -396h2l41 396q3 10 12 10h141q11 0 8 -10l-116 -660q-2 -10 -11 -10zM473 740h-80q-10 0 -19 10
l-47 56h-2l-47 -56q-9 -10 -19 -10h-81q-4 0 -5.5 3t1.5 7l94 137q7 10 17 10h82q10 0 17 -10l93 -137q3 -4 2 -7t-6 -3z" />
    <glyph glyph-name="wcircumflex" unicode="&#x175;" horiz-adv-x="593" 
d="M443 545h-80q-10 0 -19 10l-47 56h-2l-47 -56q-9 -10 -19 -10h-81q-4 0 -5.5 3t1.5 7l94 136q7 10 17 10h82q10 0 17 -10l93 -136q3 -4 2 -7t-6 -3zM461 0h-111q-11 0 -12 10l-41 235h-2l-40 -235q-1 -10 -12 -10h-111q-9 0 -12 10l-110 467q-3 10 7 10h126q9 0 11 -10
l43 -266h2l43 266q2 10 11 10h88q9 0 11 -10l43 -266h1l44 266q2 10 11 10h126q10 0 7 -10l-111 -467q-3 -10 -12 -10z" />
    <glyph glyph-name="Ycircumflex" unicode="&#x176;" horiz-adv-x="441" 
d="M290 0h-139q-10 0 -10 10v249l-134 411q-3 10 8 10h137q10 0 12 -10l57 -234h3l55 234q2 10 12 10h135q11 0 8 -10l-134 -411v-249q0 -10 -10 -10zM368 740h-80q-10 0 -19 10l-47 56h-2l-47 -56q-9 -10 -19 -10h-81q-5 0 -6 3t2 7l94 137q7 10 17 10h82q10 0 17 -10
l93 -137q3 -4 1.5 -7t-5.5 -3z" />
    <glyph glyph-name="ycircumflex" unicode="&#x177;" horiz-adv-x="405" 
d="M75 -180h-14q-10 0 -10 10v111q0 10 10 10h14q27 1 40 10.5t18 32.5l5 22l-128 461q-3 10 8 10h127q10 0 12 -10l46 -254h2l49 254q2 10 12 10h121q11 0 8 -10l-131 -491q-26 -96 -67 -131t-122 -35zM350 545h-80q-10 0 -19 10l-47 56h-2l-47 -56q-9 -10 -19 -10h-81
q-5 0 -6 3t2 7l94 136q7 10 17 10h82q10 0 17 -10l93 -136q3 -4 1.5 -7t-5.5 -3z" />
    <glyph glyph-name="Ydieresis" unicode="&#x178;" horiz-adv-x="441" 
d="M290 0h-139q-10 0 -10 10v249l-134 411q-3 10 8 10h137q10 0 12 -10l57 -234h3l55 234q2 10 12 10h135q11 0 8 -10l-134 -411v-249q0 -10 -10 -10zM348 750h-91q-10 0 -10 10v110q0 10 10 10h91q10 0 10 -10v-110q0 -10 -10 -10zM185 750h-91q-10 0 -10 10v110
q0 10 10 10h91q10 0 10 -10v-110q0 -10 -10 -10z" />
    <glyph glyph-name="Zacute" unicode="&#x179;" horiz-adv-x="396" 
d="M360 0h-323q-10 0 -10 10v117q0 1 3 10l171 399v2h-155q-10 0 -10 10v122q0 10 10 10h314q10 0 10 -10v-118q0 -6 -3 -10l-173 -398v-2h166q10 0 10 -10v-122q0 -10 -10 -10zM237 747h-95q-5 0 -7 3t1 7l88 122q7 10 16 10h121q5 0 6.5 -3t-1.5 -7l-110 -122
q-10 -10 -19 -10z" />
    <glyph glyph-name="zacute" unicode="&#x17a;" horiz-adv-x="354" 
d="M216 546h-96q-11 0 -6 10l75 136q6 10 16 10h121q5 0 6.5 -3t-1.5 -7l-97 -136q-8 -10 -18 -10zM321 0h-291q-10 0 -10 10v102q0 5 3 11l145 237v2h-127q-10 0 -10 10v105q0 10 10 10h280q10 0 10 -10v-99q0 -6 -3 -11l-145 -239v-2h138q10 0 10 -10v-106q0 -10 -10 -10z
" />
    <glyph glyph-name="Zdotaccent" unicode="&#x17b;" horiz-adv-x="396" 
d="M266 750h-131q-10 0 -10 10v110q0 10 10 10h131q10 0 10 -10v-110q0 -10 -10 -10zM360 0h-323q-10 0 -10 10v117q0 1 3 10l171 399v2h-155q-10 0 -10 10v122q0 10 10 10h314q10 0 10 -10v-118q0 -6 -3 -10l-173 -398v-2h166q10 0 10 -10v-122q0 -10 -10 -10z" />
    <glyph glyph-name="zdotaccent" unicode="&#x17c;" horiz-adv-x="354" 
d="M321 0h-291q-10 0 -10 10v102q0 5 3 11l145 237v2h-127q-10 0 -10 10v105q0 10 10 10h280q10 0 10 -10v-99q0 -6 -3 -11l-145 -239v-2h138q10 0 10 -10v-106q0 -10 -10 -10zM243 550h-131q-10 0 -10 10v110q0 10 10 10h131q10 0 10 -10v-110q0 -10 -10 -10z" />
    <glyph glyph-name="Zcaron" unicode="&#x17d;" horiz-adv-x="396" 
d="M242 734h-82q-10 0 -17 10l-94 137q-3 4 -2 7t6 3h81q10 0 19 -10l47 -56h2l47 56q9 10 19 10h80q4 0 5.5 -3t-1.5 -7l-93 -137q-7 -10 -17 -10zM360 0h-323q-10 0 -10 10v117q0 1 3 10l171 399v2h-155q-10 0 -10 10v122q0 10 10 10h314q10 0 10 -10v-118q0 -6 -3 -10
l-173 -398v-2h166q10 0 10 -10v-122q0 -10 -10 -10z" />
    <glyph glyph-name="zcaron" unicode="&#x17e;" horiz-adv-x="354" 
d="M219 542h-82q-10 0 -17 10l-94 137q-3 4 -1.5 7t5.5 3h81q10 0 19 -10l47 -56h2l47 56q9 10 19 10h80q5 0 6 -3t-2 -7l-93 -137q-7 -10 -17 -10zM321 0h-291q-10 0 -10 10v102q0 5 3 11l145 237v2h-127q-10 0 -10 10v105q0 10 10 10h280q10 0 10 -10v-99q0 -6 -3 -11
l-145 -239v-2h138q10 0 10 -10v-106q0 -10 -10 -10z" />
    <glyph glyph-name="florin" unicode="&#x192;" 
d="M375 307h-77l-43 -321q-12 -87 -58 -126.5t-137 -39.5h-30q-10 0 -10 10v104q0 10 10 10h14q29 0 43.5 11t18.5 38l43 314h-58q-10 0 -10 10v93q0 10 10 10h73l13 94q12 87 58 126.5t137 39.5h30q10 0 10 -10v-104q0 -10 -10 -10h-14q-29 0 -43.5 -11t-18.5 -38l-12 -87
h61q10 0 10 -10v-93q0 -10 -10 -10z" />
    <glyph glyph-name="Aringacute" unicode="&#x1fa;" horiz-adv-x="488" 
d="M283 768h-93q-5 0 -6.5 3t1.5 7l76 101q9 10 19 10h119q5 0 6.5 -3t-1.5 -7l-99 -101q-10 -10 -22 -10zM474 0h-139q-10 0 -12 10l-18 107h-121l-19 -107q-2 -10 -11 -10h-140q-9 0 -7 10l130 575q2 10 11 10h7q-13 20 -13 51q0 44 29.5 73t73.5 29t73.5 -29t29.5 -73
q0 -28 -13 -51h8q9 0 11 -10l127 -575q3 -10 -7 -10zM245 603q17 0 29 12t12 31t-12 31.5t-29 12.5q-18 0 -29.5 -12.5t-11.5 -31.5t11.5 -31t29.5 -12zM245 457l-40 -221h79l-37 221h-2z" />
    <glyph glyph-name="aringacute" unicode="&#x1fb;" horiz-adv-x="405" 
d="M245 768h-96q-5 0 -6.5 3t1.5 7l77 101q7 10 18 10h119q5 0 6.5 -3t-1.5 -7l-98 -101q-10 -10 -20 -10zM363 0h-123q-10 0 -10 10v29h-1q-23 -49 -91 -49q-51 0 -84 35.5t-33 111.5q0 84 45 120t114 36h44q6 0 6 6v22q0 27 -13 39t-46 12q-44 0 -80 -25q-12 -8 -15 3
l-39 93q-3 10 5 15q60 39 152 39q98 0 138.5 -42t40.5 -133v-312q0 -10 -10 -10zM190 102q18 0 29 12.5t11 35.5v42q0 6 -6 6h-21q-47 0 -47 -50q0 -46 34 -46zM204 528q-44 0 -73.5 28.5t-29.5 72.5t29.5 72.5t73.5 28.5t73.5 -28.5t29.5 -72.5t-29.5 -72.5t-73.5 -28.5z
M204 586q17 0 29 12t12 31t-12 31t-29 12q-18 0 -29.5 -12t-11.5 -31t11.5 -31t29.5 -12z" />
    <glyph glyph-name="AEacute" unicode="&#x1fc;" horiz-adv-x="695" 
d="M403 747h-95q-5 0 -7 3t1 7l88 122q7 10 16 10h121q5 0 6.5 -3t-1.5 -7l-110 -122q-10 -10 -19 -10zM659 0h-318q-10 0 -10 10v101q0 6 -6 6h-127l-33 -107q-3 -10 -13 -10h-138q-10 0 -7 10l218 660q3 10 12 10h422q10 0 10 -10v-122q0 -10 -10 -10h-163q-6 0 -6 -6
v-112q0 -6 6 -6h140q10 0 10 -10v-122q0 -10 -10 -10h-140q-6 0 -6 -6v-118q0 -6 6 -6h163q10 0 10 -10v-122q0 -10 -10 -10zM328 538l-94 -302h91q6 0 6 6v296h-3z" />
    <glyph glyph-name="aeacute" unicode="&#x1fd;" horiz-adv-x="612" 
d="M350 546h-96q-11 0 -6 10l75 136q6 10 16 10h121q5 0 6.5 -3t-1.5 -7l-97 -136q-8 -10 -18 -10zM408 -10q-88 0 -132 53h-2q-24 -29 -52 -41t-70 -12q-58 0 -94.5 36t-36.5 111q0 84 45 120t114 36h44q6 0 6 6v22q0 27 -13 39t-46 12q-44 0 -80 -25q-12 -8 -15 3l-39 93
q-3 10 5 15q60 39 152 39q74 0 114 -26h1q38 26 99 26q132 0 168 -110q13 -40 13 -179q0 -10 -10 -10h-195q-6 0 -6 -6q0 -44 3 -56q7 -21 31 -21q27 0 37 31q3 9 12 8l115 -23q9 -1 7 -12q-12 -62 -58.5 -95.5t-116.5 -33.5zM441 293q6 0 6 6q0 48 -5 61q-6 21 -30 21
t-30 -21q-4 -11 -4 -61q0 -6 6 -6h57zM190 102q18 0 29 12.5t11 35.5v42q0 6 -6 6h-21q-47 0 -47 -50q0 -46 34 -46z" />
    <glyph glyph-name="Oslashacute" unicode="&#x1fe;" horiz-adv-x="471" 
d="M220 -10q-63 0 -110 25l-18 -35q-5 -10 -16 -10h-78q-4 0 -6 3t0 7l53 101q-8 16 -14 34q-9 27 -12.5 69t-3.5 156t3.5 156t12.5 69q42 125 189 125q63 0 110 -25l19 35q5 10 16 10h78q5 0 6.5 -3t-0.5 -7l-54 -101q9 -17 15 -34q16 -49 16 -225t-16 -225
q-41 -125 -190 -125zM220 132q30 0 38 25q5 16 5 183t-5 183q-8 25 -38 25q-29 0 -37 -25q-5 -16 -5 -183t5 -183q8 -25 37 -25zM281 747h-95q-5 0 -7 3t1 7l88 122q7 10 16 10h121q5 0 6.5 -3t-1.5 -7l-110 -122q-10 -10 -19 -10z" />
    <glyph glyph-name="oslashacute" unicode="&#x1ff;" horiz-adv-x="418" 
d="M209 -10q-53 0 -94 19l-17 -29q-7 -10 -16 -10h-66q-11 0 -5 10l47 79q-14 19 -21 45q-13 42 -13 139q0 98 13 140q36 114 172 114q53 0 93 -20l18 30q7 10 16 10h66q11 0 5 -10l-48 -80q12 -17 22 -44q13 -38 13 -140q0 -97 -13 -139q-38 -114 -172 -114zM209 118
q24 0 31 22q4 11 4 103q0 93 -4 104q-7 22 -31 22t-31 -22q-4 -11 -4 -104q0 -92 4 -103q7 -22 31 -22zM242 546h-96q-11 0 -6 10l75 136q6 10 16 10h121q5 0 6.5 -3t-1.5 -7l-97 -136q-8 -10 -18 -10z" />
    <glyph glyph-name="Scommaaccent" unicode="&#x218;" horiz-adv-x="445" 
d="M173 -242q-11 0 -11 11v170q0 10 10 10h100q10 0 10 -10v-67q0 -14 -9 -24l-88 -84q-5 -6 -12 -6zM425 210q0 -111 -50 -165.5t-155 -54.5q-100 0 -149 49.5t-50 137.5q0 11 8 12l132 21q11 2 11 -9q1 -74 48 -74q23 0 33.5 14.5t10.5 48.5q0 35 -12 51t-49 30l-41 16
q-73 29 -104 75t-31 129q0 199 194 199q93 0 143 -46t53 -128q0 -10 -9 -11l-126 -19q-11 -2 -11 8q-1 59 -44 59q-41 0 -41 -51q0 -29 12 -43t51 -30l41 -16q73 -28 104 -73.5t31 -129.5z" />
    <glyph glyph-name="scommaaccent" unicode="&#x219;" horiz-adv-x="380" 
d="M142 -242q-11 0 -11 11v170q0 10 10 10h100q10 0 10 -10v-67q0 -14 -9 -24l-88 -84q-4 -6 -12 -6zM190 -10q-79 0 -124 35t-50 97q-2 9 8 11l113 19q10 2 12 -8q6 -42 40 -42q16 0 25.5 9.5t9.5 25.5q0 28 -38 40l-39 13q-64 22 -93.5 58.5t-29.5 94.5q0 71 44 112.5
t124 41.5q73 0 115.5 -33.5t47.5 -87.5q1 -10 -6 -12l-107 -18q-8 -2 -10 6q-7 33 -36 33q-31 0 -31 -30q0 -23 38 -36l39 -13q69 -23 96 -58.5t27 -96.5q0 -76 -46 -118.5t-129 -42.5z" />
    <glyph glyph-name="uni021A" unicode="&#x21a;" horiz-adv-x="440" 
d="M172 -242q-11 0 -11 11v170q0 10 10 10h100q10 0 10 -10v-67q0 -14 -9 -24l-88 -84q-4 -6 -12 -6zM289 0h-139q-10 0 -10 10v522q0 6 -6 6h-112q-10 0 -10 10v122q0 10 10 10h395q10 0 10 -10v-122q0 -10 -10 -10h-112q-6 0 -6 -6v-522q0 -10 -10 -10z" />
    <glyph glyph-name="uni021B" unicode="&#x21b;" horiz-adv-x="298" 
d="M124 -242q-11 0 -11 11v170q0 10 10 10h100q10 0 10 -10v-67q0 -14 -9 -24l-88 -84q-4 -6 -12 -6zM268 -6h-38q-90 0 -129 35t-39 132v209q0 6 -6 6h-32q-10 0 -10 10v91q0 10 10 10h32q6 0 6 6v127q0 10 10 10h131q10 0 10 -10v-127q0 -6 6 -6h49q10 0 10 -10v-91
q0 -10 -10 -10h-49q-6 0 -6 -6v-201q0 -24 9.5 -34t30.5 -10h15q10 0 10 -10v-111q0 -10 -10 -10z" />
    <glyph glyph-name="dotlessj" unicode="&#x237;" horiz-adv-x="222" 
d="M1 -180h-21q-10 0 -10 10v111q0 10 10 10l14 1q22 2 31.5 14t9.5 43v468q0 10 10 10h131q10 0 10 -10v-463q0 -194 -185 -194z" />
    <glyph glyph-name="circumflex" unicode="&#x2c6;" horiz-adv-x="444" 
d="M369 545h-80q-10 0 -19 10l-47 56h-2l-47 -56q-9 -10 -19 -10h-81q-4 0 -5.5 3t1.5 7l94 136q7 10 17 10h82q10 0 17 -10l93 -136q3 -4 2 -7t-6 -3z" />
    <glyph glyph-name="caron" unicode="&#x2c7;" horiz-adv-x="444" 
d="M263 542h-82q-10 0 -17 10l-94 137q-3 4 -1.5 7t5.5 3h81q10 0 19 -10l47 -56h2l47 56q9 10 19 10h80q5 0 6 -3t-2 -7l-93 -137q-7 -10 -17 -10z" />
    <glyph glyph-name="uni02C9" unicode="&#x2c9;" horiz-adv-x="444" 
d="M344 761h-244q-10 0 -10 10v89q0 10 10 10h244q10 0 10 -10v-89q0 -10 -10 -10z" />
    <glyph glyph-name="breve" unicode="&#x2d8;" horiz-adv-x="444" 
d="M222 541q-65 0 -102 39t-39 99q0 11 13 11h60q10 0 14 -11q17 -42 54 -42t54 42q4 11 14 11h60q13 0 13 -11q-2 -60 -39 -99t-102 -39z" />
    <glyph glyph-name="dotaccent" unicode="&#x2d9;" horiz-adv-x="444" 
d="M287 550h-131q-10 0 -10 10v110q0 10 10 10h131q10 0 10 -10v-110q0 -10 -10 -10z" />
    <glyph glyph-name="ring" unicode="&#x2da;" horiz-adv-x="444" 
d="M222 528q-44 0 -73.5 28.5t-29.5 72.5t29.5 72.5t73.5 28.5t73.5 -28.5t29.5 -72.5t-29.5 -72.5t-73.5 -28.5zM222 586q17 0 29 12t12 31t-12 31t-29 12q-18 0 -29.5 -12t-11.5 -31t11.5 -31t29.5 -12z" />
    <glyph glyph-name="ogonek" unicode="&#x2db;" horiz-adv-x="444" 
d="M270 -192q-47 0 -74.5 24.5t-27.5 67.5q0 52 50 100q10 10 19 10h107q5 0 6 -4t-4 -6q-69 -34 -69 -73q0 -21 18 -21q7 0 15 3q9 5 12 -5l26 -63q3 -8 -5 -13q-30 -20 -73 -20z" />
    <glyph glyph-name="tilde" unicode="&#x2dc;" horiz-adv-x="444" 
d="M276 548q-24 0 -60 20q-28 18 -50 18q-31 0 -62 -31q-4 -4 -7.5 -3t-3.5 6v87q0 9 7 16q31 31 67 31q27 0 60 -20q29 -17 50 -17q31 0 62 31q4 4 7.5 3t3.5 -6v-87q0 -10 -7 -17q-31 -31 -67 -31z" />
    <glyph glyph-name="hungarumlaut" unicode="&#x2dd;" horiz-adv-x="444" 
d="M316 543h-81q-11 0 -6 10l65 137q4 10 16 10h99q11 0 5 -10l-80 -137q-7 -10 -18 -10zM160 543h-80q-11 0 -6 10l65 137q4 10 16 10h99q11 0 5 -10l-81 -137q-7 -10 -18 -10z" />
    <glyph glyph-name="Delta" unicode="&#x394;" horiz-adv-x="488" 
d="M473 0h-458q-10 0 -8 10l149 660q3 10 12 10h155q10 0 12 -10l146 -660q3 -10 -8 -10zM296 140q6 0 5 6l-54 313h-2l-56 -313q-1 -6 5 -6h102z" />
    <glyph glyph-name="Delta" unicode="&#x2206;" horiz-adv-x="488" 
d="M473 0h-458q-10 0 -8 10l149 660q3 10 12 10h155q10 0 12 -10l146 -660q3 -10 -8 -10zM296 140q6 0 5 6l-54 313h-2l-56 -313q-1 -6 5 -6h102z" />
    <glyph glyph-name="Omega" unicode="&#x3a9;" horiz-adv-x="476" 
d="M438 0h-170q-10 0 -10 10v106q0 8 8 16q11 12 13.5 46t2.5 187q0 140 -5 156q-10 27 -39 27t-39 -27q-6 -19 -6 -156q0 -150 2.5 -185.5t14.5 -47.5q8 -10 8 -16v-106q0 -10 -10 -10h-170q-10 0 -10 10v114q0 10 10 10h42v1q-28 24 -38.5 67t-10.5 159q0 156 15 202
q40 127 192 127q151 0 191 -127q16 -45 16 -202q0 -115 -11 -158t-38 -68v-1h42q10 0 10 -10v-114q0 -10 -10 -10z" />
    <glyph glyph-name="Omega" unicode="&#x2126;" horiz-adv-x="476" 
d="M438 0h-170q-10 0 -10 10v106q0 8 8 16q11 12 13.5 46t2.5 187q0 140 -5 156q-10 27 -39 27t-39 -27q-6 -19 -6 -156q0 -150 2.5 -185.5t14.5 -47.5q8 -10 8 -16v-106q0 -10 -10 -10h-170q-10 0 -10 10v114q0 10 10 10h42v1q-28 24 -38.5 67t-10.5 159q0 156 15 202
q40 127 192 127q151 0 191 -127q16 -45 16 -202q0 -115 -11 -158t-38 -68v-1h42q10 0 10 -10v-114q0 -10 -10 -10z" />
    <glyph glyph-name="pi" unicode="&#x3c0;" horiz-adv-x="496" 
d="M456 -6h-28q-81 0 -116 36.5t-35 122.5v198q0 6 -6 6h-45q-6 0 -6 -6v-341q0 -10 -10 -10h-131q-10 0 -10 10v341q0 6 -6 6h-32q-10 0 -10 10v110q0 10 10 10h433q10 0 10 -10v-110q0 -10 -10 -10h-32q-6 0 -6 -6v-196q0 -18 6 -24.5t20 -6.5h4q10 0 10 -10v-110
q0 -10 -10 -10z" />
    <glyph glyph-name="Wgrave" unicode="&#x1e80;" horiz-adv-x="653" 
d="M373 747h-95q-9 0 -19 10l-110 122q-3 4 -1.5 7t6.5 3h120q9 0 16 -10l89 -122q3 -4 1 -7t-7 -3zM515 0h-124q-9 0 -11 10l-52 368h-2l-52 -368q-3 -10 -12 -10h-124q-8 0 -11 10l-116 660q-3 10 8 10h143q9 0 11 -10l42 -396h3l51 396q2 10 11 10h93q9 0 12 -10l53 -396
h2l41 396q3 10 12 10h141q11 0 8 -10l-116 -660q-2 -10 -11 -10z" />
    <glyph glyph-name="wgrave" unicode="&#x1e81;" horiz-adv-x="593" 
d="M461 0h-111q-11 0 -12 10l-41 235h-2l-40 -235q-1 -10 -12 -10h-111q-9 0 -12 10l-110 467q-3 10 7 10h126q9 0 11 -10l43 -266h2l43 266q2 10 11 10h88q9 0 11 -10l43 -266h1l44 266q2 10 11 10h126q10 0 7 -10l-111 -467q-3 -10 -12 -10zM341 546h-96q-11 0 -18 10
l-97 136q-3 4 -1.5 7t6.5 3h121q10 0 16 -10l75 -136q5 -10 -6 -10z" />
    <glyph glyph-name="Wacute" unicode="&#x1e82;" horiz-adv-x="653" 
d="M375 747h-95q-5 0 -7 3t1 7l88 122q7 10 16 10h121q5 0 6.5 -3t-1.5 -7l-110 -122q-10 -10 -19 -10zM515 0h-124q-9 0 -11 10l-52 368h-2l-52 -368q-3 -10 -12 -10h-124q-8 0 -11 10l-116 660q-3 10 8 10h143q9 0 11 -10l42 -396h3l51 396q2 10 11 10h93q9 0 12 -10
l53 -396h2l41 396q3 10 12 10h141q11 0 8 -10l-116 -660q-2 -10 -11 -10z" />
    <glyph glyph-name="wacute" unicode="&#x1e83;" horiz-adv-x="593" 
d="M343 546h-96q-11 0 -6 10l75 136q6 10 16 10h121q5 0 6.5 -3t-1.5 -7l-97 -136q-7 -10 -18 -10zM461 0h-111q-11 0 -12 10l-41 235h-2l-40 -235q-1 -10 -12 -10h-111q-9 0 -12 10l-110 467q-3 10 7 10h126q9 0 11 -10l43 -266h2l43 266q2 10 11 10h88q9 0 11 -10l43 -266
h1l44 266q2 10 11 10h126q10 0 7 -10l-111 -467q-3 -10 -12 -10z" />
    <glyph glyph-name="Wdieresis" unicode="&#x1e84;" horiz-adv-x="653" 
d="M453 750h-91q-10 0 -10 10v110q0 10 10 10h91q10 0 10 -10v-110q0 -10 -10 -10zM290 750h-91q-10 0 -10 10v110q0 10 10 10h91q10 0 10 -10v-110q0 -10 -10 -10zM515 0h-124q-9 0 -11 10l-52 368h-2l-52 -368q-3 -10 -12 -10h-124q-8 0 -11 10l-116 660q-3 10 8 10h143
q9 0 11 -10l42 -396h3l51 396q2 10 11 10h93q9 0 12 -10l53 -396h2l41 396q3 10 12 10h141q11 0 8 -10l-116 -660q-2 -10 -11 -10z" />
    <glyph glyph-name="wdieresis" unicode="&#x1e85;" horiz-adv-x="593" 
d="M423 551h-91q-10 0 -10 10v110q0 10 10 10h91q10 0 10 -10v-110q0 -10 -10 -10zM260 551h-91q-10 0 -10 10v110q0 10 10 10h91q10 0 10 -10v-110q0 -10 -10 -10zM461 0h-111q-11 0 -12 10l-41 235h-2l-40 -235q-1 -10 -12 -10h-111q-9 0 -12 10l-110 467q-3 10 7 10h126
q9 0 11 -10l43 -266h2l43 266q2 10 11 10h88q9 0 11 -10l43 -266h1l44 266q2 10 11 10h126q10 0 7 -10l-111 -467q-3 -10 -12 -10z" />
    <glyph glyph-name="Ygrave" unicode="&#x1ef2;" horiz-adv-x="441" 
d="M290 0h-139q-10 0 -10 10v249l-134 411q-3 10 8 10h137q10 0 12 -10l57 -234h3l55 234q2 10 12 10h135q11 0 8 -10l-134 -411v-249q0 -10 -10 -10zM272 747h-95q-9 0 -19 10l-110 122q-3 4 -1.5 7t6.5 3h120q9 0 16 -10l89 -122q3 -4 1 -7t-7 -3z" />
    <glyph glyph-name="ygrave" unicode="&#x1ef3;" horiz-adv-x="405" 
d="M75 -180h-14q-10 0 -10 10v111q0 10 10 10h14q27 1 40 10.5t18 32.5l5 22l-128 461q-3 10 8 10h127q10 0 12 -10l46 -254h2l49 254q2 10 12 10h121q11 0 8 -10l-131 -491q-26 -96 -67 -131t-122 -35zM260 546h-96q-10 0 -18 10l-97 136q-3 4 -1.5 7t6.5 3h121
q10 0 16 -10l75 -136q5 -10 -6 -10z" />
    <glyph glyph-name="endash" unicode="&#x2013;" horiz-adv-x="446" 
d="M423 206h-401q-10 0 -10 10v99q0 10 10 10h401q10 0 10 -10v-99q0 -10 -10 -10z" />
    <glyph glyph-name="emdash" unicode="&#x2014;" horiz-adv-x="643" 
d="M621 206h-599q-10 0 -10 10v99q0 10 10 10h599q10 0 10 -10v-99q0 -10 -10 -10z" />
    <glyph glyph-name="quoteleft" unicode="&#x2018;" horiz-adv-x="188" 
d="M143 460h-98q-10 0 -10 10v96q0 14 9 25l87 84q5 6 12 6q10 0 10 -10v-201q0 -10 -10 -10z" />
    <glyph glyph-name="quoteright" unicode="&#x2019;" horiz-adv-x="188" 
d="M45 459q-10 0 -10 10v201q0 10 10 10h98q10 0 10 -10v-96q0 -16 -9 -25l-87 -85q-5 -5 -12 -5z" />
    <glyph glyph-name="quotesinglbase" unicode="&#x201a;" horiz-adv-x="188" 
d="M45 -97q-10 0 -10 10v201q0 10 10 10h98q10 0 10 -10v-96q0 -16 -9 -25l-87 -84q-5 -6 -12 -6z" />
    <glyph glyph-name="quotedblleft" unicode="&#x201c;" horiz-adv-x="344" 
d="M299 460h-99q-10 0 -10 10v96q0 15 10 25l86 84q6 6 12 6q11 0 11 -10v-201q0 -10 -10 -10zM143 460h-98q-10 0 -10 10v96q0 14 9 25l87 84q5 6 12 6q10 0 10 -10v-201q0 -10 -10 -10z" />
    <glyph glyph-name="quotedblright" unicode="&#x201d;" horiz-adv-x="344" 
d="M201 459q-11 0 -11 10v201q0 10 10 10h99q10 0 10 -10v-96q0 -15 -10 -25l-86 -85q-7 -5 -12 -5zM45 459q-10 0 -10 10v201q0 10 10 10h98q10 0 10 -10v-96q0 -16 -9 -25l-87 -85q-5 -5 -12 -5z" />
    <glyph glyph-name="quotedblbase" unicode="&#x201e;" horiz-adv-x="344" 
d="M201 -97q-11 0 -11 10v201q0 10 10 10h99q10 0 10 -10v-96q0 -15 -10 -25l-86 -84q-6 -6 -12 -6zM45 -97q-10 0 -10 10v201q0 10 10 10h98q10 0 10 -10v-96q0 -16 -9 -25l-87 -84q-5 -6 -12 -6z" />
    <glyph glyph-name="dagger" unicode="&#x2020;" horiz-adv-x="509" 
d="M319 -180h-129q-10 0 -10 10v496q0 6 -6 6h-114q-10 0 -10 10v118q0 10 10 10h114q6 0 6 6v194q0 10 10 10h129q10 0 10 -10v-194q0 -6 6 -6h114q10 0 10 -10v-118q0 -10 -10 -10h-114q-6 0 -6 -6v-496q0 -10 -10 -10z" />
    <glyph glyph-name="daggerdbl" unicode="&#x2021;" horiz-adv-x="509" 
d="M319 -180h-129q-10 0 -10 10v170q0 6 -6 6h-114q-10 0 -10 10v118q0 10 10 10h114q6 0 6 6v200q0 6 -6 6h-114q-10 0 -10 10v118q0 10 10 10h114q6 0 6 6v170q0 10 10 10h129q10 0 10 -10v-170q0 -6 6 -6h114q10 0 10 -10v-118q0 -10 -10 -10h-114q-6 0 -6 -6v-200
q0 -6 6 -6h114q10 0 10 -10v-118q0 -10 -10 -10h-114q-6 0 -6 -6v-170q0 -10 -10 -10z" />
    <glyph glyph-name="bullet" unicode="&#x2022;" horiz-adv-x="428" 
d="M214 156q-65 0 -109 43.5t-44 108.5t44 108.5t109 43.5t108.5 -43.5t43.5 -108.5t-43.5 -108.5t-108.5 -43.5z" />
    <glyph glyph-name="ellipsis" unicode="&#x2026;" horiz-adv-x="651" 
d="M607 0h-121q-10 0 -10 10v135q0 10 10 10h121q10 0 10 -10v-135q0 -10 -10 -10zM388 0h-120q-10 0 -10 10v135q0 10 10 10h120q10 0 10 -10v-135q0 -10 -10 -10zM170 0h-121q-10 0 -10 10v135q0 10 10 10h121q10 0 10 -10v-135q0 -10 -10 -10z" />
    <glyph glyph-name="perthousand" unicode="&#x2030;" horiz-adv-x="1027" 
d="M281 -10h-82q-10 0 -7 10l254 680q3 10 14 10h81q10 0 7 -10l-254 -680q-3 -10 -13 -10zM176 329q-90 0 -114 73q-8 27 -8 106q0 80 8 107q25 72 114 72t114 -72q8 -27 8 -107q0 -79 -8 -106q-24 -73 -114 -73zM176 411q15 0 19 13q3 8 3 84t-3 84q-4 13 -19 13t-19 -13
q-3 -8 -3 -84t3 -84q4 -13 19 -13zM851 -7q-90 0 -114 73q-8 27 -8 106q0 80 8 107q25 72 114 72t114 -72q8 -27 8 -107q0 -79 -8 -106q-24 -73 -114 -73zM564 -7q-90 0 -114 73q-8 27 -8 106q0 80 8 107q25 72 114 72t114 -72q8 -27 8 -107q0 -79 -8 -106q-24 -73 -114 -73
zM851 75q15 0 19 13q3 8 3 84t-3 84q-4 13 -19 13t-19 -13q-3 -8 -3 -84t3 -84q4 -13 19 -13zM564 75q15 0 19 13q3 8 3 84t-3 84q-4 13 -19 13t-19 -13q-3 -8 -3 -84t3 -84q4 -13 19 -13z" />
    <glyph glyph-name="guilsinglleft" unicode="&#x2039;" horiz-adv-x="282" 
d="M222 56l-194 201q-7 7 0 14l194 201q3 3 6.5 1.5t3.5 -5.5v-125q0 -9 -10 -19l-53 -56q-4 -4 0 -8l53 -56q10 -10 10 -19v-125q0 -4 -3.5 -5.5t-6.5 1.5z" />
    <glyph glyph-name="guilsinglright" unicode="&#x203a;" horiz-adv-x="282" 
d="M60 56q-3 -3 -6.5 -1.5t-3.5 5.5v125q0 9 10 19l54 56q4 4 0 8l-54 56q-10 10 -10 19v125q0 4 3.5 5.5t6.5 -1.5l194 -201q7 -7 0 -14z" />
    <glyph glyph-name="fraction" unicode="&#x2044;" horiz-adv-x="150" 
d="M-15 -10h-81q-10 0 -7 10l254 680q3 10 13 10h82q10 0 7 -10l-254 -680q-3 -10 -14 -10z" />
    <glyph glyph-name="zero.superior" unicode="&#x2070;" horiz-adv-x="315" 
d="M158 423q-99 0 -126 79q-8 25 -8 131t8 131q27 79 126 79q100 0 125 -79q8 -25 8 -131t-8 -131q-25 -79 -125 -79zM158 513q14 0 19 14q2 6 2 106t-2 106q-5 14 -19 14q-15 0 -20 -14q-2 -6 -2 -106t2 -106q5 -14 20 -14z" />
    <glyph glyph-name="four.superior" unicode="&#x2074;" horiz-adv-x="315" 
d="M265 430h-82q-10 0 -10 10v41q0 6 -6 6h-137q-10 0 -10 10v79q0 7 3 16l81 234q3 10 13 10h92q10 0 7 -10l-83 -242v-3h34q6 0 6 6v60q0 10 10 10h82q10 0 10 -10v-60q0 -6 5 -6h9q10 0 10 -10v-74q0 -10 -10 -10h-8q-6 0 -6 -6v-41q0 -10 -10 -10z" />
    <glyph glyph-name="five.superior" unicode="&#x2075;" horiz-adv-x="315" 
d="M158 423q-49 0 -82 19t-44 53q-5 14 -5 30q0 11 10 12l84 9q12 2 12 -10q0 -7 3 -13q4 -10 19 -10q14 0 19 12q3 6 3 38q0 31 -3 37q-5 12 -19 12t-21 -15q-3 -7 -11 -7h-80q-10 0 -10 10v226q0 10 10 10h230q10 0 10 -10v-76q0 -10 -10 -10h-135q-6 0 -6 -6v-48h2
q14 11 52 11q78 0 96 -61q7 -21 7 -73q0 -48 -7 -68q-23 -72 -124 -72z" />
    <glyph glyph-name="six.superior" unicode="&#x2076;" horiz-adv-x="315" 
d="M158 423q-49 0 -83 19t-45 53q-6 19 -6 59q0 60 29 115l82 157q6 10 14 10h97q12 0 7 -10l-75 -147l1 -1q6 2 14 2q70 0 91 -65q7 -20 7 -61q0 -40 -6 -59q-11 -34 -44.5 -53t-82.5 -19zM179 554q0 18 -2 26q-4 13 -19 13q-16 0 -20 -13q-2 -8 -2 -26q0 -20 2 -28
q4 -13 20 -13q15 0 19 13q2 8 2 28z" />
    <glyph glyph-name="seven.superior" unicode="&#x2077;" horiz-adv-x="315" 
d="M172 430h-93q-10 0 -7 10l101 301v2h-37q-6 0 -6 -6v-29q0 -10 -10 -10h-80q-10 0 -10 10v118q0 10 10 10h238q10 0 10 -10v-68q0 -11 -3 -20l-100 -298q-3 -10 -13 -10z" />
    <glyph glyph-name="eight.superior" unicode="&#x2078;" horiz-adv-x="315" 
d="M158 423q-49 0 -83 19.5t-45 53.5q-6 18 -6 52q0 30 5 47q11 31 38 46v1q-30 19 -39 47q-4 12 -4 33q0 30 6 48q11 34 45 53.5t83 19.5q48 0 82 -19.5t45 -53.5q6 -18 6 -48q0 -21 -4 -33q-9 -28 -39 -47v-1q27 -15 38 -46q5 -17 5 -47q0 -34 -6 -52q-11 -34 -45 -53.5
t-82 -19.5zM179 718q0 16 -2 22q-4 13 -19 13q-16 0 -20 -13q-2 -6 -2 -22q0 -17 2 -23q4 -13 20 -13q15 0 19 13q2 6 2 23zM179 553q0 18 -2 26q-4 13 -19 13q-16 0 -20 -13q-2 -8 -2 -26q0 -19 2 -27q4 -13 20 -13q15 0 19 13q2 8 2 27z" />
    <glyph glyph-name="nine.superior" unicode="&#x2079;" horiz-adv-x="315" 
d="M166 430h-97q-12 0 -7 10l75 147l-1 1q-6 -2 -14 -2q-70 0 -91 65q-7 20 -7 61q0 40 6 59q11 34 44.5 53t82.5 19t83 -19t45 -53q6 -19 6 -59q0 -60 -29 -115l-82 -157q-6 -10 -14 -10zM157 673q16 0 20 13q2 8 2 26q0 20 -2 28q-4 13 -20 13q-15 0 -19 -13q-2 -8 -2 -28
q0 -18 2 -26q4 -13 19 -13z" />
    <glyph glyph-name="zero.inferior" unicode="&#x2080;" horiz-adv-x="315" 
d="M158 -163q-99 0 -126 79q-8 25 -8 131t8 131q27 79 126 79q100 0 125 -79q8 -25 8 -131t-8 -131q-25 -79 -125 -79zM158 -73q14 0 19 14q2 6 2 106t-2 106q-5 14 -19 14q-15 0 -20 -14q-2 -6 -2 -106t2 -106q5 -14 20 -14z" />
    <glyph glyph-name="one.inferior" unicode="&#x2081;" horiz-adv-x="315" 
d="M226 -156h-92q-10 0 -10 10v276h-2l-56 -33q-10 -6 -10 5v92q0 9 7 13l58 37q9 6 16 6h89q10 0 10 -10v-386q0 -10 -10 -10z" />
    <glyph glyph-name="two.inferior" unicode="&#x2082;" horiz-adv-x="315" 
d="M274 -156h-228q-10 0 -10 10v71q0 10 6 16l114 141q21 24 21 50q0 18 -3 24q-5 11 -19 11q-17 0 -20 -12q-2 -6 -2 -29q0 -12 -12 -10l-84 9q-10 1 -10 12q0 30 6 48q11 34 43.5 53t81.5 19q102 0 125 -72q6 -18 6 -52q0 -48 -37 -98l-70 -94v-2h92q10 0 10 -10v-75
q0 -10 -10 -10z" />
    <glyph glyph-name="three.inferior" unicode="&#x2083;" horiz-adv-x="315" 
d="M157 -163q-49 0 -81.5 19t-43.5 53q-6 17 -6 34q0 11 10 12l85 8q12 2 12 -10q0 -9 2 -15q4 -11 20 -11q15 0 19 13q2 8 2 25q0 14 -2 24q-4 14 -25 14h-7q-10 0 -10 10v77q0 10 10 10h11q17 0 21 12q2 4 2 21q0 13 -2 21q-4 13 -19 13q-16 0 -20 -11q-2 -6 -2 -15
q0 -12 -12 -10l-85 8q-10 1 -10 12q0 18 6 34q11 34 43.5 53t81.5 19t82 -19t44 -53q5 -18 5 -44q0 -25 -4 -40q-10 -29 -41 -44v-2q30 -15 40 -44q5 -15 5 -50q0 -34 -5 -52q-11 -34 -44 -53t-82 -19z" />
    <glyph glyph-name="four.inferior" unicode="&#x2084;" horiz-adv-x="315" 
d="M265 -156h-82q-10 0 -10 10v41q0 6 -6 6h-137q-10 0 -10 10v79q0 7 3 16l81 234q3 10 13 10h92q10 0 7 -10l-83 -242v-3h34q6 0 6 6v60q0 10 10 10h82q10 0 10 -10v-60q0 -6 5 -6h9q10 0 10 -10v-74q0 -10 -10 -10h-8q-6 0 -6 -6v-41q0 -10 -10 -10z" />
    <glyph glyph-name="five.inferior" unicode="&#x2085;" horiz-adv-x="315" 
d="M158 -163q-49 0 -82 19t-44 53q-5 14 -5 30q0 11 10 12l84 9q12 2 12 -10q0 -7 3 -13q4 -10 19 -10q14 0 19 12q3 6 3 38q0 31 -3 37q-5 12 -19 12t-21 -15q-3 -7 -11 -7h-80q-10 0 -10 10v226q0 10 10 10h230q10 0 10 -10v-76q0 -10 -10 -10h-135q-6 0 -6 -6v-48h2
q14 11 52 11q78 0 96 -61q7 -21 7 -73q0 -48 -7 -68q-23 -72 -124 -72z" />
    <glyph glyph-name="six.inferior" unicode="&#x2086;" horiz-adv-x="315" 
d="M158 -163q-49 0 -83 19t-45 53q-6 19 -6 59q0 60 29 115l82 157q6 10 14 10h97q12 0 7 -10l-75 -147l1 -1q6 2 14 2q70 0 91 -65q7 -20 7 -61q0 -40 -6 -59q-11 -34 -44.5 -53t-82.5 -19zM179 -32q0 18 -2 26q-4 13 -19 13q-16 0 -20 -13q-2 -8 -2 -26q0 -20 2 -28
q4 -13 20 -13q15 0 19 13q2 8 2 28z" />
    <glyph glyph-name="seven.inferior" unicode="&#x2087;" horiz-adv-x="315" 
d="M172 -156h-93q-10 0 -7 10l101 301v2h-37q-6 0 -6 -6v-29q0 -10 -10 -10h-80q-10 0 -10 10v118q0 10 10 10h238q10 0 10 -10v-68q0 -11 -3 -20l-100 -298q-3 -10 -13 -10z" />
    <glyph glyph-name="eight.inferior" unicode="&#x2088;" horiz-adv-x="315" 
d="M158 -163q-49 0 -83 19.5t-45 53.5q-6 18 -6 52q0 30 5 47q11 31 38 46v1q-30 19 -39 47q-4 12 -4 33q0 30 6 48q11 34 45 53.5t83 19.5q48 0 82 -19.5t45 -53.5q6 -18 6 -48q0 -21 -4 -33q-9 -28 -39 -47v-1q27 -15 38 -46q5 -17 5 -47q0 -34 -6 -52q-11 -34 -45 -53.5
t-82 -19.5zM179 132q0 16 -2 22q-4 13 -19 13q-16 0 -20 -13q-2 -6 -2 -22q0 -17 2 -23q4 -13 20 -13q15 0 19 13q2 6 2 23zM179 -33q0 18 -2 26q-4 13 -19 13q-16 0 -20 -13q-2 -8 -2 -26q0 -19 2 -27q4 -13 20 -13q15 0 19 13q2 8 2 27z" />
    <glyph glyph-name="nine.inferior" unicode="&#x2089;" horiz-adv-x="315" 
d="M166 -156h-97q-12 0 -7 10l75 147l-1 1q-6 -2 -14 -2q-70 0 -91 65q-7 20 -7 61q0 40 6 59q11 34 44.5 53t82.5 19t83 -19t45 -53q6 -20 6 -59q0 -60 -29 -115l-82 -157q-6 -10 -14 -10zM157 87q16 0 20 13q2 8 2 26q0 20 -2 28q-4 13 -20 13q-15 0 -19 -13q-2 -8 -2 -28
q0 -18 2 -26q4 -13 19 -13z" />
    <glyph glyph-name="Euro" unicode="&#x20ac;" 
d="M242 -10q-134 0 -169 111q-13 39 -13 127q0 6 -6 6h-33q-10 0 -10 10v66q0 10 10 10h33q6 0 6 6v30q0 6 -6 6h-33q-10 0 -10 10v65q0 10 10 10h33q6 0 6 6q0 87 13 126q35 111 169 111q84 0 129.5 -41t50.5 -114q2 -11 -9 -12l-123 -20q-10 -2 -12 9q-3 50 -34 50
q-21 0 -29 -21q-4 -13 -4 -88q0 -6 6 -6h126q10 0 10 -10l-10 -65q-1 -10 -10 -10h-116q-6 0 -6 -6v-30q0 -6 6 -6h111q10 0 10 -10l-10 -66q-1 -10 -10 -10h-101q-6 0 -6 -6q0 -76 4 -89q8 -21 29 -21q31 0 34 50q2 11 12 9l123 -20q11 -1 9 -12q-5 -73 -50.5 -114
t-129.5 -41z" />
    <glyph glyph-name="afii61289" unicode="&#x2113;" horiz-adv-x="426" 
d="M94 148q-8 -6 -15 1l-47 57q-8 8 1 14l79 69v186q0 101 41 158t118 57q60 0 96 -38t36 -102q0 -69 -38 -133.5t-112 -136.5v-147q0 -39 29 -39q14 0 32 15q8 7 14 -2l41 -53q5 -7 -2 -14q-55 -50 -121 -50q-134 0 -134 155v19zM253 517v-92q47 65 47 123q0 42 -22 42
q-25 0 -25 -73z" />
    <glyph glyph-name="trademark" unicode="&#x2122;" horiz-adv-x="684" 
d="M626 286h-70q-10 0 -10 10v182h-3l-30 -115q-3 -10 -12 -10h-36q-9 0 -12 10l-31 115h-3v-182q0 -10 -10 -10h-70q-10 0 -10 10v374q0 10 10 10h79q9 0 12 -10l53 -187h3l51 187q3 10 12 10h77q10 0 10 -10v-374q0 -10 -10 -10zM204 286h-80q-10 0 -10 10v290q0 6 -6 6
h-63q-10 0 -10 10v68q0 10 10 10h237q10 0 10 -10v-68q0 -10 -10 -10h-62q-6 0 -6 -6v-290q0 -10 -10 -10z" />
    <glyph glyph-name="estimated" unicode="&#x212e;" horiz-adv-x="569" 
d="M284 -10q-106 0 -171.5 73t-65.5 181q0 109 65.5 181t171.5 72q107 0 172.5 -70.5t66.5 -182.5h-372v-166q53 -53 133 -53q114 0 176 110l33 -21q-43 -66 -90.5 -95t-118.5 -29zM419 278v132q-62 57 -135 57q-79 0 -133 -57v-132h268z" />
    <glyph glyph-name="onethird" unicode="&#x2153;" horiz-adv-x="815" 
d="M239 274h-92q-10 0 -10 10v276h-2l-56 -33q-10 -6 -10 5v92q0 9 7 13l58 37q9 6 16 6h89q10 0 10 -10v-386q0 -10 -10 -10zM290 -10h-81q-10 0 -7 10l254 680q3 10 13 10h82q10 0 7 -10l-254 -680q-3 -10 -14 -10zM615 -7q-49 0 -81.5 19t-43.5 53q-6 16 -6 34
q0 11 10 12l85 8q12 2 12 -10q0 -9 2 -15q4 -11 20 -11q15 0 19 13q2 8 2 25q0 14 -2 24q-4 14 -25 14h-7q-10 0 -10 10v77q0 10 10 10h11q17 0 21 12q2 4 2 21q0 13 -2 21q-4 13 -19 13q-16 0 -20 -11q-2 -6 -2 -15q0 -12 -12 -10l-85 8q-10 1 -10 12q0 17 6 34
q11 34 43.5 53t81.5 19t82 -19t44 -53q5 -18 5 -44q0 -25 -4 -40q-10 -29 -41 -44v-2q30 -15 40 -44q5 -15 5 -50q0 -34 -5 -52q-11 -34 -44 -53t-82 -19z" />
    <glyph glyph-name="twothirds" unicode="&#x2154;" horiz-adv-x="885" 
d="M314 274h-228q-10 0 -10 10v71q0 10 6 16l114 141q21 24 21 50q0 18 -3 24q-5 11 -19 11q-17 0 -20 -12q-2 -6 -2 -29q0 -12 -12 -10l-84 9q-10 1 -10 12q0 30 6 48q11 34 43.5 53t81.5 19q102 0 125 -72q6 -18 6 -52q0 -48 -37 -98l-70 -94v-2h92q10 0 10 -10v-75
q0 -10 -10 -10zM360 -10h-81q-10 0 -7 10l254 680q3 10 13 10h82q10 0 7 -10l-254 -680q-3 -10 -14 -10zM686 -7q-49 0 -81.5 19t-43.5 53q-6 16 -6 34q0 11 10 12l85 8q12 2 12 -10q0 -9 2 -15q4 -11 20 -11q15 0 19 13q2 8 2 25q0 14 -2 24q-4 14 -25 14h-7q-10 0 -10 10
v77q0 10 10 10h11q16 0 21 12q2 4 2 21q0 13 -2 21q-4 13 -19 13q-16 0 -20 -11q-2 -6 -2 -15q0 -12 -12 -10l-85 8q-10 1 -10 12q0 17 6 34q11 34 43.5 53t81.5 19t82 -19t44 -53q5 -18 5 -44q0 -25 -4 -40q-10 -29 -41 -44v-2q30 -15 40 -44q5 -15 5 -50q0 -34 -5 -52
q-11 -34 -44 -53t-82 -19z" />
    <glyph glyph-name="oneeighth" unicode="&#x215b;" horiz-adv-x="820" 
d="M239 274h-92q-10 0 -10 10v276h-2l-56 -33q-10 -6 -10 5v92q0 9 7 13l58 37q9 6 16 6h89q10 0 10 -10v-386q0 -10 -10 -10zM618 -7q-49 0 -83 19.5t-45 53.5q-6 18 -6 52q0 30 5 47q11 31 38 46v1q-30 19 -39 47q-4 12 -4 33q0 30 6 48q11 34 45 53.5t83 19.5
q48 0 82 -19.5t45 -53.5q6 -18 6 -48q0 -21 -4 -33q-9 -28 -39 -47v-1q27 -15 38 -46q5 -17 5 -47q0 -34 -6 -52q-11 -34 -45 -53.5t-82 -19.5zM639 288q0 16 -2 22q-4 13 -19 13q-16 0 -20 -13q-2 -6 -2 -22q0 -17 2 -23q4 -13 20 -13q15 0 19 13q2 6 2 23zM639 123
q0 18 -2 26q-4 13 -19 13q-16 0 -20 -13q-2 -8 -2 -26q0 -19 2 -27q4 -13 20 -13q15 0 19 13q2 8 2 27zM290 -10h-81q-10 0 -7 10l254 680q3 10 13 10h82q10 0 7 -10l-254 -680q-3 -10 -14 -10z" />
    <glyph glyph-name="threeeighths" unicode="&#x215c;" horiz-adv-x="876" 
d="M674 -7q-49 0 -83 19.5t-45 53.5q-6 18 -6 52q0 30 5 47q11 31 38 46v1q-30 19 -39 47q-4 12 -4 33q0 30 6 48q11 34 45 53.5t83 19.5q48 0 82 -19.5t45 -53.5q6 -18 6 -48q0 -21 -4 -33q-9 -28 -39 -47v-1q27 -15 38 -46q5 -17 5 -47q0 -34 -6 -52q-11 -34 -45 -53.5
t-82 -19.5zM695 288q0 16 -2 22q-4 13 -19 13q-16 0 -20 -13q-2 -6 -2 -22q0 -17 2 -23q4 -13 20 -13q15 0 19 13q2 6 2 23zM695 123q0 18 -2 26q-4 13 -19 13q-16 0 -20 -13q-2 -8 -2 -26q0 -19 2 -27q4 -13 20 -13q15 0 19 13q2 8 2 27zM345 -10h-81q-10 0 -7 10l254 680
q3 10 13 10h82q10 0 7 -10l-254 -680q-3 -10 -14 -10zM198 267q-49 0 -81.5 19t-43.5 53q-6 17 -6 34q0 11 10 12l85 8q12 2 12 -10q0 -9 2 -15q4 -11 20 -11q15 0 19 13q2 8 2 25q0 14 -2 24q-4 14 -25 14h-7q-10 0 -10 10v77q0 10 10 10h11q16 0 21 12q2 4 2 21
q0 13 -2 21q-4 13 -19 13q-16 0 -20 -11q-2 -6 -2 -15q0 -12 -12 -10l-85 8q-10 1 -10 12q0 17 6 34q11 34 43.5 53t81.5 19t82 -19t44 -53q5 -18 5 -44q0 -25 -4 -40q-10 -29 -41 -44v-2q30 -15 40 -44q5 -15 5 -50q0 -34 -5 -52q-11 -34 -44 -53t-82 -19z" />
    <glyph glyph-name="fiveeighths" unicode="&#x215d;" horiz-adv-x="875" 
d="M674 -7q-49 0 -83 19.5t-45 53.5q-6 18 -6 52q0 30 5 47q11 31 38 46v1q-30 19 -39 47q-4 12 -4 33q0 30 6 48q11 34 45 53.5t83 19.5q48 0 82 -19.5t45 -53.5q6 -18 6 -48q0 -21 -4 -33q-9 -28 -39 -47v-1q27 -15 38 -46q5 -17 5 -47q0 -34 -6 -52q-11 -34 -45 -53.5
t-82 -19.5zM695 288q0 16 -2 22q-4 13 -19 13q-16 0 -20 -13q-2 -6 -2 -22q0 -17 2 -23q4 -13 20 -13q15 0 19 13q2 6 2 23zM695 123q0 18 -2 26q-4 13 -19 13q-16 0 -20 -13q-2 -8 -2 -26q0 -19 2 -27q4 -13 20 -13q15 0 19 13q2 8 2 27zM345 -10h-81q-10 0 -7 10l254 680
q3 10 13 10h82q10 0 7 -10l-254 -680q-3 -10 -14 -10zM198 267q-49 0 -82 19t-44 53q-5 14 -5 30q0 11 10 12l84 9q12 2 12 -10q0 -7 3 -13q4 -10 19 -10q14 0 19 12q3 6 3 38q0 31 -3 37q-5 12 -19 12t-21 -15q-3 -7 -11 -7h-80q-10 0 -10 10v226q0 10 10 10h230
q10 0 10 -10v-76q0 -10 -10 -10h-135q-6 0 -6 -6v-48h2q14 11 52 11q78 0 96 -61q7 -21 7 -73q0 -48 -7 -68q-23 -72 -124 -72z" />
    <glyph glyph-name="seveneighths" unicode="&#x215e;" horiz-adv-x="834" 
d="M633 -7q-49 0 -83 19.5t-45 53.5q-6 18 -6 52q0 30 5 47q11 31 38 46v1q-30 19 -39 47q-4 12 -4 33q0 30 6 48q11 34 45 53.5t83 19.5q48 0 82 -19.5t45 -53.5q6 -18 6 -48q0 -21 -4 -33q-9 -28 -39 -47v-1q27 -15 38 -46q5 -17 5 -47q0 -34 -6 -52q-11 -34 -45 -53.5
t-82 -19.5zM654 288q0 16 -2 22q-4 13 -19 13q-16 0 -20 -13q-2 -6 -2 -22q0 -17 2 -23q4 -13 20 -13q15 0 19 13q2 6 2 23zM654 123q0 18 -2 26q-4 13 -19 13q-16 0 -20 -13q-2 -8 -2 -26q0 -19 2 -27q4 -13 20 -13q15 0 19 13q2 8 2 27zM210 274h-93q-10 0 -7 10l101 301
v2h-37q-6 0 -6 -6v-29q0 -10 -10 -10h-80q-10 0 -10 10v118q0 10 10 10h238q10 0 10 -10v-68q0 -11 -3 -20l-100 -298q-3 -10 -13 -10zM303 -10h-81q-10 0 -7 10l254 680q3 10 13 10h82q10 0 7 -10l-254 -680q-3 -10 -14 -10z" />
    <glyph glyph-name="partialdiff" unicode="&#x2202;" horiz-adv-x="449" 
d="M204 -10q-83 0 -129.5 55.5t-46.5 152.5q0 102 48.5 162t126.5 60q44 0 71 -21h1q-4 79 -29.5 121t-62.5 42q-33 0 -60 -22q-9 -7 -14 2l-53 81q-5 8 3 14q63 53 145 53q101 0 159 -90.5t58 -255.5q0 -354 -217 -354zM213 112q55 0 61 165q-21 21 -45 21q-55 0 -55 -96
q0 -90 39 -90z" />
    <glyph glyph-name="product" unicode="&#x220f;" horiz-adv-x="512" 
d="M465 -180h-139q-10 0 -10 10v757q0 6 -6 6h-108q-6 0 -6 -6v-757q0 -10 -10 -10h-139q-10 0 -10 10v900q0 10 10 10h418q10 0 10 -10v-900q0 -10 -10 -10z" />
    <glyph glyph-name="summation" unicode="&#x2211;" horiz-adv-x="490" 
d="M452 -180h-414q-10 0 -10 10v116q0 5 2 9l169 363l-164 281q-3 6 -3 11v120q0 10 10 10h400q10 0 10 -10v-120q0 -10 -10 -10h-223l152 -267q3 -7 0 -14l-167 -359h248q10 0 10 -10v-120q0 -10 -10 -10z" />
    <glyph glyph-name="minus" unicode="&#x2212;" 
d="M398 216h-359q-10 0 -10 10v100q0 10 10 10h359q10 0 10 -10v-100q0 -10 -10 -10z" />
    <glyph glyph-name="uni2215" unicode="&#x2215;" horiz-adv-x="162" 
d="M-9 -10h-81q-10 0 -7 10l254 680q3 10 13 10h82q10 0 7 -10l-254 -680q-3 -10 -14 -10z" />
    <glyph glyph-name="uni2219" unicode="&#x2219;" horiz-adv-x="221" 
d="M171 187h-121q-10 0 -10 10v135q0 10 10 10h121q10 0 10 -10v-135q0 -10 -10 -10z" />
    <glyph glyph-name="radical" unicode="&#x221a;" horiz-adv-x="602" 
d="M365 -180h-115q-9 0 -12 10l-104 243q-3 6 -9 3l-47 -20q-10 -5 -13 4l-36 82q-5 10 4 13l155 67q10 5 14 -4l93 -221h3l172 733q3 10 12 10h107q11 0 8 -10l-220 -900q-3 -10 -12 -10z" />
    <glyph glyph-name="infinity" unicode="&#x221e;" horiz-adv-x="662" 
d="M485 85q-45 0 -80.5 18.5t-74.5 60.5q-39 -42 -74.5 -60.5t-79.5 -18.5q-70 0 -116 44t-46 117q0 74 46 118t117 44q79 0 154 -81q42 44 76 62.5t77 18.5q70 0 116.5 -44t46.5 -118q0 -73 -46 -117t-116 -44zM480 189q26 0 40.5 15.5t14.5 42.5q0 26 -15 41t-40 15
q-30 0 -80 -57q49 -57 80 -57zM180 189q29 0 81 57q-51 57 -80 57q-25 0 -40 -15t-15 -41q0 -27 14.5 -42.5t39.5 -15.5z" />
    <glyph glyph-name="integral" unicode="&#x222b;" horiz-adv-x="327" 
d="M62 -180q-23 0 -30 1q-10 2 -10 10v106q0 10 10 10h15q41 0 41 57v546q0 190 177 190q23 0 30 -1q10 -2 10 -10v-106q0 -10 -10 -10h-15q-41 0 -41 -57v-546q0 -190 -177 -190z" />
    <glyph glyph-name="approxequal" unicode="&#x2248;" 
d="M289 293q-28 0 -72 23q-36 20 -52 20q-15 0 -25 -8t-23 -30q-5 -9 -13 -4l-73 38q-9 5 -4 13q48 99 122 99q28 0 72 -23q38 -20 53 -20t24.5 8t22.5 30q3 9 13 3l73 -37q9 -5 4 -13q-25 -51 -53.5 -75t-68.5 -24zM289 109q-26 0 -72 22q-34 21 -52 21q-15 0 -25 -8
t-23 -30q-5 -9 -13 -4l-73 37q-9 4 -4 14q48 99 122 99q28 0 72 -23q38 -20 53 -20t24.5 8t22.5 30q3 9 13 3l73 -37q9 -4 4 -14q-25 -51 -53.5 -74.5t-68.5 -23.5z" />
    <glyph glyph-name="notequal" unicode="&#x2260;" 
d="M398 311h-116l-35 -70h151q10 0 10 -10v-99q0 -10 -10 -10h-210l-40 -81q-6 -10 -15 -10h-70q-11 0 -6 11l39 80h-57q-10 0 -10 10v99q0 10 10 10h116l35 70h-151q-10 0 -10 10v99q0 10 10 10h210l41 81q6 10 14 10h71q11 0 6 -11l-40 -80h57q10 0 10 -10v-99
q0 -10 -10 -10z" />
    <glyph glyph-name="lessequal" unicode="&#x2264;" 
d="M398 155l-359 143q-10 3 -10 14v88q0 11 10 14l359 143q10 3 10 -7v-108q0 -9 -10 -13l-191 -72v-2l191 -71q10 -4 10 -13v-109q0 -10 -10 -7zM398 0h-359q-10 0 -10 10v99q0 10 10 10h359q10 0 10 -10v-99q0 -10 -10 -10z" />
    <glyph glyph-name="greaterequal" unicode="&#x2265;" 
d="M39 155q-10 -3 -10 7v109q0 9 10 13l190 71v2l-190 72q-10 4 -10 13v108q0 10 10 7l359 -143q10 -3 10 -14v-88q0 -11 -10 -14zM398 0h-359q-10 0 -10 10v99q0 10 10 10h359q10 0 10 -10v-99q0 -10 -10 -10z" />
    <glyph glyph-name="lozenge" unicode="&#x25ca;" horiz-adv-x="477" 
d="M295 -52h-113q-11 0 -15 10l-151 364q-3 7 0 14l151 364q4 10 15 10h113q12 0 16 -10l151 -364q3 -7 0 -14l-151 -364q-4 -10 -16 -10zM241 114h2l76 215l-80 215h-2l-79 -215z" />
    <glyph glyph-name="uniF8FF" unicode="&#xf8ff;" horiz-adv-x="443" 
d="M433 0h-423q-10 0 -10 10v660q0 10 10 10h423q10 0 10 -10v-660q0 -10 -10 -10zM365 67q6 0 6 6v534q0 6 -6 6h-287q-6 0 -6 -6v-534q0 -6 6 -6h287zM257 249h-75q-10 0 -10 10v26q0 28 17 53l33 51q19 29 19 58q0 13 -3 20q-5 13 -20 13q-14 0 -19 -13q-3 -7 -3 -33
q0 -11 -11 -9l-75 8q-9 0 -9 11q0 30 7 48q25 71 112 71t112 -71q7 -18 7 -44q0 -40 -26 -81l-33 -51q-13 -18 -13 -37v-20q0 -10 -10 -10zM257 114h-72q-10 0 -10 10v80q0 10 10 10h72q10 0 10 -10v-80q0 -10 -10 -10z" />
    <glyph glyph-name="CR" horiz-adv-x="0" 
 />
    <glyph glyph-name="grave.cap" horiz-adv-x="444" 
d="M313 747h-95q-9 0 -19 10l-110 122q-3 4 -1.5 7t6.5 3h120q9 0 16 -10l89 -122q3 -4 1 -7t-7 -3z" />
    <glyph glyph-name="acute.cap" horiz-adv-x="444" 
d="M230 747h-95q-5 0 -7 3t1 7l88 122q7 10 16 10h121q5 0 6.5 -3t-1.5 -7l-110 -122q-10 -10 -19 -10z" />
    <glyph glyph-name="circumflex.cap" horiz-adv-x="444" 
d="M369 740h-80q-10 0 -19 10l-47 56h-2l-47 -56q-9 -10 -19 -10h-81q-4 0 -5.5 3t1.5 7l94 137q7 10 17 10h82q10 0 17 -10l93 -137q3 -4 2 -7t-6 -3z" />
    <glyph glyph-name="caron.cap" horiz-adv-x="444" 
d="M263 734h-82q-10 0 -17 10l-94 137q-3 4 -1.5 7t5.5 3h81q10 0 19 -10l47 -56h2l47 56q9 10 19 10h80q5 0 6 -3t-2 -7l-93 -137q-7 -10 -17 -10z" />
    <glyph glyph-name="caron.alt" horiz-adv-x="444" 
d="M176 475q-10 0 -10 10v185q0 10 10 10h93q10 0 10 -10v-84q0 -14 -9 -24l-82 -81q-4 -6 -12 -6z" />
    <glyph glyph-name="tilde.cap" horiz-adv-x="444" 
d="M276 744q-26 0 -60 19q-28 18 -50 18q-31 0 -62 -31q-4 -4 -7.5 -3t-3.5 6v87q0 9 7 17q30 30 67 30q26 0 60 -19q28 -18 50 -18q31 0 62 31q4 4 7.5 3t3.5 -6v-87q0 -10 -7 -17q-30 -30 -67 -30z" />
    <glyph glyph-name="dieresis.cap" horiz-adv-x="444" 
d="M349 750h-91q-10 0 -10 10v110q0 10 10 10h91q10 0 10 -10v-110q0 -10 -10 -10zM186 750h-91q-10 0 -10 10v110q0 10 10 10h91q10 0 10 -10v-110q0 -10 -10 -10z" />
    <glyph glyph-name="macron.cap" horiz-adv-x="444" 
d="M344 761h-244q-10 0 -10 10v89q0 10 10 10h244q10 0 10 -10v-89q0 -10 -10 -10z" />
    <glyph glyph-name="breve.cap" horiz-adv-x="444" 
d="M222 731q-65 0 -102 39t-39 99q0 11 13 11h60q9 0 14 -11q16 -42 54 -42t54 42q5 11 14 11h60q13 0 13 -11q-2 -60 -39 -99t-102 -39z" />
    <glyph glyph-name="ring.cap" horiz-adv-x="444" 
d="M222 709q-44 0 -73.5 29t-29.5 72q0 44 29.5 73t73.5 29t73.5 -29t29.5 -73q0 -43 -29.5 -72t-73.5 -29zM222 767q17 0 29 12t12 31t-12 31.5t-29 12.5q-18 0 -29.5 -12.5t-11.5 -31.5t11.5 -31t29.5 -12z" />
    <glyph glyph-name="hungarumlaut.cap" horiz-adv-x="444" 
d="M318 747h-80q-11 0 -6 10l72 119q7 10 16 10h99q5 0 6 -3t-2 -7l-86 -119q-9 -10 -19 -10zM163 747h-81q-12 0 -5 10l71 119q7 10 16 10h99q11 0 5 -10l-87 -119q-7 -10 -18 -10z" />
    <glyph glyph-name="dotaccent.cap" horiz-adv-x="444" 
d="M287 750h-131q-10 0 -10 10v110q0 10 10 10h131q10 0 10 -10v-110q0 -10 -10 -10z" />
    <glyph glyph-name="commaaccent" horiz-adv-x="444" 
d="M173 -242q-11 0 -11 11v170q0 10 10 10h100q10 0 10 -10v-67q0 -14 -9 -24l-88 -84q-5 -6 -12 -6z" />
    <glyph glyph-name="commaaccent.alt" horiz-adv-x="444" 
d="M272 550h-100q-10 0 -10 10v67q0 14 10 24l87 84q6 6 13 6q10 0 10 -11v-170q0 -10 -10 -10z" />
    <glyph glyph-name="uni0394" horiz-adv-x="488" 
d="M473 0h-458q-10 0 -8 10l149 660q3 10 12 10h155q10 0 12 -10l146 -660q3 -10 -8 -10zM296 140q6 0 5 6l-54 313h-2l-56 -313q-1 -6 5 -6h102z" />
    <glyph glyph-name="uni03A9" horiz-adv-x="476" 
d="M438 0h-170q-10 0 -10 10v106q0 8 8 16q11 12 13.5 46t2.5 187q0 140 -5 156q-10 27 -39 27t-39 -27q-6 -19 -6 -156q0 -150 2.5 -185.5t14.5 -47.5q8 -10 8 -16v-106q0 -10 -10 -10h-170q-10 0 -10 10v114q0 10 10 10h42v1q-28 24 -38.5 67t-10.5 159q0 156 15 202
q40 127 192 127q151 0 191 -127q16 -45 16 -202q0 -115 -11 -158t-38 -68v-1h42q10 0 10 -10v-114q0 -10 -10 -10z" />
    <glyph glyph-name="uni03BC" horiz-adv-x="436" 
d="M391 0h-131q-10 0 -10 10v37h-1q-14 -38 -55 -50q-2 0 -5 1h-3v-168q0 -10 -10 -10h-131q-10 0 -10 10v647q0 10 10 10h131q10 0 10 -10v-311q0 -45 32 -45t32 45v311q0 10 10 10h131q10 0 10 -10v-467q0 -10 -10 -10z" />
    <glyph glyph-name="zero.onum" 
d="M218 -10q-136 0 -172 112q-14 44 -14 141q0 98 14 142q36 112 172 112q137 0 173 -112q13 -40 13 -142q0 -101 -13 -141q-36 -112 -173 -112zM218 118q25 0 30 21q4 12 4 104q0 93 -4 105q-6 21 -30 21q-23 0 -29 -21q-4 -12 -4 -105t4 -104q6 -21 29 -21z" />
    <glyph glyph-name="one.onum" 
d="M313 0h-131q-10 0 -10 10v325h-2l-90 -31q-12 -5 -12 8v119q0 11 8 14l92 38q8 4 17 4h128q10 0 10 -10v-467q0 -10 -10 -10z" />
    <glyph glyph-name="two.onum" 
d="M390 0h-345q-10 0 -10 10v97q0 12 8 18l161 117q27 20 36 35.5t9 46.5q0 16 -4 25q-7 20 -30 20t-30 -20q-4 -9 -4 -42q0 -12 -12 -10l-124 12q-10 1 -10 12q0 39 10 68q34 108 173 108q137 0 172 -107q10 -29 10 -66q0 -50 -17 -80.5t-54 -59.5l-78 -61v-1h139
q10 0 10 -10v-102q0 -10 -10 -10z" />
    <glyph glyph-name="three.onum" 
d="M215 -190q-136 0 -173 110q-10 29 -10 70q0 11 10 12l125 12q12 2 12 -10q0 -34 3 -45q8 -21 30 -21q23 0 31 21q3 10 3 66q0 53 -3 63q-9 24 -42 24h-34q-10 0 -10 10v114q0 10 5 15l75 100v3h-186q-10 0 -10 10v113q0 10 10 10h336q10 0 10 -10v-115q0 -8 -5 -15
l-89 -115v-2q64 -16 83 -77q11 -33 11 -128q0 -77 -10 -106q-35 -109 -172 -109z" />
    <glyph glyph-name="four.onum" 
d="M368 -180h-124q-10 0 -10 10v164q0 6 -6 6h-204q-10 0 -10 10v121q0 4 2 10l114 345q3 8 11 8h130q10 0 7 -11l-111 -348v-2h61q6 0 6 6v91q0 10 10 10h124q10 0 10 -10v-91q0 -6 5 -6h27q10 0 10 -10v-113q0 -10 -10 -10h-26q-6 0 -6 -6v-164q0 -10 -10 -10z" />
    <glyph glyph-name="five.onum" 
d="M221 -190q-136 0 -173 110q-10 29 -10 64q0 11 10 12l125 13q12 2 12 -10q0 -29 3 -40q8 -21 30 -21q23 0 31 21q3 10 3 77q0 66 -3 76q-7 21 -31 21q-25 0 -33 -24q-3 -10 -13 -10h-115q-9 0 -9 10v368q0 10 10 10h333q10 0 10 -10v-113q0 -10 -10 -10h-204q-6 0 -6 -6
v-114h2q27 23 77 23q104 0 131 -88q12 -36 12 -133q0 -88 -10 -117q-35 -109 -172 -109z" />
    <glyph glyph-name="six.onum" 
d="M219 -10q-138 0 -174 110q-11 33 -11 101q0 65 8.5 105.5t30.5 87.5l127 278q5 8 15 8h132q12 0 7 -12l-116 -261l2 -2q8 4 25 4q94 0 128 -99q11 -35 11 -109q0 -66 -10 -101q-36 -110 -175 -110zM219 118q24 0 30 21q4 9 4 62q0 52 -4 61q-6 21 -30 21t-30 -21
q-3 -11 -3 -61q0 -51 3 -62q6 -21 30 -21z" />
    <glyph glyph-name="seven.onum" 
d="M229 -180h-132q-10 0 -7 12l163 523v2h-81q-6 0 -6 -6v-50q0 -10 -10 -10h-109q-10 0 -10 10v176q0 10 10 10h348q10 0 10 -10v-105q0 -5 -2 -13l-161 -529q-3 -10 -13 -10z" />
    <glyph glyph-name="eight.onum" 
d="M219 -10q-138 0 -174 110q-11 33 -11 98q0 59 11 91q13 43 50 65v2q-36 22 -52 70q-9 30 -9 71q0 50 11 83q36 110 174 110q139 0 175 -110q10 -35 10 -83q0 -41 -9 -71q-16 -48 -51 -70v-2q35 -21 50 -65q10 -33 10 -91q0 -63 -10 -98q-36 -110 -175 -110zM219 413
q24 0 30 21q4 9 4 53q0 45 -4 54q-6 21 -30 21t-30 -21q-3 -11 -3 -54t3 -53q6 -21 30 -21zM219 118q24 0 30 21q4 9 4 63q0 53 -4 62q-6 21 -30 21t-30 -21q-3 -10 -3 -62t3 -63q6 -21 30 -21z" />
    <glyph glyph-name="nine.onum" 
d="M228 -180h-131q-12 0 -7 12l110 248q-2 0 -2 2q-10 -4 -25 -4q-94 0 -128 99q-12 33 -12 109q0 68 11 101q36 110 174 110q140 0 175 -110q10 -35 10 -101q0 -65 -8.5 -105.5t-30.5 -87.5l-121 -265q-5 -8 -15 -8zM218 203q24 0 30 21q4 11 4 62t-4 62q-6 21 -30 21
t-30 -21q-3 -12 -3 -62t3 -62q6 -21 30 -21z" />
    <glyph glyph-name="zero.prop" horiz-adv-x="438" 
d="M47 103q-14 44 -14 237t14 237q37 113 172 113t172 -113q14 -44 14 -237t-14 -237q-37 -113 -172 -113t-172 113zM189 139q6 -21 30 -21t30 21q4 11 4 201t-4 201q-6 21 -30 21t-30 -21q-4 -11 -4 -201t4 -201z" />
    <glyph glyph-name="one.prop" horiz-adv-x="334" 
d="M117 10v502h-2l-84 -59q-3 -2 -5.5 -2t-4 2.5t-1.5 6.5v134q0 8 8 15l88 65q7 6 16 6h126q10 0 10 -10v-660q0 -10 -10 -10h-131q-10 0 -10 10z" />
    <glyph glyph-name="two.prop" horiz-adv-x="426" 
d="M30 10v108q0 10 5 18l172 250q22 31 29 53t7 62q0 29 -3 40q-8 21 -30 21q-23 0 -31 -21q-3 -11 -3 -53q0 -12 -12 -10l-124 12q-10 1 -10 12q0 52 9 79q16 52 60.5 80.5t112.5 28.5q136 0 173 -109q9 -30 9 -80q0 -57 -11.5 -94.5t-43.5 -81.5l-134 -191v-1h179
q10 0 10 -10v-113q0 -10 -10 -10h-344q-10 0 -10 10z" />
    <glyph glyph-name="three.prop" horiz-adv-x="426" 
d="M40 99q-10 30 -10 71q0 11 10 12l124 12q12 2 12 -10q0 -37 4 -46q8 -20 30 -20q24 0 30 21q3 11 3 61t-3 61q-7 21 -39 21h-16q-10 0 -10 10v114q0 10 10 10h19q29 0 36 20q3 9 3 58q0 36 -3 47q-6 21 -30 21q-22 0 -30 -20q-4 -9 -4 -46q0 -12 -12 -10l-124 12
q-10 1 -10 12q0 41 10 71q35 109 172 109q136 0 172 -109q10 -29 10 -87q0 -48 -9 -72q-14 -42 -55 -66v-2q43 -24 56 -66q8 -23 8 -90q0 -70 -10 -99q-36 -109 -172 -109q-137 0 -172 109z" />
    <glyph glyph-name="four.prop" horiz-adv-x="451" 
d="M39 104q-10 0 -10 10v122q0 5 2 11l129 425q3 8 11 8h130q10 0 7 -10l-128 -431v-2h61q6 0 6 6v119q0 10 10 10h122q10 0 10 -10v-119q0 -6 5 -6h26q10 0 10 -10v-113q0 -10 -10 -10h-25q-6 0 -6 -6v-88q0 -10 -10 -10h-122q-10 0 -10 10v88q0 6 -6 6h-202z" />
    <glyph glyph-name="five.prop" horiz-adv-x="432" 
d="M45 99q-9 27 -9 66q0 11 10 12l124 12q12 2 12 -10q0 -29 3 -40q8 -21 31 -21q22 0 30 21q3 11 3 83t-3 83q-8 21 -31 21q-25 0 -33 -25q-3 -10 -13 -10h-115q-9 0 -9 10v369q0 10 10 10h333q10 0 10 -10v-113q0 -10 -10 -10h-204q-6 0 -6 -6v-115h2q28 24 77 24
q102 0 131 -88q12 -33 12 -140q0 -93 -9 -123q-37 -109 -173 -109q-68 0 -112.5 28.5t-60.5 80.5z" />
    <glyph glyph-name="six.prop" horiz-adv-x="433" 
d="M42 100q-10 30 -10 101q0 66 8.5 106.5t29.5 86.5l127 277q5 9 15 9h132q12 0 7 -12l-116 -261l2 -2q8 4 25 4q96 0 128 -99q11 -35 11 -109q0 -71 -10 -101q-36 -110 -175 -110q-138 0 -174 110zM186 139q8 -21 30 -21q23 0 31 21q3 11 3 62q0 50 -3 61q-8 21 -31 21
q-22 0 -30 -21q-3 -11 -3 -61q0 -51 3 -62z" />
    <glyph glyph-name="seven.prop" horiz-adv-x="423" 
d="M80 12l166 536v2h-81q-6 0 -6 -6v-49q0 -10 -10 -10h-109q-10 0 -10 10v175q0 10 10 10h348q10 0 10 -10v-106q0 -4 -2 -12l-164 -542q-3 -10 -13 -10h-132q-11 0 -7 12z" />
    <glyph glyph-name="eight.prop" horiz-adv-x="433" 
d="M42 100q-10 30 -10 98q0 62 10 91q13 43 50 65v2q-37 22 -51 70q-9 26 -9 71q0 53 10 83q36 110 174 110q139 0 175 -110q10 -30 10 -83q0 -45 -9 -71q-14 -47 -51 -70v-2q35 -21 50 -65q10 -29 10 -91q0 -68 -10 -98q-36 -110 -175 -110q-138 0 -174 110zM216 413
q23 0 31 21q3 10 3 53t-3 54q-8 21 -31 21q-22 0 -30 -21q-3 -11 -3 -54t3 -53q8 -21 30 -21zM186 139q8 -21 30 -21q23 0 31 21q3 11 3 63t-3 62q-8 21 -31 21q-22 0 -30 -21q-3 -10 -3 -62t3 -63z" />
    <glyph glyph-name="nine.prop" horiz-adv-x="433" 
d="M82 12l116 261l-2 2q-8 -4 -25 -4q-96 0 -128 99q-11 35 -11 109q0 71 10 101q36 110 175 110q138 0 174 -110q10 -30 10 -101q0 -66 -8.5 -106.5t-29.5 -86.5l-127 -277q-4 -9 -15 -9h-132q-12 0 -7 12zM217 397q23 0 30 21q3 10 3 61t-3 62q-8 21 -30 21q-23 0 -31 -21
q-3 -11 -3 -62t3 -61q8 -21 31 -21z" />
    <glyph glyph-name="Euro.prop" horiz-adv-x="448" 
d="M245 -10q-134 0 -169 111q-13 39 -13 127q0 6 -6 6h-33q-10 0 -10 10v66q0 10 10 10h33q6 0 6 6v30q0 6 -6 6h-33q-10 0 -10 10v65q0 10 10 10h33q6 0 6 6q0 87 13 126q35 111 169 111q84 0 129.5 -41t50.5 -114q1 -11 -9 -12l-123 -20q-10 -2 -12 9q-3 50 -34 50
q-21 0 -29 -21q-4 -13 -4 -88q0 -6 6 -6h126q10 0 10 -10l-10 -65q-1 -10 -10 -10h-116q-6 0 -6 -6v-30q0 -6 6 -6h111q10 0 10 -10l-10 -66q-1 -10 -10 -10h-101q-6 0 -6 -6q0 -76 4 -89q8 -21 29 -21q31 0 34 50q2 11 12 9l123 -20q10 -1 9 -12q-5 -73 -50.5 -114
t-129.5 -41z" />
    <glyph glyph-name="cent.prop" horiz-adv-x="416" 
d="M387 130q-6 -58 -40.5 -93.5t-93.5 -43.5v-80q0 -10 -10 -10h-65q-10 0 -10 10v81q-97 17 -125 105q-13 39 -13 144q0 106 13 145q28 88 125 105v80q0 10 10 10h65q10 0 10 -10v-79q59 -9 93.5 -44t40.5 -93q2 -11 -7 -12l-117 -20q-12 -1 -12 8q-4 36 -35 36
q-23 0 -31 -20q-4 -11 -4 -106q0 -94 4 -105q8 -20 31 -20q31 0 35 36q0 10 12 8l117 -20q9 -1 7 -12z" />
    <glyph glyph-name="dollar.prop" horiz-adv-x="426" 
d="M170 -7q-75 9 -109.5 55t-36.5 126q0 11 8 12l122 21q11 1 11 -9q1 -46 12 -63t34 -17q22 0 31 14.5t9 56.5q0 40 -11.5 58t-47.5 32l-41 16q-65 26 -93 70t-28 124q0 176 140 198v61q0 10 10 10h69q10 0 10 -10v-62q124 -20 137 -168q0 -10 -9 -11l-121 -19q-9 -2 -11 8
q-2 38 -11 52t-29 14t-28.5 -13t-8.5 -46t11.5 -49t48.5 -31l41 -16q67 -26 93.5 -70.5t26.5 -130.5q0 -190 -140 -212v-68q0 -10 -10 -10h-69q-10 0 -10 10v67z" />
    <glyph glyph-name="sterling.prop" horiz-adv-x="456" 
d="M410 0h-361q-10 0 -10 10v105q0 8 6 14q24 28 24 90v49q0 6 -6 6h-27q-10 0 -10 10v84q0 10 10 10h27q6 0 6 6v131q0 85 46.5 130t131.5 45q86 0 130.5 -43.5t46.5 -116.5q2 -10 -9 -12l-125 -19q-9 -1 -11 9q-1 30 -7.5 42t-22.5 12q-29 0 -29 -44v-134q0 -6 6 -6h102
q10 0 10 -10v-84q0 -10 -10 -10h-102q-6 0 -6 -6v-51q0 -60 -25 -86v-3h215q10 0 10 -10v-108q0 -10 -10 -10z" />
    <glyph glyph-name="florin.prop" horiz-adv-x="440" 
d="M377 307h-77l-43 -321q-12 -87 -58 -126.5t-137 -39.5h-30q-10 0 -10 10v104q0 10 10 10h14q29 0 43.5 11t18.5 38l43 314h-58q-10 0 -10 10v93q0 10 10 10h73l13 94q12 87 58 126.5t137 39.5h30q10 0 10 -10v-104q0 -10 -10 -10h-14q-29 0 -43.5 -11t-18.5 -38l-12 -87
h61q10 0 10 -10v-93q0 -10 -10 -10z" />
    <glyph glyph-name="yen.prop" horiz-adv-x="439" 
d="M285 0h-131q-10 0 -10 10v83q0 6 -6 6h-83q-10 0 -10 10v69q0 10 10 10h83q6 0 6 6v27q0 6 -6 6h-83q-10 0 -10 10v68q0 10 10 10h72v3l-112 352q-3 10 8 10h131q10 0 12 -10l54 -234h3l52 234q2 10 12 10h129q11 0 8 -10l-112 -352v-3h72q10 0 10 -10v-68q0 -10 -10 -10
h-83q-6 0 -6 -6v-27q0 -6 6 -6h83q10 0 10 -10v-69q0 -10 -10 -10h-83q-6 0 -6 -6v-83q0 -10 -10 -10z" />
    <glyph glyph-name="zero.onumprop" horiz-adv-x="436" 
d="M218 -10q-136 0 -172 112q-14 44 -14 141q0 98 14 142q36 112 172 112q137 0 173 -112q13 -40 13 -142q0 -101 -13 -141q-36 -112 -173 -112zM218 118q25 0 30 21q4 12 4 104q0 93 -4 105q-6 21 -30 21q-23 0 -29 -21q-4 -12 -4 -105t4 -104q6 -21 29 -21z" />
    <glyph glyph-name="one.onumprop" horiz-adv-x="331" 
d="M261 0h-131q-10 0 -10 10v325h-2l-90 -31q-12 -5 -12 8v119q0 11 8 14l92 38q8 4 17 4h128q10 0 10 -10v-467q0 -10 -10 -10z" />
    <glyph glyph-name="two.onumprop" horiz-adv-x="425" 
d="M385 0h-345q-10 0 -10 10v97q0 12 8 18l161 117q27 20 36 35.5t9 46.5q0 16 -4 25q-7 20 -30 20t-30 -20q-4 -9 -4 -42q0 -12 -12 -10l-124 12q-10 1 -10 12q0 39 10 68q34 108 173 108q137 0 172 -107q10 -29 10 -66q0 -50 -17 -80.5t-54 -59.5l-78 -61v-1h139
q10 0 10 -10v-102q0 -10 -10 -10z" />
    <glyph glyph-name="three.onumprop" horiz-adv-x="423" 
d="M209 -190q-136 0 -173 110q-10 29 -10 70q0 11 10 12l125 12q12 2 12 -10q0 -34 3 -45q8 -21 30 -21q23 0 31 21q3 10 3 66q0 53 -3 63q-9 24 -42 24h-34q-10 0 -10 10v114q0 10 5 15l75 100v3h-186q-10 0 -10 10v113q0 10 10 10h336q10 0 10 -10v-115q0 -8 -5 -15
l-89 -115v-2q64 -16 83 -77q11 -33 11 -128q0 -77 -10 -106q-35 -109 -172 -109z" />
    <glyph glyph-name="four.onumprop" horiz-adv-x="451" 
d="M380 -180h-124q-10 0 -10 10v164q0 6 -6 6h-204q-10 0 -10 10v121q0 4 2 10l114 345q3 8 11 8h130q10 0 7 -11l-111 -348v-2h61q6 0 6 6v91q0 10 10 10h124q10 0 10 -10v-91q0 -6 5 -6h27q10 0 10 -10v-113q0 -10 -10 -10h-26q-6 0 -6 -6v-164q0 -10 -10 -10z" />
    <glyph glyph-name="five.onumprop" horiz-adv-x="431" 
d="M217 -190q-136 0 -173 110q-10 29 -10 64q0 11 10 12l125 13q12 2 12 -10q0 -29 3 -40q8 -21 30 -21q23 0 31 21q3 10 3 77q0 66 -3 76q-7 21 -31 21q-25 0 -33 -24q-3 -10 -13 -10h-115q-9 0 -9 10v368q0 10 10 10h333q10 0 10 -10v-113q0 -10 -10 -10h-204q-6 0 -6 -6
v-114h2q27 23 77 23q104 0 131 -88q12 -36 12 -133q0 -88 -10 -117q-35 -109 -172 -109z" />
    <glyph glyph-name="six.onumprop" horiz-adv-x="434" 
d="M217 -10q-138 0 -174 110q-11 33 -11 101q0 65 8.5 105.5t30.5 87.5l127 278q5 8 15 8h132q12 0 7 -12l-116 -261l2 -2q8 4 25 4q94 0 128 -99q11 -35 11 -109q0 -66 -10 -101q-36 -110 -175 -110zM217 118q24 0 30 21q4 9 4 62q0 52 -4 61q-6 21 -30 21t-30 -21
q-3 -11 -3 -61q0 -51 3 -62q6 -21 30 -21z" />
    <glyph glyph-name="seven.onumprop" horiz-adv-x="425" 
d="M222 -180h-132q-10 0 -7 12l163 523v2h-81q-6 0 -6 -6v-50q0 -10 -10 -10h-109q-10 0 -10 10v176q0 10 10 10h348q10 0 10 -10v-105q0 -5 -2 -13l-161 -529q-3 -10 -13 -10z" />
    <glyph glyph-name="eight.onumprop" horiz-adv-x="434" 
d="M217 -10q-138 0 -174 110q-11 33 -11 98q0 59 11 91q13 43 50 65v2q-36 22 -52 70q-9 30 -9 71q0 50 11 83q36 110 174 110q139 0 175 -110q10 -35 10 -83q0 -41 -9 -71q-16 -48 -51 -70v-2q35 -21 50 -65q10 -33 10 -91q0 -63 -10 -98q-36 -110 -175 -110zM217 413
q24 0 30 21q4 9 4 53q0 45 -4 54q-6 21 -30 21t-30 -21q-3 -11 -3 -54t3 -53q6 -21 30 -21zM217 118q24 0 30 21q4 9 4 63q0 53 -4 62q-6 21 -30 21t-30 -21q-3 -10 -3 -62t3 -63q6 -21 30 -21z" />
    <glyph glyph-name="nine.onumprop" horiz-adv-x="434" 
d="M227 -180h-131q-12 0 -7 12l110 248q-2 0 -2 2q-10 -4 -25 -4q-94 0 -128 99q-12 33 -12 109q0 68 11 101q36 110 174 110q140 0 175 -110q10 -35 10 -101q0 -65 -8.5 -105.5t-30.5 -87.5l-121 -265q-5 -8 -15 -8zM217 203q24 0 30 21q4 11 4 62t-4 62q-6 21 -30 21
t-30 -21q-3 -12 -3 -62t3 -62q6 -21 30 -21z" />
    <glyph glyph-name="one.superior" horiz-adv-x="315" 
d="M226 430h-92q-10 0 -10 10v276h-2l-56 -33q-10 -6 -10 5v92q0 9 7 13l58 37q9 6 16 6h89q10 0 10 -10v-386q0 -10 -10 -10z" />
    <glyph glyph-name="two.superior" horiz-adv-x="315" 
d="M274 430h-228q-10 0 -10 10v71q0 10 6 16l114 141q21 24 21 50q0 18 -3 24q-5 11 -19 11q-17 0 -20 -12q-2 -6 -2 -29q0 -12 -12 -10l-84 9q-10 1 -10 12q0 30 6 48q11 34 43.5 53t81.5 19q102 0 125 -72q6 -18 6 -52q0 -48 -37 -98l-70 -94v-2h92q10 0 10 -10v-75
q0 -10 -10 -10z" />
    <glyph glyph-name="three.superior" horiz-adv-x="315" 
d="M157 423q-49 0 -81.5 19t-43.5 53q-6 17 -6 34q0 11 10 12l85 8q12 2 12 -10q0 -9 2 -15q4 -11 20 -11q15 0 19 13q2 8 2 25q0 14 -2 24q-4 14 -25 14h-7q-10 0 -10 10v77q0 10 10 10h11q17 0 21 12q2 4 2 21q0 13 -2 21q-4 13 -19 13q-16 0 -20 -11q-2 -6 -2 -15
q0 -12 -12 -10l-85 8q-10 1 -10 12q0 17 6 34q11 34 43.5 53t81.5 19t82 -19t44 -53q5 -18 5 -44q0 -25 -4 -40q-10 -29 -41 -44v-2q30 -15 40 -44q5 -15 5 -50q0 -34 -5 -52q-11 -34 -44 -53t-82 -19z" />
    <glyph glyph-name="a.alt01" horiz-adv-x="433" 
d="M388 0h-130q-10 0 -10 10v38h-1q-27 -58 -97 -58q-43 0 -68.5 18t-39.5 59q-15 47 -15 176q0 130 15 177q14 41 39.5 59t68.5 18q70 0 97 -58h1v38q0 10 10 10h130q10 0 10 -10v-467q0 -10 -10 -10zM213 118q22 0 30 22q4 12 4 103q0 92 -4 104q-8 22 -30 22
q-23 0 -31 -22q-4 -12 -4 -104q0 -91 4 -103q8 -22 31 -22z" />
    <glyph glyph-name="agrave.alt01" horiz-adv-x="433" 
d="M388 0h-130q-10 0 -10 10v38h-1q-27 -58 -97 -58q-43 0 -68.5 18t-39.5 59q-15 47 -15 176q0 130 15 177q14 41 39.5 59t68.5 18q70 0 97 -58h1v38q0 10 10 10h130q10 0 10 -10v-467q0 -10 -10 -10zM213 118q22 0 30 22q4 12 4 103q0 92 -4 104q-8 22 -30 22
q-23 0 -31 -22q-4 -12 -4 -104q0 -91 4 -103q8 -22 31 -22zM277 546h-96q-11 0 -18 10l-97 136q-3 4 -1.5 7t6.5 3h121q10 0 16 -10l75 -136q5 -10 -6 -10z" />
    <glyph glyph-name="aacute.alt01" horiz-adv-x="433" 
d="M388 0h-130q-10 0 -10 10v38h-1q-27 -58 -97 -58q-43 0 -68.5 18t-39.5 59q-15 47 -15 176q0 130 15 177q14 41 39.5 59t68.5 18q70 0 97 -58h1v38q0 10 10 10h130q10 0 10 -10v-467q0 -10 -10 -10zM213 118q22 0 30 22q4 12 4 103q0 92 -4 104q-8 22 -30 22
q-23 0 -31 -22q-4 -12 -4 -104q0 -91 4 -103q8 -22 31 -22zM254 546h-96q-11 0 -6 10l75 136q6 10 16 10h121q5 0 6.5 -3t-1.5 -7l-97 -136q-8 -10 -18 -10z" />
    <glyph glyph-name="acircumflex.alt01" horiz-adv-x="433" 
d="M388 0h-130q-10 0 -10 10v38h-1q-27 -58 -97 -58q-43 0 -68.5 18t-39.5 59q-15 47 -15 176q0 130 15 177q14 41 39.5 59t68.5 18q70 0 97 -58h1v38q0 10 10 10h130q10 0 10 -10v-467q0 -10 -10 -10zM213 118q22 0 30 22q4 12 4 103q0 92 -4 104q-8 22 -30 22
q-23 0 -31 -22q-4 -12 -4 -104q0 -91 4 -103q8 -22 31 -22zM371 545h-80q-10 0 -19 10l-47 56h-2l-47 -56q-9 -10 -19 -10h-81q-4 0 -5.5 3t1.5 7l94 136q7 10 17 10h82q10 0 17 -10l93 -136q3 -4 2 -7t-6 -3z" />
    <glyph glyph-name="atilde.alt01" horiz-adv-x="433" 
d="M388 0h-130q-10 0 -10 10v38h-1q-27 -58 -97 -58q-43 0 -68.5 18t-39.5 59q-15 47 -15 176q0 130 15 177q14 41 39.5 59t68.5 18q70 0 97 -58h1v38q0 10 10 10h130q10 0 10 -10v-467q0 -10 -10 -10zM213 118q22 0 30 22q4 12 4 103q0 92 -4 104q-8 22 -30 22
q-23 0 -31 -22q-4 -12 -4 -104q0 -91 4 -103q8 -22 31 -22zM278 548q-24 0 -60 20q-28 18 -50 18q-31 0 -62 -31q-4 -4 -7.5 -3t-3.5 6v87q0 9 7 16q31 31 67 31q27 0 60 -20q29 -17 50 -17q31 0 62 31q4 4 7.5 3t3.5 -6v-87q0 -10 -7 -17q-31 -31 -67 -31z" />
    <glyph glyph-name="adieresis.alt01" horiz-adv-x="433" 
d="M388 0h-130q-10 0 -10 10v38h-1q-27 -58 -97 -58q-43 0 -68.5 18t-39.5 59q-15 47 -15 176q0 130 15 177q14 41 39.5 59t68.5 18q70 0 97 -58h1v38q0 10 10 10h130q10 0 10 -10v-467q0 -10 -10 -10zM213 118q22 0 30 22q4 12 4 103q0 92 -4 104q-8 22 -30 22
q-23 0 -31 -22q-4 -12 -4 -104q0 -91 4 -103q8 -22 31 -22zM351 551h-91q-10 0 -10 10v110q0 10 10 10h91q10 0 10 -10v-110q0 -10 -10 -10zM188 551h-91q-10 0 -10 10v110q0 10 10 10h91q10 0 10 -10v-110q0 -10 -10 -10z" />
    <glyph glyph-name="amacron.alt01" horiz-adv-x="433" 
d="M388 0h-130q-10 0 -10 10v38h-1q-27 -58 -97 -58q-43 0 -68.5 18t-39.5 59q-15 47 -15 176q0 130 15 177q14 41 39.5 59t68.5 18q70 0 97 -58h1v38q0 10 10 10h130q10 0 10 -10v-467q0 -10 -10 -10zM213 118q22 0 30 22q4 12 4 103q0 92 -4 104q-8 22 -30 22
q-23 0 -31 -22q-4 -12 -4 -104q0 -91 4 -103q8 -22 31 -22zM346 563h-244q-10 0 -10 10v89q0 10 10 10h244q10 0 10 -10v-89q0 -10 -10 -10z" />
    <glyph glyph-name="abreve.alt01" horiz-adv-x="433" 
d="M388 0h-130q-10 0 -10 10v38h-1q-27 -58 -97 -58q-43 0 -68.5 18t-39.5 59q-15 47 -15 176q0 130 15 177q14 41 39.5 59t68.5 18q70 0 97 -58h1v38q0 10 10 10h130q10 0 10 -10v-467q0 -10 -10 -10zM213 118q22 0 30 22q4 12 4 103q0 92 -4 104q-8 22 -30 22
q-23 0 -31 -22q-4 -12 -4 -104q0 -91 4 -103q8 -22 31 -22zM224 541q-65 0 -102 39t-39 99q0 11 13 11h60q10 0 14 -11q17 -42 54 -42t54 42q4 11 14 11h60q13 0 13 -11q-2 -60 -39 -99t-102 -39z" />
    <glyph glyph-name="aring.alt01" horiz-adv-x="433" 
d="M388 0h-130q-10 0 -10 10v38h-1q-27 -58 -97 -58q-43 0 -68.5 18t-39.5 59q-15 47 -15 176q0 130 15 177q14 41 39.5 59t68.5 18q70 0 97 -58h1v38q0 10 10 10h130q10 0 10 -10v-467q0 -10 -10 -10zM213 118q22 0 30 22q4 12 4 103q0 92 -4 104q-8 22 -30 22
q-23 0 -31 -22q-4 -12 -4 -104q0 -91 4 -103q8 -22 31 -22zM219 528q-44 0 -73.5 28.5t-29.5 72.5t29.5 72.5t73.5 28.5t73.5 -28.5t29.5 -72.5t-29.5 -72.5t-73.5 -28.5zM219 586q17 0 29 12t12 31t-12 31t-29 12q-18 0 -29.5 -12t-11.5 -31t11.5 -31t29.5 -12z" />
    <glyph glyph-name="aringacute.alt01" horiz-adv-x="433" 
d="M260 768h-96q-5 0 -6.5 3t1.5 7l77 101q7 10 18 10h119q5 0 6.5 -3t-1.5 -7l-98 -101q-10 -10 -20 -10zM388 0h-130q-10 0 -10 10v38h-1q-27 -58 -97 -58q-43 0 -68.5 18t-39.5 59q-15 47 -15 176q0 130 15 177q14 41 39.5 59t68.5 18q70 0 97 -58h1v38q0 10 10 10h130
q10 0 10 -10v-467q0 -10 -10 -10zM213 118q22 0 30 22q4 12 4 103q0 92 -4 104q-8 22 -30 22q-23 0 -31 -22q-4 -12 -4 -104q0 -91 4 -103q8 -22 31 -22zM219 528q-44 0 -73.5 28.5t-29.5 72.5t29.5 72.5t73.5 28.5t73.5 -28.5t29.5 -72.5t-29.5 -72.5t-73.5 -28.5zM219 586
q17 0 29 12t12 31t-12 31t-29 12q-18 0 -29.5 -12t-11.5 -31t11.5 -31t29.5 -12z" />
    <glyph glyph-name="aogonek.alt01" horiz-adv-x="433" 
d="M315 -192q-47 0 -74.5 24.5t-27.5 67.5q0 52 50 100h-6q-9 0 -9 10v38h-1q-27 -58 -97 -58q-43 0 -68.5 18t-39.5 59q-15 47 -15 176q0 130 15 177q14 41 39.5 59t68.5 18q70 0 97 -58h1v38q0 10 10 10h130q10 0 10 -10v-467q0 -7 -7 -10q-70 -33 -70 -73q0 -21 19 -21
q8 0 15 3q9 5 12 -5l25 -63q3 -8 -5 -13q-28 -20 -72 -20zM213 118q22 0 30 22q4 12 4 103q0 92 -4 104q-8 22 -30 22q-23 0 -31 -22q-4 -12 -4 -104q0 -91 4 -103q8 -22 31 -22z" />
    <glyph glyph-name="ae.alt01" horiz-adv-x="612" 
d="M408 -10q-88 0 -132 53h-2q-24 -29 -52 -41t-70 -12q-58 0 -94.5 36t-36.5 111q0 84 45 120t114 36h44q6 0 6 6v22q0 27 -13 39t-46 12q-44 0 -80 -25q-12 -8 -15 3l-39 93q-3 10 5 15q60 39 152 39q74 0 114 -26h1q38 26 99 26q132 0 168 -110q13 -40 13 -179
q0 -10 -10 -10h-195q-6 0 -6 -6q0 -44 3 -56q7 -21 31 -21q27 0 37 31q3 9 12 8l115 -23q9 -1 7 -12q-12 -62 -58.5 -95.5t-116.5 -33.5zM441 293q6 0 6 6q0 48 -5 61q-6 21 -30 21t-30 -21q-4 -11 -4 -61q0 -6 6 -6h57zM190 102q18 0 29 12.5t11 35.5v42q0 6 -6 6h-21
q-47 0 -47 -50q0 -46 34 -46z" />
    <glyph glyph-name="aeacute.alt01" horiz-adv-x="612" 
d="M408 -10q-88 0 -132 53h-2q-24 -29 -52 -41t-70 -12q-58 0 -94.5 36t-36.5 111q0 84 45 120t114 36h44q6 0 6 6v22q0 27 -13 39t-46 12q-43 0 -81 -25q-10 -7 -14 3l-39 93q-3 10 5 15q60 39 152 39q74 0 114 -26h1q38 26 99 26q132 0 168 -110q13 -40 13 -179
q0 -10 -10 -10h-195q-6 0 -6 -6q0 -44 3 -56q7 -21 31 -21q27 0 37 31q3 9 12 8l115 -23q9 -1 7 -12q-12 -62 -58.5 -95.5t-116.5 -33.5zM441 293q6 0 6 6q0 48 -5 61q-6 21 -30 21t-30 -21q-4 -11 -4 -61q0 -6 6 -6h57zM190 102q18 0 29 12.5t11 35.5v42q0 6 -6 6h-21
q-47 0 -47 -50q0 -46 34 -46zM350 546h-96q-11 0 -6 10l75 136q6 10 16 10h121q5 0 6.5 -3t-1.5 -7l-97 -136q-8 -10 -18 -10z" />
    <glyph glyph-name="germandbls.alt01" horiz-adv-x="479" 
d="M223 -180q-10 0 -10 10v108q0 10 10 10q56 0 69 43q6 18 6 66q0 39 -6 55q-11 35 -46 35q-10 0 -10 10v103q0 8 4 15l50 95v2h-98q-6 0 -6 -6v-356q0 -10 -10 -10h-131q-10 0 -10 10v501q0 87 44.5 128t136.5 41h35q10 0 10 -10v-107q0 -10 -10 -10h-26q-39 0 -39 -35
v-25q0 -6 6 -6h242q10 0 10 -10v-90q0 -9 -3 -16l-63 -121v-2q42 -25 57 -76q14 -40 14 -115q0 -72 -12 -111q-21 -65 -73 -95.5t-141 -30.5z" />
    <glyph glyph-name="q.alt01" horiz-adv-x="433" 
d="M385 -180h-128q-10 0 -10 10v218h-1q-29 -58 -96 -58q-43 0 -68.5 18t-39.5 59q-15 47 -15 176q0 130 15 177q14 41 39.5 59t68.5 18q70 0 97 -58h1v38q0 10 10 10h130q10 0 10 -10v-518h1l42 34q8 5 14 -2l52 -73q6 -8 -2 -14l-107 -80q-5 -4 -13 -4zM213 118
q22 0 30 22q4 12 4 103q0 92 -4 104q-8 22 -30 22q-23 0 -31 -22q-4 -12 -4 -104q0 -91 4 -103q8 -22 31 -22z" />
    <glyph glyph-name="C.alt01" horiz-adv-x="453" 
d="M232 -10q-145 0 -186 123q-15 47 -15 227t15 227q41 123 186 123q97 0 147 -55t50 -158q0 -10 -10 -10h-136q-10 0 -10 10q0 39 -9 55t-30 16q-27 0 -34 -24q-6 -16 -6 -184t6 -184q7 -24 34 -24q21 0 30 16t9 55q0 10 10 10h136q10 0 10 -10q0 -103 -50 -158t-147 -55z
" />
    <glyph glyph-name="Cacute.alt01" horiz-adv-x="453" 
d="M232 -10q-145 0 -186 123q-15 47 -15 227t15 227q41 123 186 123q97 0 147 -55t50 -158q0 -10 -10 -10h-136q-10 0 -10 10q0 39 -9 55t-30 16q-27 0 -34 -24q-6 -16 -6 -184t6 -184q7 -24 34 -24q21 0 30 16t9 55q0 10 10 10h136q10 0 10 -10q0 -103 -50 -158t-147 -55z
M269 747h-95q-5 0 -7 3t1 7l88 122q7 10 16 10h121q5 0 6.5 -3t-1.5 -7l-110 -122q-10 -10 -19 -10z" />
    <glyph glyph-name="Ccircumflex.alt01" horiz-adv-x="453" 
d="M232 -10q-145 0 -186 123q-15 47 -15 227t15 227q41 123 186 123q97 0 147 -55t50 -158q0 -10 -10 -10h-136q-10 0 -10 10q0 39 -9 55t-30 16q-27 0 -34 -24q-6 -16 -6 -184t6 -184q7 -24 34 -24q21 0 30 16t9 55q0 10 10 10h136q10 0 10 -10q0 -103 -50 -158t-147 -55z
M382 740h-80q-10 0 -19 10l-47 56h-2l-47 -56q-9 -10 -19 -10h-81q-5 0 -6 3t2 7l94 137q7 10 17 10h82q10 0 17 -10l93 -137q3 -4 1.5 -7t-5.5 -3z" />
    <glyph glyph-name="Ccaron.alt01" horiz-adv-x="453" 
d="M232 -10q-145 0 -186 123q-15 47 -15 227t15 227q41 123 186 123q97 0 147 -55t50 -158q0 -10 -10 -10h-136q-10 0 -10 10q0 39 -9 55t-30 16q-27 0 -34 -24q-6 -16 -6 -184t6 -184q7 -24 34 -24q21 0 30 16t9 55q0 10 10 10h136q10 0 10 -10q0 -103 -50 -158t-147 -55z
M276 734h-82q-10 0 -17 10l-94 137q-3 4 -2 7t6 3h81q10 0 19 -10l47 -56h2l47 56q9 10 19 10h80q4 0 5.5 -3t-1.5 -7l-93 -137q-7 -10 -17 -10z" />
    <glyph glyph-name="Cdotaccent.alt01" horiz-adv-x="453" 
d="M300 750h-131q-10 0 -10 10v110q0 10 10 10h131q10 0 10 -10v-110q0 -10 -10 -10zM232 -10q-145 0 -186 123q-15 47 -15 227t15 227q41 123 186 123q97 0 147 -55t50 -158q0 -10 -10 -10h-136q-10 0 -10 10q0 39 -9 55t-30 16q-27 0 -34 -24q-6 -16 -6 -184t6 -184
q7 -24 34 -24q21 0 30 16t9 55q0 10 10 10h136q10 0 10 -10q0 -103 -50 -158t-147 -55z" />
    <glyph glyph-name="Ccedilla.alt01" horiz-adv-x="453" 
d="M104 -155l66 152q-92 21 -124 116q-15 47 -15 227t15 227q41 123 186 123q97 0 147 -55t50 -158q0 -10 -10 -10h-136q-10 0 -10 10q0 39 -9 55t-30 16q-27 0 -34 -24q-6 -16 -6 -184t6 -184q7 -24 34 -24q21 0 30 16t9 55q0 10 10 10h136q10 0 10 -10q0 -181 -145 -208
l-54 -150q-4 -10 -15 -10h-104q-10 0 -7 10z" />
    <glyph glyph-name="G.alt01" horiz-adv-x="469" 
d="M236 -10q-150 0 -190 124q-15 46 -15 226t15 226q40 124 190 124q97 0 149 -54.5t52 -158.5q0 -10 -10 -10h-135q-10 0 -10 10q0 38 -10.5 54.5t-34.5 16.5q-30 0 -38 -25q-5 -16 -5 -183q0 -166 5 -181q8 -27 41 -27t41 27q5 14 5 91q0 6 -6 6h-31q-10 0 -10 10v103
q0 10 10 10h179q10 0 10 -10v-29q0 -179 -15 -225q-41 -125 -187 -125z" />
    <glyph glyph-name="Gcircumflex.alt01" horiz-adv-x="469" 
d="M236 -10q-150 0 -190 124q-15 46 -15 226t15 226q40 124 190 124q97 0 149 -54.5t52 -158.5q0 -10 -10 -10h-135q-10 0 -10 10q0 38 -10.5 54.5t-34.5 16.5q-30 0 -38 -25q-5 -16 -5 -183q0 -166 5 -181q8 -27 41 -27t41 27q5 14 5 91q0 6 -6 6h-31q-10 0 -10 10v103
q0 10 10 10h179q10 0 10 -10v-29q0 -179 -15 -225q-41 -125 -187 -125zM382 740h-80q-10 0 -19 10l-47 56h-2l-47 -56q-9 -10 -19 -10h-81q-5 0 -6 3t2 7l94 137q7 10 17 10h82q10 0 17 -10l93 -137q3 -4 1.5 -7t-5.5 -3z" />
    <glyph glyph-name="Gbreve.alt01" horiz-adv-x="469" 
d="M234 731q-65 0 -102 39t-39 99q0 11 13 11h60q9 0 14 -11q16 -42 54 -42t54 42q5 11 14 11h60q13 0 13 -11q-2 -60 -39 -99t-102 -39zM236 -10q-150 0 -190 124q-15 46 -15 226t15 226q40 124 190 124q97 0 149 -54.5t52 -158.5q0 -10 -10 -10h-135q-10 0 -10 10
q0 38 -10.5 54.5t-34.5 16.5q-30 0 -38 -25q-5 -16 -5 -183q0 -166 5 -181q8 -27 41 -27t41 27q5 14 5 91q0 6 -6 6h-31q-10 0 -10 10v103q0 10 10 10h179q10 0 10 -10v-29q0 -179 -15 -225q-41 -125 -187 -125z" />
    <glyph glyph-name="Gdotaccent.alt01" horiz-adv-x="469" 
d="M300 750h-131q-10 0 -10 10v110q0 10 10 10h131q10 0 10 -10v-110q0 -10 -10 -10zM236 -10q-150 0 -190 124q-15 46 -15 226t15 226q40 124 190 124q97 0 149 -54.5t52 -158.5q0 -10 -10 -10h-135q-10 0 -10 10q0 38 -10.5 54.5t-34.5 16.5q-30 0 -38 -25q-5 -16 -5 -183
q0 -166 5 -181q8 -27 41 -27t41 27q5 14 5 91q0 6 -6 6h-31q-10 0 -10 10v103q0 10 10 10h179q10 0 10 -10v-29q0 -179 -15 -225q-41 -125 -187 -125z" />
    <glyph glyph-name="Gcommaaccent.alt01" horiz-adv-x="469" 
d="M185 -242q-11 0 -11 11v170q0 10 10 10h100q10 0 10 -10v-67q0 -14 -9 -24l-88 -84q-5 -6 -12 -6zM236 -10q-150 0 -190 124q-15 46 -15 226t15 226q40 124 190 124q97 0 149 -54.5t52 -158.5q0 -10 -10 -10h-135q-10 0 -10 10q0 38 -10.5 54.5t-34.5 16.5q-30 0 -38 -25
q-5 -16 -5 -183q0 -166 5 -181q8 -27 41 -27t41 27q5 14 5 91q0 6 -6 6h-31q-10 0 -10 10v103q0 10 10 10h179q10 0 10 -10v-29q0 -179 -15 -225q-41 -125 -187 -125z" />
    <glyph glyph-name="I.alt01" horiz-adv-x="312" 
d="M277 0h-242q-10 0 -10 10v118q0 10 10 10h36q6 0 6 6v392q0 6 -6 6h-36q-10 0 -10 10v118q0 10 10 10h242q10 0 10 -10v-118q0 -10 -10 -10h-35q-6 0 -6 -6v-392q0 -6 6 -6h35q10 0 10 -10v-118q0 -10 -10 -10z" />
    <glyph glyph-name="Igrave.alt01" horiz-adv-x="312" 
d="M277 0h-242q-10 0 -10 10v118q0 10 10 10h36q6 0 6 6v392q0 6 -6 6h-36q-10 0 -10 10v118q0 10 10 10h242q10 0 10 -10v-118q0 -10 -10 -10h-35q-6 0 -6 -6v-392q0 -6 6 -6h35q10 0 10 -10v-118q0 -10 -10 -10zM212 747h-95q-9 0 -19 10l-110 122q-3 4 -1.5 7t6.5 3h120
q9 0 16 -10l89 -122q3 -4 1 -7t-7 -3z" />
    <glyph glyph-name="Iacute.alt01" horiz-adv-x="312" 
d="M277 0h-242q-10 0 -10 10v118q0 10 10 10h36q6 0 6 6v392q0 6 -6 6h-36q-10 0 -10 10v118q0 10 10 10h242q10 0 10 -10v-118q0 -10 -10 -10h-35q-6 0 -6 -6v-392q0 -6 6 -6h35q10 0 10 -10v-118q0 -10 -10 -10zM206 747h-95q-5 0 -7 3t1 7l88 122q7 10 16 10h121
q5 0 6.5 -3t-1.5 -7l-110 -122q-10 -10 -19 -10z" />
    <glyph glyph-name="Ibreve.alt01" horiz-adv-x="312" 
d="M277 0h-242q-10 0 -10 10v118q0 10 10 10h36q6 0 6 6v392q0 6 -6 6h-36q-10 0 -10 10v118q0 10 10 10h242q10 0 10 -10v-118q0 -10 -10 -10h-35q-6 0 -6 -6v-392q0 -6 6 -6h35q10 0 10 -10v-118q0 -10 -10 -10zM157 731q-65 0 -102 39t-39 99q0 11 13 11h60q9 0 14 -11
q16 -42 54 -42t54 42q5 11 14 11h60q13 0 13 -11q-2 -60 -39 -99t-102 -39z" />
    <glyph glyph-name="Icircumflex.alt01" horiz-adv-x="312" 
d="M277 0h-242q-10 0 -10 10v118q0 10 10 10h36q6 0 6 6v392q0 6 -6 6h-36q-10 0 -10 10v118q0 10 10 10h242q10 0 10 -10v-118q0 -10 -10 -10h-35q-6 0 -6 -6v-392q0 -6 6 -6h35q10 0 10 -10v-118q0 -10 -10 -10zM304 740h-80q-10 0 -19 10l-47 56h-2l-47 -56
q-9 -10 -19 -10h-81q-5 0 -6 3t2 7l94 137q7 10 17 10h82q10 0 17 -10l93 -137q3 -4 1.5 -7t-5.5 -3z" />
    <glyph glyph-name="Itilde.alt01" horiz-adv-x="312" 
d="M277 0h-242q-10 0 -10 10v118q0 10 10 10h36q6 0 6 6v392q0 6 -6 6h-36q-10 0 -10 10v118q0 10 10 10h242q10 0 10 -10v-118q0 -10 -10 -10h-35q-6 0 -6 -6v-392q0 -6 6 -6h35q10 0 10 -10v-118q0 -10 -10 -10zM211 744q-26 0 -60 19q-28 18 -50 18q-31 0 -62 -31
q-4 -4 -7.5 -3t-3.5 6v87q0 9 7 17q30 30 67 30q26 0 60 -19q28 -18 50 -18q31 0 62 31q4 4 7.5 3t3.5 -6v-87q0 -10 -7 -17q-30 -30 -67 -30z" />
    <glyph glyph-name="Idieresis.alt01" horiz-adv-x="312" 
d="M277 0h-242q-10 0 -10 10v118q0 10 10 10h36q6 0 6 6v392q0 6 -6 6h-36q-10 0 -10 10v118q0 10 10 10h242q10 0 10 -10v-118q0 -10 -10 -10h-35q-6 0 -6 -6v-392q0 -6 6 -6h35q10 0 10 -10v-118q0 -10 -10 -10zM284 750h-91q-10 0 -10 10v110q0 10 10 10h91q10 0 10 -10
v-110q0 -10 -10 -10zM121 750h-91q-10 0 -10 10v110q0 10 10 10h91q10 0 10 -10v-110q0 -10 -10 -10z" />
    <glyph glyph-name="Imacron.alt01" horiz-adv-x="312" 
d="M277 0h-242q-10 0 -10 10v118q0 10 10 10h36q6 0 6 6v392q0 6 -6 6h-36q-10 0 -10 10v118q0 10 10 10h242q10 0 10 -10v-118q0 -10 -10 -10h-35q-6 0 -6 -6v-392q0 -6 6 -6h35q10 0 10 -10v-118q0 -10 -10 -10zM279 761h-244q-10 0 -10 10v89q0 10 10 10h244q10 0 10 -10
v-89q0 -10 -10 -10z" />
    <glyph glyph-name="Idotaccent.alt01" horiz-adv-x="312" 
d="M277 0h-242q-10 0 -10 10v118q0 10 10 10h36q6 0 6 6v392q0 6 -6 6h-36q-10 0 -10 10v118q0 10 10 10h242q10 0 10 -10v-118q0 -10 -10 -10h-35q-6 0 -6 -6v-392q0 -6 6 -6h35q10 0 10 -10v-118q0 -10 -10 -10zM222 750h-131q-10 0 -10 10v110q0 10 10 10h131
q10 0 10 -10v-110q0 -10 -10 -10z" />
    <glyph glyph-name="Iogonek.alt01" horiz-adv-x="312" 
d="M162 -192q-47 0 -74.5 24.5t-27.5 67.5q0 58 42 100h-67q-10 0 -10 10v118q0 10 10 10h36q6 0 6 6v392q0 6 -6 6h-36q-10 0 -10 10v118q0 10 10 10h242q10 0 10 -10v-118q0 -10 -10 -10h-35q-6 0 -6 -6v-392q0 -6 6 -6h35q10 0 10 -10v-118q0 -10 -10 -10h-51
q-58 -43 -58 -73q0 -21 19 -21q7 0 15 3q9 5 12 -5l25 -63q3 -8 -5 -13q-28 -20 -72 -20z" />
    <glyph glyph-name="Z.alt01" horiz-adv-x="388" 
d="M333 281h-89l-58 -137v-2h165q10 0 10 -10v-122q0 -10 -10 -10h-314q-10 0 -10 10v117q0 1 3 10l60 144h-35q-10 0 -10 10v105q0 10 10 10h88l55 130v2h-152q-10 0 -10 10v122q0 10 10 10h302q10 0 10 -10v-118q0 -4 -2 -10l-58 -136h35q10 0 10 -10v-105q0 -10 -10 -10z
" />
    <glyph glyph-name="Zacute.alt01" horiz-adv-x="388" 
d="M237 747h-95q-5 0 -7 3t1 7l88 122q7 10 16 10h121q5 0 6.5 -3t-1.5 -7l-110 -122q-10 -10 -19 -10zM333 281h-89l-58 -137v-2h165q10 0 10 -10v-122q0 -10 -10 -10h-314q-10 0 -10 10v117q0 1 3 10l60 144h-35q-10 0 -10 10v105q0 10 10 10h88l55 130v2h-152
q-10 0 -10 10v122q0 10 10 10h302q10 0 10 -10v-118q0 -4 -2 -10l-58 -136h35q10 0 10 -10v-105q0 -10 -10 -10z" />
    <glyph glyph-name="Zcaron.alt01" horiz-adv-x="388" 
d="M238 734h-82q-10 0 -17 10l-94 137q-3 4 -2 7t6 3h81q10 0 19 -10l47 -56h2l47 56q9 10 19 10h80q4 0 5.5 -3t-1.5 -7l-93 -137q-7 -10 -17 -10zM333 281h-89l-58 -137v-2h165q10 0 10 -10v-122q0 -10 -10 -10h-314q-10 0 -10 10v117q0 1 3 10l60 144h-35q-10 0 -10 10
v105q0 10 10 10h88l55 130v2h-152q-10 0 -10 10v122q0 10 10 10h302q10 0 10 -10v-118q0 -4 -2 -10l-58 -136h35q10 0 10 -10v-105q0 -10 -10 -10z" />
    <glyph glyph-name="Zdotaccent.alt01" horiz-adv-x="388" 
d="M262 750h-131q-10 0 -10 10v110q0 10 10 10h131q10 0 10 -10v-110q0 -10 -10 -10zM333 281h-89l-58 -137v-2h165q10 0 10 -10v-122q0 -10 -10 -10h-314q-10 0 -10 10v117q0 1 3 10l60 144h-35q-10 0 -10 10v105q0 10 10 10h88l55 130v2h-152q-10 0 -10 10v122q0 10 10 10
h302q10 0 10 -10v-118q0 -4 -2 -10l-58 -136h35q10 0 10 -10v-105q0 -10 -10 -10z" />
    <glyph glyph-name="zero.alt01" 
d="M218 -10q-135 0 -172 113q-14 44 -14 237t14 237q37 113 172 113q136 0 173 -113q13 -40 13 -237t-13 -237q-37 -113 -173 -113zM182 340v-43l72 195q0 33 -3 48q-7 22 -33 22q-25 0 -32 -22q-4 -12 -4 -200zM218 118q26 0 33 22q4 12 4 200v46l-73 -194q1 -45 4 -52
q7 -22 32 -22z" />
    <glyph glyph-name="one.alt01" 
d="M395 0h-310q-10 0 -10 10v118q0 10 10 10h73q6 0 6 6v368h-2l-84 -59q-4 -3 -7.5 -1.5t-3.5 7.5v135q0 8 7 14l89 66q7 6 15 6h127q10 0 10 -10v-526q0 -6 6 -6h74q10 0 10 -10v-118q0 -10 -10 -10z" />
    <glyph glyph-name="six.alt01" 
d="M220 -10q-136 0 -173 112q-11 37 -11 108v281q0 199 191 199q95 0 155 -47q8 -5 3 -14l-57 -95q-6 -9 -14 -3q-40 25 -70 25q-57 0 -57 -60v-86h1q22 18 65 18q108 0 141 -99q11 -35 11 -119q0 -71 -11 -108q-37 -112 -174 -112zM220 118q23 0 31 21q3 11 3 71
q0 58 -3 69q-7 21 -31 21q-22 0 -30 -21q-3 -11 -3 -69q0 -60 3 -71q8 -21 30 -21z" />
    <glyph glyph-name="seven.alt01" 
d="M377 251h-69l-73 -241q-3 -10 -13 -10h-132q-12 0 -7 12l74 239h-64q-10 0 -10 10v101q0 10 10 10h101l55 176v2h-206q-10 0 -10 10v110q0 10 10 10h348q10 0 10 -10v-105q0 -5 -2 -13l-55 -180h33q10 0 10 -10v-101q0 -10 -10 -10z" />
    <glyph glyph-name="nine.alt01" 
d="M214 -10q-95 0 -155 47q-8 5 -3 14l57 95q6 9 14 3q40 -25 70 -25q57 0 57 60v86h-1q-22 -18 -65 -18q-108 0 -141 99q-11 35 -11 119q0 71 11 108q37 112 174 112q136 0 173 -112q11 -37 11 -108v-281q0 -199 -191 -199zM221 380q23 0 30 21q3 10 3 69q0 60 -3 71
q-8 21 -30 21q-23 0 -31 -21q-3 -11 -3 -71q0 -58 3 -69q8 -21 31 -21z" />
    <glyph glyph-name="zero.alt02" horiz-adv-x="438" 
d="M219 -10q-135 0 -172 113q-14 44 -14 237t14 237q37 113 172 113q136 0 173 -113q13 -40 13 -237t-13 -237q-37 -113 -173 -113zM183 340v-43l72 195q0 33 -3 48q-7 22 -33 22q-25 0 -32 -22q-4 -12 -4 -200zM219 118q26 0 33 22q4 12 4 200v46l-73 -194q1 -45 4 -52
q7 -22 32 -22z" />
    <glyph glyph-name="one.alt02" horiz-adv-x="369" 
d="M350 0h-310q-10 0 -10 10v118q0 10 10 10h73q6 0 6 6v368h-2l-84 -59q-4 -3 -7.5 -1.5t-3.5 7.5v135q0 8 7 14l89 66q7 6 15 6h127q10 0 10 -10v-526q0 -6 6 -6h74q10 0 10 -10v-118q0 -10 -10 -10z" />
    <glyph glyph-name="six.alt02" horiz-adv-x="432" 
d="M217 -10q-136 0 -173 112q-11 37 -11 108v281q0 199 191 199q95 0 155 -47q8 -5 3 -14l-57 -95q-6 -9 -14 -3q-40 25 -70 25q-57 0 -57 -60v-86h1q22 18 65 18q108 0 141 -99q11 -35 11 -119q0 -71 -11 -108q-37 -112 -174 -112zM217 118q23 0 31 21q3 11 3 71
q0 58 -3 69q-8 21 -31 21t-30 -21q-3 -11 -3 -69q0 -60 3 -71q8 -21 30 -21z" />
    <glyph glyph-name="seven.alt02" horiz-adv-x="413" 
d="M364 251h-69l-73 -241q-3 -10 -13 -10h-132q-11 0 -7 12l74 239h-64q-10 0 -10 10v101q0 10 10 10h101l55 176v2h-206q-10 0 -10 10v110q0 10 10 10h348q10 0 10 -10v-105q0 -5 -2 -13l-55 -180h33q10 0 10 -10v-101q0 -10 -10 -10z" />
    <glyph glyph-name="nine.alt02" horiz-adv-x="432" 
d="M208 -10q-95 0 -155 47q-8 5 -3 14l57 95q6 9 14 3q40 -25 70 -25q57 0 57 60v86h-1q-22 -18 -65 -18q-108 0 -141 99q-11 35 -11 119q0 71 11 108q37 112 174 112q136 0 173 -112q11 -37 11 -108v-281q0 -199 -191 -199zM215 380q23 0 30 21q3 10 3 69q0 60 -3 71
q-8 21 -30 21q-23 0 -31 -21q-3 -11 -3 -71q0 -58 3 -69q8 -21 31 -21z" />
    <glyph glyph-name="zero.nominator" horiz-adv-x="315" 
d="M158 267q-99 0 -126 79q-8 25 -8 131t8 131q27 79 126 79q100 0 125 -79q8 -25 8 -131t-8 -131q-25 -79 -125 -79zM158 357q14 0 19 14q2 6 2 106t-2 106q-5 14 -19 14q-15 0 -20 -14q-2 -6 -2 -106t2 -106q5 -14 20 -14z" />
    <glyph glyph-name="one.nominator" horiz-adv-x="315" 
d="M226 274h-92q-10 0 -10 10v276h-2l-56 -33q-10 -6 -10 5v92q0 9 7 13l58 37q9 6 16 6h89q10 0 10 -10v-386q0 -10 -10 -10z" />
    <glyph glyph-name="two.nominator" horiz-adv-x="315" 
d="M274 274h-228q-10 0 -10 10v71q0 10 6 16l114 141q21 24 21 50q0 18 -3 24q-5 11 -19 11q-17 0 -20 -12q-2 -6 -2 -29q0 -12 -12 -10l-84 9q-10 1 -10 12q0 30 6 48q11 34 43.5 53t81.5 19q102 0 125 -72q6 -18 6 -52q0 -48 -37 -98l-70 -94v-2h92q10 0 10 -10v-75
q0 -10 -10 -10z" />
    <glyph glyph-name="three.nominator" horiz-adv-x="315" 
d="M157 267q-49 0 -81.5 19t-43.5 53q-6 17 -6 34q0 11 10 12l85 8q12 2 12 -10q0 -9 2 -15q4 -11 20 -11q15 0 19 13q2 8 2 25q0 14 -2 24q-4 14 -25 14h-7q-10 0 -10 10v77q0 10 10 10h11q17 0 21 12q2 4 2 21q0 13 -2 21q-4 13 -19 13q-16 0 -20 -11q-2 -6 -2 -15
q0 -12 -12 -10l-85 8q-10 1 -10 12q0 17 6 34q11 34 43.5 53t81.5 19t82 -19t44 -53q5 -18 5 -44q0 -25 -4 -40q-10 -29 -41 -44v-2q30 -15 40 -44q5 -15 5 -50q0 -34 -5 -52q-11 -34 -44 -53t-82 -19z" />
    <glyph glyph-name="four.nominator" horiz-adv-x="315" 
d="M265 274h-82q-10 0 -10 10v41q0 6 -6 6h-137q-10 0 -10 10v79q0 7 3 16l81 234q3 10 13 10h92q10 0 7 -10l-83 -242v-3h34q6 0 6 6v60q0 10 10 10h82q10 0 10 -10v-60q0 -6 5 -6h9q10 0 10 -10v-74q0 -10 -10 -10h-8q-6 0 -6 -6v-41q0 -10 -10 -10z" />
    <glyph glyph-name="five.nominator" horiz-adv-x="315" 
d="M158 267q-49 0 -82 19t-44 53q-5 14 -5 30q0 11 10 12l84 9q12 2 12 -10q0 -7 3 -13q4 -10 19 -10q14 0 19 12q3 6 3 38q0 31 -3 37q-5 12 -19 12t-21 -15q-3 -7 -11 -7h-80q-10 0 -10 10v226q0 10 10 10h230q10 0 10 -10v-76q0 -10 -10 -10h-135q-6 0 -6 -6v-48h2
q14 11 52 11q78 0 96 -61q7 -21 7 -73q0 -48 -7 -68q-23 -72 -124 -72z" />
    <glyph glyph-name="six.nominator" horiz-adv-x="315" 
d="M158 267q-49 0 -83 19t-45 53q-6 19 -6 59q0 60 29 115l82 157q6 10 14 10h97q12 0 7 -10l-75 -147l1 -1q6 2 14 2q70 0 91 -65q7 -20 7 -61q0 -40 -6 -59q-11 -34 -44.5 -53t-82.5 -19zM179 398q0 18 -2 26q-4 13 -19 13q-16 0 -20 -13q-2 -8 -2 -26q0 -20 2 -28
q4 -13 20 -13q15 0 19 13q2 8 2 28z" />
    <glyph glyph-name="seven.nominator" horiz-adv-x="315" 
d="M172 274h-93q-10 0 -7 10l101 301v2h-37q-6 0 -6 -6v-29q0 -10 -10 -10h-80q-10 0 -10 10v118q0 10 10 10h238q10 0 10 -10v-68q0 -11 -3 -20l-100 -298q-3 -10 -13 -10z" />
    <glyph glyph-name="eight.nominator" horiz-adv-x="315" 
d="M158 267q-49 0 -83 19.5t-45 53.5q-6 18 -6 52q0 30 5 47q11 31 38 46v1q-30 19 -39 47q-4 12 -4 33q0 30 6 48q11 34 45 53.5t83 19.5q48 0 82 -19.5t45 -53.5q6 -18 6 -48q0 -21 -4 -33q-9 -28 -39 -47v-1q27 -15 38 -46q5 -17 5 -47q0 -34 -6 -52q-11 -34 -45 -53.5
t-82 -19.5zM179 562q0 16 -2 22q-4 13 -19 13q-16 0 -20 -13q-2 -6 -2 -22q0 -17 2 -23q4 -13 20 -13q15 0 19 13q2 6 2 23zM179 397q0 18 -2 26q-4 13 -19 13q-16 0 -20 -13q-2 -8 -2 -26q0 -19 2 -27q4 -13 20 -13q15 0 19 13q2 8 2 27z" />
    <glyph glyph-name="nine.nominator" horiz-adv-x="315" 
d="M166 274h-97q-12 0 -7 10l75 147l-1 1q-6 -2 -14 -2q-70 0 -91 65q-7 20 -7 61q0 40 6 59q11 34 44.5 53t82.5 19t83 -19t45 -53q6 -19 6 -59q0 -60 -29 -115l-82 -157q-6 -10 -14 -10zM157 517q16 0 20 13q2 8 2 26q0 20 -2 28q-4 13 -20 13q-15 0 -19 -13q-2 -8 -2 -28
q0 -18 2 -26q4 -13 19 -13z" />
    <glyph glyph-name="zero.denominator" horiz-adv-x="315" 
d="M158 -7q-99 0 -126 79q-8 25 -8 131t8 131q27 79 126 79q100 0 125 -79q8 -25 8 -131t-8 -131q-25 -79 -125 -79zM158 83q14 0 19 14q2 6 2 106t-2 106q-5 14 -19 14q-15 0 -20 -14q-2 -6 -2 -106t2 -106q5 -14 20 -14z" />
    <glyph glyph-name="one.denominator" horiz-adv-x="315" 
d="M226 0h-92q-10 0 -10 10v276h-2l-56 -33q-10 -6 -10 5v92q0 9 7 13l58 37q9 6 16 6h89q10 0 10 -10v-386q0 -10 -10 -10z" />
    <glyph glyph-name="two.denominator" horiz-adv-x="315" 
d="M274 0h-228q-10 0 -10 10v71q0 10 6 16l114 141q21 24 21 50q0 18 -3 24q-5 11 -19 11q-17 0 -20 -12q-2 -6 -2 -29q0 -12 -12 -10l-84 9q-10 1 -10 12q0 30 6 48q11 34 43.5 53t81.5 19q102 0 125 -72q6 -18 6 -52q0 -48 -37 -98l-70 -94v-2h92q10 0 10 -10v-75
q0 -10 -10 -10z" />
    <glyph glyph-name="three.denominator" horiz-adv-x="315" 
d="M157 -7q-49 0 -81.5 19t-43.5 53q-6 17 -6 34q0 11 10 12l85 8q12 2 12 -10q0 -9 2 -15q4 -11 20 -11q15 0 19 13q2 8 2 25q0 14 -2 24q-4 14 -25 14h-7q-10 0 -10 10v77q0 10 10 10h11q17 0 21 12q2 4 2 21q0 13 -2 21q-4 13 -19 13q-16 0 -20 -11q-2 -6 -2 -15
q0 -12 -12 -10l-85 8q-10 1 -10 12q0 17 6 34q11 34 43.5 53t81.5 19t82 -19t44 -53q5 -18 5 -44q0 -25 -4 -40q-10 -29 -41 -44v-2q30 -15 40 -44q5 -15 5 -50q0 -34 -5 -52q-11 -34 -44 -53t-82 -19z" />
    <glyph glyph-name="four.denominator" horiz-adv-x="315" 
d="M265 0h-82q-10 0 -10 10v41q0 6 -6 6h-137q-10 0 -10 10v79q0 7 3 16l81 234q3 10 13 10h92q10 0 7 -10l-83 -242v-3h34q6 0 6 6v60q0 10 10 10h82q10 0 10 -10v-60q0 -6 5 -6h9q10 0 10 -10v-74q0 -10 -10 -10h-8q-6 0 -6 -6v-41q0 -10 -10 -10z" />
    <glyph glyph-name="five.denominator" horiz-adv-x="315" 
d="M158 -7q-49 0 -82 19t-44 53q-5 14 -5 30q0 11 10 12l84 9q12 2 12 -10q0 -7 3 -13q4 -10 19 -10q14 0 19 12q3 6 3 38q0 31 -3 37q-5 12 -19 12t-21 -15q-3 -7 -11 -7h-80q-10 0 -10 10v226q0 10 10 10h230q10 0 10 -10v-76q0 -10 -10 -10h-135q-6 0 -6 -6v-48h2
q14 11 52 11q78 0 96 -61q7 -21 7 -73q0 -48 -7 -68q-23 -72 -124 -72z" />
    <glyph glyph-name="six.denominator" horiz-adv-x="315" 
d="M158 -7q-49 0 -83 19t-45 53q-6 19 -6 59q0 60 29 115l82 157q6 10 14 10h97q12 0 7 -10l-75 -147l1 -1q6 2 14 2q70 0 91 -65q7 -20 7 -61q0 -40 -6 -59q-11 -34 -44.5 -53t-82.5 -19zM179 124q0 18 -2 26q-4 13 -19 13q-16 0 -20 -13q-2 -8 -2 -26q0 -20 2 -28
q4 -13 20 -13q15 0 19 13q2 8 2 28z" />
    <glyph glyph-name="seven.denominator" horiz-adv-x="315" 
d="M172 0h-93q-10 0 -7 10l101 301v2h-37q-6 0 -6 -6v-29q0 -10 -10 -10h-80q-10 0 -10 10v118q0 10 10 10h238q10 0 10 -10v-68q0 -11 -3 -20l-100 -298q-3 -10 -13 -10z" />
    <glyph glyph-name="eight.denominator" horiz-adv-x="315" 
d="M158 -7q-49 0 -83 19.5t-45 53.5q-6 18 -6 52q0 30 5 47q11 31 38 46v1q-30 19 -39 47q-4 12 -4 33q0 30 6 48q11 34 45 53.5t83 19.5q48 0 82 -19.5t45 -53.5q6 -18 6 -48q0 -21 -4 -33q-9 -28 -39 -47v-1q27 -15 38 -46q5 -17 5 -47q0 -34 -6 -52q-11 -34 -45 -53.5
t-82 -19.5zM179 288q0 16 -2 22q-4 13 -19 13q-16 0 -20 -13q-2 -6 -2 -22q0 -17 2 -23q4 -13 20 -13q15 0 19 13q2 6 2 23zM179 123q0 18 -2 26q-4 13 -19 13q-16 0 -20 -13q-2 -8 -2 -26q0 -19 2 -27q4 -13 20 -13q15 0 19 13q2 8 2 27z" />
    <glyph glyph-name="nine.denominator" horiz-adv-x="315" 
d="M166 0h-97q-12 0 -7 10l75 147l-1 1q-6 -2 -14 -2q-70 0 -91 65q-7 20 -7 61q0 40 6 59q11 34 44.5 53t82.5 19t83 -19t45 -53q6 -20 6 -59q0 -60 -29 -115l-82 -157q-6 -10 -14 -10zM157 243q16 0 20 13q2 8 2 26q0 20 -2 28q-4 13 -20 13q-15 0 -19 -13q-2 -8 -2 -28
q0 -18 2 -26q4 -13 19 -13z" />
    </font>
</defs>
</svg>
